<svg xmlns="http://www.w3.org/2000/svg" xmlns:xlink="http://www.w3.org/1999/xlink" width="500" zoomAndPan="magnify" viewBox="0 0 375 374.999991" height="500" preserveAspectRatio="xMidYMid meet" version="1.0"><defs><g/><clipPath id="483c00a5ae"><path d="M 120 89 L 243 89 L 243 227.652344 L 120 227.652344 Z M 120 89 " clip-rule="nonzero"/></clipPath></defs><g clip-path="url(#483c00a5ae)"><path fill="#4c2b15" d="M 240.074219 176.441406 C 240.105469 176.3125 240.132812 176.179688 240.148438 176.046875 C 242.460938 172.375 242.980469 168.265625 241.585938 164.644531 C 243.703125 160.632812 242.933594 155.667969 239.695312 152.300781 C 240.328125 150.886719 240.679688 149.410156 240.746094 147.859375 C 240.808594 146.3125 240.585938 144.808594 240.074219 143.347656 C 238.21875 137.980469 233.996094 131.921875 228.769531 127.144531 C 223.199219 122.042969 216.519531 118.9375 210.515625 116.609375 C 212.125 109.453125 213.144531 103.523438 213.703125 98 C 213.871094 97.519531 213.917969 97.027344 213.855469 96.523438 C 213.890625 96.046875 213.816406 95.582031 213.628906 95.140625 C 213.296875 93.707031 211.914062 92.898438 210.660156 92.835938 C 207.90625 92.699219 205.824219 94.441406 204.164062 95.835938 C 203.867188 96.09375 203.566406 96.34375 203.269531 96.578125 L 198.121094 100.667969 L 191.96875 90.628906 C 191.648438 90.101562 191.214844 89.703125 190.660156 89.433594 C 190.105469 89.164062 189.519531 89.066406 188.910156 89.140625 C 188.285156 89.214844 187.730469 89.453125 187.246094 89.847656 C 186.757812 90.246094 186.417969 90.742188 186.222656 91.339844 C 185.058594 94.894531 183.957031 98.152344 182.492188 101.222656 C 180.0625 97.925781 177.75 94.53125 175.597656 91.09375 C 175.265625 90.582031 174.828125 90.191406 174.28125 89.921875 C 173.734375 89.652344 173.15625 89.542969 172.546875 89.589844 C 172.003906 89.617188 171.511719 89.789062 171.0625 90.097656 C 170.617188 90.40625 170.28125 90.808594 170.0625 91.304688 C 168.519531 94.773438 166.8125 98.285156 164.96875 101.773438 C 161.617188 98.914062 158.105469 96.265625 154.433594 93.824219 C 154.160156 93.628906 153.859375 93.488281 153.539062 93.398438 C 153.214844 93.304688 152.886719 93.269531 152.550781 93.292969 C 152.21875 93.3125 151.894531 93.390625 151.585938 93.519531 C 151.277344 93.652344 151 93.832031 150.753906 94.058594 C 150.25 94.511719 149.914062 95.066406 149.746094 95.722656 C 149.582031 96.378906 149.613281 97.027344 149.84375 97.664062 C 150.242188 99.609375 150.625 101.558594 151.003906 103.507812 C 151.855469 107.933594 152.761719 112.5 153.886719 116.980469 C 146.132812 120.007812 127.054688 129.125 122.398438 146.753906 C 121.328125 150.800781 121.546875 154.414062 123.058594 157.507812 C 120.0625 161.300781 119.945312 166.660156 122.910156 170.460938 C 123.484375 171.195312 124.144531 171.84375 124.890625 172.402344 C 124.261719 174.371094 124.191406 176.363281 124.675781 178.371094 C 121.90625 182.089844 121.117188 187.800781 122.957031 191.554688 C 123.804688 193.308594 125.15625 194.074219 126.351562 194.625 C 124.269531 199.464844 125.265625 205.898438 126.917969 210.285156 C 127.769531 212.605469 129.035156 214.675781 130.707031 216.5 C 135.871094 222.03125 143.816406 224.011719 151.636719 225.328125 C 157.667969 226.34375 164.109375 226.941406 172.523438 227.261719 C 176.15625 227.398438 179.898438 227.507812 183.703125 227.507812 C 189.089844 227.535156 194.457031 227.25 199.8125 226.660156 C 213.449219 225.082031 223.335938 221.703125 230.917969 216.03125 C 233.449219 214.179688 235.652344 211.996094 237.527344 209.484375 C 240.699219 205.164062 242.011719 199.125 241.15625 192.851562 C 241.882812 191.734375 242.320312 190.511719 242.460938 189.1875 C 242.746094 186.832031 241.945312 184.851562 241.230469 183.386719 C 239.988281 180.828125 239.429688 178.964844 240.074219 176.441406 Z M 240.074219 176.441406 " fill-opacity="1" fill-rule="nonzero"/></g><path fill="#ffbb5d" d="M 236.410156 145.386719 C 234.976562 141.292969 232.816406 137.078125 230.148438 133.652344 C 227.535156 130.300781 224.183594 127.628906 220.601562 125.375 C 218.796875 124.246094 216.921875 123.207031 215.039062 122.214844 C 213.21875 121.261719 211.261719 119.957031 209.265625 119.40625 C 205.277344 118.332031 205.585938 122.214844 204.832031 124.84375 C 204.347656 126.535156 203.171875 127.839844 201.625 128.820312 L 201.484375 128.902344 C 200.308594 129.546875 199.082031 130.085938 197.804688 130.511719 C 194.558594 131.507812 190.914062 131.828125 188.464844 131.976562 C 182.304688 132.320312 176.199219 131.890625 170.148438 130.691406 C 167.136719 130.097656 163.605469 129.546875 161.273438 127.382812 C 159.042969 125.320312 158.382812 122.179688 157.785156 119.335938 C 157.773438 119.277344 157.742188 119.238281 157.6875 119.214844 C 157.632812 119.191406 157.582031 119.199219 157.53125 119.230469 L 157.417969 119.003906 C 157.628906 118.90625 157.445312 118.589844 157.234375 118.691406 C 148.554688 122.671875 140.734375 127.921875 133.769531 134.445312 C 128.195312 139.675781 122.273438 147.484375 125.546875 155.546875 C 128.628906 163.148438 138.476562 164.222656 145.558594 164.847656 C 156.414062 165.8125 167.453125 165.945312 178.335938 166.183594 C 188.726562 166.402344 199.15625 166.148438 209.417969 164.363281 C 217.933594 162.886719 226.902344 160.476562 233.457031 154.535156 C 236.265625 151.988281 237.710938 149.109375 236.410156 145.386719 Z M 236.410156 145.386719 " fill-opacity="1" fill-rule="nonzero"/><path fill="#ffbb5d" d="M 237.753906 193.417969 C 237.75 193.300781 237.6875 193.238281 237.570312 193.234375 C 234.742188 192.890625 233.199219 195.15625 232.191406 197.46875 C 231.316406 199.496094 230.554688 201.578125 229.738281 203.625 C 229.375 204.535156 229.015625 206.636719 227.78125 206.65625 C 227.460938 206.625 227.167969 206.523438 226.898438 206.351562 L 226.566406 206.15625 C 225.828125 205.691406 225.027344 205.039062 224.609375 204.792969 C 220.984375 202.671875 217.367188 200.082031 213.53125 198.367188 C 209.851562 196.710938 205.417969 198.757812 201.527344 198.578125 C 197.988281 198.414062 194.214844 196.488281 190.710938 197.804688 C 189.074219 198.417969 187.769531 199.652344 186.265625 200.503906 C 183.894531 201.847656 181.019531 202.433594 178.339844 201.835938 C 174.746094 201.03125 172.578125 197.632812 168.734375 197.570312 C 164.664062 197.507812 162.355469 201.765625 158.261719 200.78125 C 153.996094 199.757812 150.066406 197.808594 145.542969 198.273438 C 143.949219 198.421875 142.492188 198.945312 141.167969 199.835938 C 140.109375 200.535156 139.394531 201.46875 138.054688 201.109375 C 136.710938 200.753906 137.367188 200.949219 136.882812 199.980469 C 136.496094 199.210938 136.316406 198.003906 136.085938 197.183594 C 136.0625 197.089844 136.003906 197.042969 135.90625 197.042969 C 135.8125 197.042969 135.753906 197.089844 135.730469 197.183594 L 135.054688 197.050781 C 135.070312 196.96875 135.046875 196.90625 134.972656 196.863281 L 130.003906 193.625 C 129.953125 193.59375 129.898438 193.589844 129.84375 193.613281 C 129.789062 193.636719 129.75 193.675781 129.734375 193.730469 C 126.851562 201.148438 129.40625 211.019531 135.261719 216.433594 C 138.351562 219.289062 143.234375 220.082031 147.183594 221.042969 C 152.179688 222.242188 157.234375 223.121094 162.339844 223.679688 C 173.03125 224.875 183.824219 224.792969 194.539062 224.027344 C 199.796875 223.648438 205.058594 223.136719 210.289062 222.453125 C 215.015625 221.832031 218.757812 220.277344 222.714844 217.632812 C 227.214844 214.625 232.234375 211.117188 235.59375 206.839844 C 238.65625 202.945312 238.285156 198.0625 237.753906 193.417969 Z M 237.753906 193.417969 " fill-opacity="1" fill-rule="nonzero"/><path fill="#70c156" d="M 236.234375 153.160156 C 236.171875 153.125 236.113281 153.125 236.050781 153.160156 C 231.898438 156.085938 227.710938 158.957031 222.949219 160.808594 C 218.898438 162.386719 214.625 163.324219 210.332031 163.957031 C 200.558594 165.394531 190.5625 165.789062 180.703125 166.289062 C 175.945312 166.53125 171.171875 166.785156 166.40625 166.851562 C 163.644531 166.929688 160.898438 166.777344 158.160156 166.398438 C 155.925781 166.058594 153.75 165.414062 151.519531 165.054688 C 147.414062 164.390625 143.257812 164.75 139.175781 163.800781 C 134.914062 162.789062 131.019531 160.992188 127.488281 158.40625 L 127.566406 158.335938 C 127.746094 158.1875 127.488281 157.929688 127.308594 158.082031 C 127.265625 158.113281 127.226562 158.152344 127.1875 158.1875 L 127.023438 158.066406 C 126.832031 157.925781 126.652344 158.246094 126.839844 158.382812 L 126.914062 158.4375 C 124.21875 160.976562 123.414062 165.175781 125.613281 168.347656 C 128.320312 172.257812 132.554688 171.945312 136.605469 170.730469 C 138.042969 170.300781 139.542969 169.800781 141.066406 169.863281 C 143.167969 169.945312 144.609375 171.199219 146.132812 172.460938 C 148.171875 174.15625 150.265625 175.511719 152.859375 176.207031 C 155.195312 176.824219 157.542969 176.859375 159.894531 176.308594 C 160.117188 176.265625 160.335938 176.214844 160.554688 176.164062 C 161.042969 176.046875 161.527344 175.902344 162.003906 175.746094 C 163.902344 175.160156 165.804688 174.382812 167.835938 173.675781 C 175.097656 171.136719 180.289062 175.238281 186.515625 178.246094 C 190.585938 180.222656 194.480469 180.40625 198.121094 177.507812 C 200.125 175.914062 201.742188 173.875 203.867188 172.421875 C 206.917969 170.347656 210.378906 170.476562 213.742188 171.617188 C 217.769531 172.984375 222.960938 177.171875 227.175781 174.054688 C 228.34375 173.1875 229.089844 171.90625 230.007812 170.808594 C 231.074219 169.578125 232.328125 168.589844 233.773438 167.839844 C 235.753906 166.75 237.917969 165.773438 239.09375 163.742188 C 241.179688 160.121094 239.476562 155.4375 236.234375 153.160156 Z M 236.234375 153.160156 " fill-opacity="1" fill-rule="nonzero"/><path fill="#70c156" d="M 134.496094 195.214844 C 134 192.296875 133.488281 189.347656 132.371094 186.589844 C 131.332031 184.046875 129.714844 181.859375 128.070312 179.683594 C 127.929688 179.5 127.613281 179.683594 127.753906 179.867188 C 127.898438 180.050781 127.191406 179.960938 126.625 180.359375 C 125.078125 181.460938 124.824219 185.335938 124.722656 187.035156 C 124.59375 189.164062 124.835938 189.980469 126.605469 191.003906 C 127.535156 191.546875 128.390625 192.136719 129.242188 192.699219 C 129.644531 192.996094 130.066406 193.265625 130.492188 193.53125 C 131.671875 194.324219 132.933594 194.957031 134.273438 195.429688 C 134.417969 195.488281 134.519531 195.339844 134.496094 195.214844 Z M 134.496094 195.214844 " fill-opacity="1" fill-rule="nonzero"/><path fill="#70c156" d="M 206.296875 194.28125 C 198.046875 190.347656 187.617188 189.414062 178.59375 189.828125 C 167.792969 190.335938 157.4375 192.75 147.53125 197.078125 C 147.316406 197.175781 147.503906 197.488281 147.714844 197.394531 C 147.929688 197.300781 148.191406 197.191406 148.425781 197.089844 C 151.503906 198.957031 155.515625 201.890625 159.335938 201.042969 C 161.191406 200.632812 162.648438 199.507812 164.246094 198.554688 C 167.460938 196.632812 170.113281 197.53125 173.21875 199.074219 C 176.574219 200.738281 179.824219 201.835938 183.597656 200.921875 C 185.332031 200.5 186.792969 199.695312 188.261719 198.691406 C 191.078125 196.765625 193.824219 197.082031 196.988281 197.84375 C 200.238281 198.632812 205.199219 200.171875 208.371094 198.28125 C 211.113281 196.660156 207.929688 195.058594 206.296875 194.28125 Z M 206.296875 194.28125 " fill-opacity="1" fill-rule="nonzero"/><path fill="#70c156" d="M 238.414062 186.367188 C 238.160156 185.542969 237.804688 184.761719 237.351562 184.027344 L 237.308594 183.960938 C 236.929688 183.414062 236.695312 182.144531 236.457031 182.121094 C 235.007812 181.960938 234.476562 188.8125 234.308594 189.894531 C 234.0625 191.371094 233.300781 194.695312 235.746094 193.5 C 238.5 192.148438 239.117188 189.128906 238.414062 186.367188 Z M 238.414062 186.367188 " fill-opacity="1" fill-rule="nonzero"/><path fill="#b2442b" d="M 236.597656 164.789062 C 233.832031 164.613281 230.425781 168.484375 228.917969 170.363281 C 227.539062 172.074219 226.488281 174.355469 224.488281 175.445312 C 221.492188 177.082031 219.691406 174.296875 216.847656 174.4375 C 213.40625 174.605469 211.320312 177.746094 209.085938 179.902344 C 204.679688 184.152344 199.261719 182.445312 194.113281 180.632812 C 189.410156 178.976562 185.085938 176.574219 180.5 174.664062 C 176.417969 172.972656 171.90625 171.882812 167.65625 173.664062 C 163.90625 175.238281 161.191406 178.417969 157.882812 180.671875 C 147.410156 187.816406 135.929688 180.03125 129.601562 171.320312 C 129.460938 171.128906 129.144531 171.320312 129.285156 171.503906 L 129.320312 171.550781 L 128.917969 172.003906 C 128.878906 171.953125 128.828125 171.933594 128.765625 171.941406 C 128.703125 171.949219 128.660156 171.984375 128.636719 172.042969 C 125.523438 178.332031 130.898438 184.296875 136.542969 186.476562 C 140.8125 188.121094 145.546875 188.734375 150.058594 189.367188 C 154.75 190.019531 159.460938 190.363281 164.195312 190.402344 C 174.222656 190.46875 184.398438 189.769531 194.382812 188.871094 C 203.773438 188.027344 213.113281 185.511719 222.054688 182.609375 C 228.367188 180.5625 238.660156 178.019531 239.425781 169.921875 C 239.632812 168.042969 238.980469 164.941406 236.597656 164.789062 Z M 236.597656 164.789062 " fill-opacity="1" fill-rule="nonzero"/><path fill="#ffe568" d="M 162.003906 191.765625 C 157.890625 189.8125 152.660156 189.09375 148.171875 188.53125 C 145.441406 188.1875 142.695312 188.066406 140.03125 187.300781 C 137.367188 186.539062 134.9375 185.375 132.535156 184.089844 C 132.453125 184.042969 132.378906 184.058594 132.3125 184.128906 C 132.25 184.199219 132.242188 184.273438 132.292969 184.355469 L 131.238281 185.089844 C 131.101562 184.925781 130.804688 185.089844 130.9375 185.285156 C 132.34375 187.230469 133.453125 189.332031 134.261719 191.589844 C 135.070312 193.90625 135.21875 196.164062 135.609375 198.554688 C 135.894531 200.316406 136.742188 201.742188 138.640625 200.898438 C 139.457031 200.53125 140.128906 199.695312 140.9375 199.242188 C 142.027344 198.660156 143.171875 198.214844 144.371094 197.90625 C 146.085938 197.421875 147.847656 197.125 149.582031 196.730469 C 153.929688 195.730469 158.070312 194.179688 162.003906 192.078125 C 162.0625 192.042969 162.09375 191.992188 162.09375 191.921875 C 162.09375 191.851562 162.0625 191.800781 162.003906 191.765625 Z M 162.003906 191.765625 " fill-opacity="1" fill-rule="nonzero"/><path fill="#ffe568" d="M 234.628906 177.566406 C 234.5625 177.503906 234.492188 177.492188 234.410156 177.535156 C 221.996094 183.703125 208.652344 186.097656 195.210938 188.980469 C 195.089844 189.003906 195.050781 189.070312 195.085938 189.1875 C 195.015625 189.183594 194.964844 189.214844 194.929688 189.273438 C 194.894531 189.332031 194.894531 189.390625 194.929688 189.453125 C 196.121094 191.320312 198.164062 191.902344 200.136719 192.675781 C 203.574219 194.011719 206.960938 195.46875 210.300781 197.035156 C 216.476562 199.941406 222.449219 203.210938 228.21875 206.847656 C 228.324219 206.90625 228.40625 206.886719 228.46875 206.78125 C 230.777344 201.445312 232.59375 195.941406 233.914062 190.28125 C 234.550781 187.527344 235.078125 184.746094 235.449219 181.945312 C 235.667969 180.347656 235.953125 178.714844 234.628906 177.566406 Z M 234.628906 177.566406 " fill-opacity="1" fill-rule="nonzero"/><path fill="#dd4026" d="M 159.898438 177.984375 C 156.28125 177.628906 152.335938 177.453125 149.257812 175.273438 C 146.992188 173.664062 145.761719 170.566406 142.863281 169.90625 C 139.679688 169.199219 135.703125 171.230469 132.75 172.148438 C 132.6875 172.167969 132.648438 172.210938 132.632812 172.277344 L 131.675781 171.992188 L 131.640625 171.882812 C 131.609375 171.765625 131.535156 171.726562 131.417969 171.757812 C 131.300781 171.789062 131.257812 171.863281 131.289062 171.980469 C 133.023438 177.980469 138.648438 181.191406 144.453125 182.429688 C 149.277344 183.464844 158.167969 185.125 161.171875 179.703125 C 161.9375 178.34375 161.226562 178.113281 159.898438 177.984375 Z M 159.898438 177.984375 " fill-opacity="1" fill-rule="nonzero"/><path fill="#dd4026" d="M 214.347656 173.949219 C 213.679688 172.820312 211.234375 172.390625 210.125 172.179688 C 208.296875 171.84375 206.46875 171.875 204.648438 172.265625 C 202.585938 172.6875 200.726562 173.550781 199.070312 174.847656 C 196.925781 176.542969 195.46875 178.964844 192.761719 179.886719 C 192.539062 179.960938 192.636719 180.316406 192.859375 180.238281 C 192.980469 180.199219 193.09375 180.152344 193.207031 180.105469 L 194.367188 180.230469 C 194.339844 180.339844 194.378906 180.40625 194.492188 180.425781 C 196.648438 180.871094 198.699219 182.132812 200.9375 182.070312 C 203.484375 182.003906 206.171875 180.519531 208.503906 179.644531 C 210.15625 179.027344 216.0625 176.828125 214.347656 173.949219 Z M 214.347656 173.949219 " fill-opacity="1" fill-rule="nonzero"/><path fill="#ffb93f" d="M 209.835938 96.265625 C 209.820312 96.203125 209.78125 96.160156 209.722656 96.136719 C 209.660156 96.113281 209.605469 96.121094 209.550781 96.15625 C 207.570312 97.347656 205.613281 98.59375 203.726562 99.9375 C 202.085938 101.097656 198.605469 104.703125 196.382812 103.476562 C 196.09375 103.3125 195.832031 103.117188 195.589844 102.890625 C 195.101562 102.34375 194.636719 101.761719 194.199219 101.195312 C 193.402344 99.980469 192.734375 98.597656 192.21875 97.613281 C 191.414062 96.101562 190.6875 94.695312 189.386719 93.542969 C 189.34375 93.503906 189.292969 93.488281 189.238281 93.496094 C 189.179688 93.5 189.136719 93.53125 189.105469 93.578125 C 187.882812 95.757812 186.695312 97.953125 185.539062 100.164062 C 184.972656 101.273438 184.410156 102.386719 183.84375 103.503906 C 183.339844 104.511719 183.167969 105.695312 181.96875 105.085938 C 181.121094 104.660156 180 102.824219 179.507812 102.164062 C 178.820312 101.246094 178.175781 100.292969 177.527344 99.339844 C 176.195312 97.363281 174.875 95.386719 173.566406 93.410156 C 173.496094 93.308594 173.308594 93.273438 173.25 93.410156 C 172.335938 95.523438 171.296875 97.578125 170.136719 99.570312 C 169.21875 101.128906 167.8125 104.355469 166.03125 104.988281 C 165.496094 105.554688 165.003906 105.507812 164.554688 104.867188 C 164.074219 104.527344 163.589844 104.191406 163.101562 103.863281 C 162.128906 103.199219 161.140625 102.5625 160.136719 101.945312 C 158.304688 100.816406 156.429688 99.769531 154.527344 98.777344 C 154.558594 98.339844 154.601562 97.898438 154.664062 97.460938 C 154.699219 97.226562 154.347656 97.128906 154.3125 97.359375 C 154.285156 97.542969 154.265625 97.726562 154.242188 97.910156 L 153.960938 98.476562 C 153.757812 98.386719 153.585938 98.691406 153.789062 98.796875 L 154.148438 98.984375 C 153.765625 105.570312 156.699219 111.945312 157.761719 118.378906 C 158.230469 121.222656 158.894531 123.972656 161.261719 125.84375 C 163.699219 127.773438 167.058594 128.773438 170.007812 129.550781 C 177.605469 131.542969 185.269531 130.71875 192.949219 129.726562 C 195.820312 129.355469 199.421875 129.421875 202.054688 128.09375 C 204.605469 126.800781 205.300781 123.941406 205.96875 121.386719 C 207.140625 116.90625 208.117188 112.375 209.0625 107.832031 C 209.878906 103.910156 210.804688 100.242188 209.835938 96.265625 Z M 171.589844 97.308594 L 171.871094 96.769531 C 171.777344 96.941406 171.683594 97.121094 171.589844 97.308594 Z M 171.589844 97.308594 " fill-opacity="1" fill-rule="nonzero"/><path fill="#e8a24d" d="M 233.519531 137.878906 C 229.152344 132.179688 224.242188 126.3125 217.667969 123.109375 C 217.589844 123.074219 217.519531 123.085938 217.457031 123.144531 C 217.394531 123.203125 217.378906 123.269531 217.410156 123.351562 L 216.789062 123.652344 L 216.703125 123.578125 C 216.519531 123.4375 216.332031 123.753906 216.519531 123.894531 C 221.71875 127.820312 223.125 135.171875 219.867188 140.769531 C 219.34375 141.671875 218.769531 142.496094 218.664062 143.554688 C 218.554688 144.609375 218.863281 145.8125 218.449219 146.902344 C 218.144531 147.6875 217.15625 148.421875 216.535156 149.023438 C 214.117188 151.351562 211.609375 153.648438 208.75 155.429688 C 205.800781 157.265625 202.929688 157.800781 199.59375 158.460938 C 196.703125 159.027344 194.5 161.285156 191.703125 162.226562 C 185.714844 164.242188 179.183594 163.476562 173.136719 165.320312 C 173.039062 165.351562 172.996094 165.417969 173.011719 165.519531 C 173.023438 165.621094 173.082031 165.675781 173.183594 165.679688 C 188.925781 166.117188 204.761719 167.371094 219.890625 162.058594 C 225.304688 160.164062 232.164062 157.761719 235.839844 153.109375 C 239.796875 148.117188 236.890625 142.28125 233.519531 137.878906 Z M 233.519531 137.878906 " fill-opacity="1" fill-rule="nonzero"/><path fill="#e8a24d" d="M 238.292969 196.261719 L 238.265625 196.082031 C 237.96875 194.136719 237.085938 192.492188 234.929688 193.464844 C 233.609375 194.0625 233.15625 196.082031 232.664062 197.257812 C 232.050781 198.710938 231.4375 200.167969 230.824219 201.625 C 230.386719 202.667969 229.488281 206.308594 228.089844 206.382812 C 227.210938 206.425781 224.957031 204.804688 224.179688 204.378906 C 222.894531 203.671875 221.628906 202.933594 220.386719 202.160156 C 218.058594 200.714844 215.859375 198.816406 213.324219 197.753906 C 210.945312 196.765625 208.953125 197.125 206.578125 197.894531 C 204.648438 198.519531 202.898438 198.992188 200.855469 198.53125 C 199.496094 198.222656 198.214844 197.632812 196.890625 197.183594 C 192.476562 195.675781 187.925781 196.933594 185.570312 201.140625 C 185.554688 201.164062 185.546875 201.191406 185.542969 201.21875 L 184.101562 201.113281 C 184.027344 201.0625 183.960938 201.015625 183.894531 200.960938 C 183.710938 200.816406 183.453125 201.070312 183.636719 201.21875 C 185.496094 202.714844 187.648438 202.613281 189.90625 202.25 C 192.242188 201.875 194.277344 201.574219 196.5625 202.3125 C 197.789062 202.707031 198.972656 203.238281 200.242188 203.425781 C 203.753906 203.9375 207.253906 201.96875 210.683594 203.308594 C 214.039062 204.621094 213.988281 207.996094 211.503906 210.257812 C 210.015625 211.617188 207.945312 212.519531 206.066406 213.167969 C 202.582031 214.351562 199.332031 214.261719 195.738281 214.160156 C 194.523438 214.074219 193.410156 214.363281 192.394531 215.03125 C 190.53125 216.175781 188.578125 217.117188 186.523438 217.859375 C 184.441406 218.566406 182.296875 219.15625 180.125 219.675781 L 179.816406 219.742188 L 173.683594 221.046875 C 170.390625 221.683594 167.085938 222.261719 163.871094 222.945312 C 163.648438 222.988281 163.730469 223.277344 163.917969 223.304688 C 176.40625 224.988281 188.898438 225.015625 201.390625 223.386719 C 212.003906 221.988281 223.753906 219.777344 231.632812 211.941406 C 234.878906 208.710938 237.402344 204.597656 238.222656 200.054688 C 238.417969 198.792969 238.441406 197.53125 238.292969 196.261719 Z M 166.8125 223.46875 C 166.355469 223.453125 165.898438 223.398438 165.449219 223.304688 C 165.902344 223.363281 166.359375 223.417969 166.8125 223.46875 Z M 166.8125 223.46875 " fill-opacity="1" fill-rule="nonzero"/><path fill="#913424" d="M 199.34375 182.746094 C 195.214844 181.308594 191.125 179.777344 187.066406 178.15625 C 183.070312 176.550781 179.1875 174.574219 175.160156 173.074219 C 172.011719 171.898438 169.578125 172.648438 166.738281 174.230469 C 165.425781 174.964844 164.109375 175.78125 163.179688 176.988281 C 162.171875 178.292969 161.804688 180.558594 159.875 180.941406 C 159.816406 180.953125 159.777344 180.988281 159.753906 181.042969 C 159.730469 181.097656 159.738281 181.148438 159.773438 181.195312 L 156.246094 183.058594 L 155.917969 183.058594 C 155.683594 183.058594 155.683594 183.414062 155.917969 183.421875 C 157.617188 183.476562 159.433594 183.542969 161.046875 182.855469 C 162.304688 182.328125 163.152344 181.226562 164.351562 180.632812 C 166.082031 179.769531 167.972656 180.613281 169.835938 180.289062 C 172.78125 179.773438 174.890625 178.453125 177.617188 180.667969 C 178.15625 181.105469 178.722656 181.507812 179.316406 181.871094 C 179.75 182.164062 180.214844 182.402344 180.707031 182.578125 C 182.070312 183.144531 183.515625 183.355469 185.386719 183.363281 C 190.019531 183.382812 194.679688 183.324219 199.300781 183.078125 C 199.378906 183.054688 199.421875 183.003906 199.429688 182.925781 C 199.441406 182.847656 199.410156 182.789062 199.34375 182.746094 Z M 199.34375 182.746094 " fill-opacity="1" fill-rule="nonzero"/><path fill="#913424" d="M 237.464844 165.804688 C 236.214844 165.269531 233.503906 167.246094 232.683594 167.902344 C 230.636719 169.523438 229.476562 171.917969 227.546875 173.640625 C 223.949219 176.84375 219.335938 174.90625 215.632812 173.042969 C 215.578125 173.015625 215.527344 173.011719 215.472656 173.035156 C 215.414062 173.058594 215.378906 173.097656 215.363281 173.15625 C 214.449219 175.574219 212.9375 177.539062 210.835938 179.050781 C 210.78125 179.089844 210.753906 179.144531 210.753906 179.207031 C 210.753906 179.273438 210.78125 179.328125 210.835938 179.367188 L 210.433594 180.109375 L 210.386719 180.109375 C 210.15625 180.070312 210.058594 180.421875 210.289062 180.457031 C 212.691406 180.839844 214.175781 178.257812 216.574219 177.988281 C 219.046875 177.703125 221.453125 178.640625 223.933594 178.089844 C 226.109375 177.605469 228.046875 176.414062 229.746094 175.011719 C 230.785156 174.164062 231.636719 173.121094 232.636719 172.230469 C 234.390625 170.671875 236.417969 170.449219 238.671875 170.34375 C 238.792969 170.34375 238.851562 170.28125 238.855469 170.164062 C 238.851562 168.953125 238.835938 166.390625 237.464844 165.804688 Z M 237.25 170.238281 C 236.921875 170.292969 236.589844 170.332031 236.253906 170.351562 C 236.582031 170.300781 236.917969 170.265625 237.25 170.238281 Z M 237.25 170.238281 " fill-opacity="1" fill-rule="nonzero"/><path fill="#ffe97f" d="M 177.183594 131.441406 C 177.183594 131.324219 177.125 131.261719 177.003906 131.261719 C 172.589844 131.351562 167.875 131.472656 163.828125 129.433594 C 162.324219 128.699219 161.023438 127.699219 159.925781 126.433594 C 158.507812 124.773438 158.398438 123 157.542969 121.152344 C 156.761719 119.457031 155.660156 119.621094 154.117188 120.210938 C 151.066406 121.382812 148.15625 122.828125 145.375 124.542969 C 136.058594 130.238281 123.738281 141.386719 125.136719 153.488281 C 125.035156 153.546875 125.011719 153.625 125.074219 153.726562 L 125.195312 153.917969 C 125.257812 154.351562 125.335938 154.789062 125.433594 155.230469 C 125.484375 155.460938 125.839844 155.359375 125.785156 155.132812 C 125.75 154.964844 125.714844 154.796875 125.679688 154.628906 C 128.570312 158.460938 133.867188 159.519531 138.449219 159.910156 C 144.496094 160.394531 150.335938 159.519531 155.972656 157.285156 C 166.320312 153.210938 177.5 143.476562 177.183594 131.441406 Z M 177.183594 131.441406 " fill-opacity="1" fill-rule="nonzero"/><path fill="#ffe97f" d="M 170.453125 198.285156 C 167.257812 196.621094 165.03125 199.878906 162.09375 200.542969 C 157.039062 201.671875 152.796875 198.101562 148.066406 197.257812 C 146.410156 196.960938 145 197.480469 143.5 198.152344 C 142.351562 198.671875 141.21875 199.21875 140.078125 199.75 C 139.230469 200.136719 137.15625 201.609375 136.296875 201.253906 C 135.679688 201 135.535156 199.824219 135.199219 199.160156 C 134.824219 198.414062 134.359375 197.726562 133.804688 197.101562 C 132.597656 195.742188 131.125 194.78125 129.390625 194.222656 C 129.273438 194.191406 129.199219 194.234375 129.164062 194.347656 C 128.582031 198.5 128.449219 202.664062 128.769531 206.84375 C 128.785156 207.078125 129.152344 207.078125 129.132812 206.84375 C 129.089844 206.28125 130.902344 218.492188 142.683594 218.101562 C 146.601562 217.96875 149.867188 216.324219 153.199219 214.597656 C 157.394531 212.429688 161.890625 212.214844 166.269531 210.675781 C 169.148438 209.660156 171.898438 207.8125 172.882812 204.785156 C 173.679688 202.304688 172.832031 199.53125 170.453125 198.285156 Z M 170.453125 198.285156 " fill-opacity="1" fill-rule="nonzero"/><path fill="#ffffff" d="M 165.871094 128.21875 C 164.261719 120.113281 162.652344 112.003906 161.042969 103.894531 C 161.089844 103.867188 161.121094 103.824219 161.132812 103.765625 C 161.144531 103.710938 161.132812 103.660156 161.097656 103.613281 L 160.953125 103.4375 C 160.894531 103.15625 160.839844 102.875 160.785156 102.605469 C 160.738281 102.375 156.195312 99.09375 153.445312 97.949219 C 153.304688 97.890625 153.199219 98.054688 153.222656 98.171875 C 154.449219 105.027344 155.769531 112.035156 157.878906 118.675781 C 158.816406 121.621094 161.449219 129.578125 165.742188 128.453125 C 165.871094 128.421875 165.910156 128.34375 165.871094 128.21875 Z M 165.871094 128.21875 " fill-opacity="1" fill-rule="nonzero"/><path fill="#ffffff" d="M 172.265625 129.882812 C 170.429688 121.742188 168.796875 113.5625 167.367188 105.34375 C 167.328125 105.113281 166.972656 105.210938 167.015625 105.441406 L 167.03125 105.535156 L 165.472656 106.925781 C 165.40625 106.859375 165.332031 106.851562 165.25 106.894531 C 165.167969 106.941406 165.136719 107.007812 165.15625 107.097656 L 168.699219 122.101562 C 169.195312 124.203125 169.449219 126.617188 170.285156 128.628906 C 170.675781 129.554688 171.078125 130.058594 172.074219 130.109375 C 172.136719 130.113281 172.1875 130.089844 172.226562 130.042969 C 172.265625 129.996094 172.28125 129.941406 172.265625 129.882812 Z M 172.265625 129.882812 " fill-opacity="1" fill-rule="nonzero"/><path fill="#ffffff" d="M 199.96875 103.730469 C 196.441406 105.863281 194.589844 101.390625 192.96875 99.089844 C 192.921875 99.019531 192.855469 98.996094 192.769531 99.019531 C 192.722656 98.9375 192.65625 98.90625 192.566406 98.929688 C 192.476562 98.953125 192.429688 99.011719 192.429688 99.105469 C 192.691406 109.460938 192.804688 119.820312 192.765625 130.175781 C 192.769531 130.296875 192.828125 130.355469 192.949219 130.359375 C 194.082031 130.328125 196.855469 130.59375 197.730469 129.617188 C 198.191406 129.097656 198.148438 127.683594 198.238281 127.027344 C 198.449219 125.488281 198.640625 123.953125 198.820312 122.414062 C 199.539062 116.265625 200 110.085938 200.238281 103.898438 C 200.238281 103.828125 200.210938 103.773438 200.152344 103.738281 C 200.089844 103.699219 200.03125 103.695312 199.96875 103.730469 Z M 199.75 110 C 199.691406 111.261719 199.597656 112.542969 199.464844 113.796875 C 199.578125 112.53125 199.671875 111.269531 199.75 110 Z M 199.75 110 " fill-opacity="1" fill-rule="nonzero"/><path fill="#ffffff" d="M 204.128906 100.082031 C 204.128906 100.171875 204.128906 100.253906 204.128906 100.339844 L 203.601562 101.050781 C 203.542969 101.019531 203.480469 101.019531 203.421875 101.050781 C 203.363281 101.082031 203.328125 101.128906 203.320312 101.195312 C 202.378906 110.316406 201.367188 119.425781 200.289062 128.527344 C 200.269531 128.671875 200.453125 128.75 200.570312 128.6875 C 201.777344 128.003906 201.75 126.410156 201.984375 125.171875 C 202.449219 122.554688 202.851562 119.925781 203.191406 117.285156 C 203.929688 111.578125 204.359375 105.835938 204.523438 100.082031 C 204.523438 99.953125 204.457031 99.886719 204.324219 99.886719 C 204.195312 99.886719 204.128906 99.953125 204.128906 100.082031 Z M 204.128906 100.082031 " fill-opacity="1" fill-rule="nonzero"/><path fill="#4c2b15" d="M 238.421875 176.023438 C 238.464844 175.855469 238.476562 175.6875 238.460938 175.515625 C 240.535156 172.441406 241.363281 168.5625 239.90625 165.039062 C 239.835938 164.875 239.742188 164.730469 239.625 164.601562 C 242.253906 160.648438 241.164062 155.601562 237.597656 152.6875 C 239.042969 150.082031 239.558594 147.082031 238.449219 143.886719 C 236.519531 138.214844 232.027344 132.417969 227.617188 128.378906 C 222.15625 123.378906 215.394531 120.234375 208.523438 117.644531 C 210.054688 111.035156 211.355469 104.292969 212.03125 97.578125 C 212.167969 97.289062 212.210938 96.988281 212.15625 96.675781 L 212.140625 96.558594 C 212.140625 96.519531 212.140625 96.476562 212.140625 96.433594 C 212.167969 96.160156 212.117188 95.902344 211.984375 95.660156 C 211.984375 95.636719 211.984375 95.617188 211.984375 95.59375 C 211.882812 94.949219 211.167969 94.550781 210.570312 94.523438 C 208.042969 94.398438 206.171875 96.433594 204.328125 97.898438 L 197.675781 103.195312 L 190.515625 91.519531 C 190.359375 91.269531 190.152344 91.082031 189.890625 90.957031 C 189.625 90.832031 189.351562 90.789062 189.0625 90.824219 C 188.769531 90.863281 188.515625 90.976562 188.292969 91.164062 C 188.070312 91.355469 187.917969 91.585938 187.832031 91.867188 C 186.417969 96.183594 184.964844 100.460938 182.738281 104.414062 C 179.675781 100.410156 176.808594 96.265625 174.128906 91.988281 C 173.601562 91.140625 172.074219 90.933594 171.605469 91.988281 C 169.71875 96.226562 167.671875 100.382812 165.460938 104.457031 C 161.679688 101.105469 157.679688 98.03125 153.464844 95.234375 C 152.132812 94.351562 150.886719 96.03125 151.484375 97.195312 C 151.484375 97.226562 151.484375 97.261719 151.484375 97.296875 C 152.898438 104.210938 154.085938 111.195312 155.894531 118.023438 C 142.558594 122.875 127.828125 132.851562 124.054688 147.1875 C 123.046875 151.003906 123.183594 154.574219 125.132812 157.753906 C 122.019531 160.859375 121.453125 165.851562 124.261719 169.425781 C 125.007812 170.398438 125.921875 171.171875 127.003906 171.746094 C 126.464844 172.84375 126.15625 174 126.078125 175.222656 C 125.996094 176.441406 126.15625 177.628906 126.550781 178.785156 C 123.902344 181.761719 122.730469 187.230469 124.488281 190.820312 C 125.421875 192.734375 127.15625 193.011719 128.671875 193.875 C 125.839844 198.214844 126.800781 205.171875 128.503906 209.691406 C 129.28125 211.800781 130.429688 213.683594 131.949219 215.339844 C 136.925781 220.671875 145.023438 222.488281 151.914062 223.652344 C 158.742188 224.800781 165.671875 225.296875 172.578125 225.558594 C 181.570312 225.902344 190.648438 226.015625 199.601562 224.980469 C 210.140625 223.761719 221.242188 221.148438 229.890625 214.679688 C 232.28125 212.929688 234.367188 210.867188 236.144531 208.492188 C 239.457031 203.972656 240.230469 197.988281 239.386719 192.5625 C 239.386719 192.515625 239.363281 192.484375 239.355469 192.441406 C 240.164062 191.425781 240.632812 190.269531 240.769531 188.980469 C 240.96875 187.234375 240.460938 185.675781 239.699219 184.121094 C 238.371094 181.398438 237.648438 179.070312 238.421875 176.023438 Z M 227.949219 205.3125 C 222.773438 201.542969 217.292969 198.273438 211.511719 195.507812 C 211.285156 195.277344 211.011719 195.148438 210.691406 195.125 C 206.167969 193.035156 201.476562 191.433594 196.617188 190.324219 C 206.382812 188.894531 215.957031 186.640625 225.335938 183.570312 C 228.339844 182.585938 231.480469 181.457031 234.15625 179.691406 C 233.464844 188.566406 231.394531 197.105469 227.941406 205.3125 Z M 137.300781 199.988281 C 137.144531 199.324219 136.984375 198.664062 136.820312 198.011719 C 136.816406 197.8125 136.769531 197.621094 136.679688 197.445312 C 135.71875 193.652344 134.609375 189.902344 133.355469 186.195312 C 134 186.535156 134.660156 186.839844 135.335938 187.117188 C 142.484375 190.082031 150.507812 191.25 158.347656 191.789062 C 156.320312 192.253906 154.300781 192.765625 152.296875 193.339844 C 146.980469 194.859375 141.765625 196.757812 137.300781 199.988281 Z M 145.695312 184.585938 C 153.289062 185.691406 160.519531 184.160156 164.847656 177.363281 C 164.914062 177.261719 164.964844 177.15625 165.003906 177.042969 C 165.125 176.957031 165.25 176.878906 165.371094 176.789062 C 167.960938 174.8125 170.117188 173.335938 173.535156 173.898438 C 176.710938 174.421875 179.449219 176.226562 182.1875 177.800781 C 184 178.882812 185.902344 179.773438 187.894531 180.472656 C 192.992188 182.851562 198.535156 184.425781 204.191406 183.28125 C 206.652344 182.792969 208.933594 181.863281 211.03125 180.488281 C 213.125 179.109375 214.886719 177.390625 216.308594 175.328125 C 219.886719 176.917969 223.667969 178.226562 227.257812 175.808594 C 229.46875 174.316406 230.464844 171.785156 232.316406 169.957031 C 233.804688 168.492188 235.753906 167.882812 237.414062 166.773438 C 239.839844 174.789062 229.796875 179.074219 223.667969 181.042969 C 215.550781 183.648438 207.285156 185.648438 198.871094 187.035156 C 190.796875 188.386719 182.664062 189.183594 174.480469 189.417969 C 174.257812 189.320312 174.027344 189.285156 173.789062 189.3125 C 173.320312 189.359375 172.855469 189.414062 172.371094 189.460938 C 163.800781 189.566406 155.238281 188.941406 146.976562 187.332031 C 142.582031 186.484375 137.753906 185.492188 133.871094 183.160156 C 130.679688 181.242188 127.644531 176.992188 129.386719 173.320312 C 131.765625 180.1875 138.785156 183.585938 145.695312 184.585938 Z M 132.296875 172.722656 C 133.730469 172.625 135.140625 172.398438 136.527344 172.039062 C 139.457031 171.328125 142.347656 170.554688 144.777344 172.832031 C 146.636719 174.578125 147.976562 176.546875 150.4375 177.519531 C 153.234375 178.625 156.558594 179.273438 159.667969 178.933594 C 155.894531 182.078125 150.757812 182.496094 145.628906 181.652344 C 140.082031 180.738281 134.382812 178.132812 132.296875 172.722656 Z M 196.589844 180.417969 C 196.816406 180.316406 197.039062 180.203125 197.261719 180.082031 C 199.375 178.90625 200.753906 176.902344 202.5 175.296875 C 205.433594 172.597656 208.964844 172.238281 212.601562 173.695312 C 212.933594 173.832031 213.269531 173.980469 213.609375 174.125 C 211.179688 177.480469 207.496094 179.671875 203.417969 180.480469 C 201.136719 180.90625 198.859375 180.878906 196.589844 180.40625 Z M 153.964844 195.882812 C 160.460938 194.070312 167.066406 192.84375 173.78125 192.210938 C 173.859375 192.203125 173.9375 192.1875 174.015625 192.167969 C 177.746094 192.105469 181.476562 191.921875 185.203125 191.617188 C 185.425781 191.753906 185.667969 191.828125 185.929688 191.835938 C 193.335938 192.117188 200.382812 193.917969 207.058594 196.699219 C 204.71875 197.472656 202.367188 197.503906 200.003906 196.796875 C 197.234375 196.011719 194.574219 194.800781 191.625 195.257812 C 188.609375 195.726562 187.25 198.152344 184.757812 199.558594 C 181.761719 201.253906 178.390625 200.601562 175.699219 198.726562 C 173.6875 197.328125 171.703125 195.53125 169.125 195.410156 C 166.683594 195.289062 164.8125 196.644531 162.96875 198.050781 C 161.984375 198.800781 160.933594 199.664062 159.699219 199.945312 C 157.570312 200.429688 155.394531 199.195312 153.511719 198.378906 C 152.339844 197.871094 151.136719 197.449219 149.90625 197.109375 C 151.242188 196.671875 152.605469 196.269531 153.964844 195.882812 Z M 236.574219 184.414062 C 237.214844 185.644531 237.972656 186.875 237.921875 188.292969 C 237.90625 188.703125 237.828125 189.097656 237.695312 189.484375 C 237.5625 189.867188 237.375 190.226562 237.132812 190.554688 C 236.890625 190.886719 236.609375 191.175781 236.28125 191.421875 C 235.957031 191.667969 235.601562 191.859375 235.21875 192.003906 C 235.785156 189.503906 236.238281 186.976562 236.574219 184.414062 Z M 167.148438 107.527344 C 169.277344 103.675781 171.257812 99.75 173.09375 95.753906 C 175.84375 99.972656 178.777344 104.070312 181.890625 108.042969 C 182.5 108.820312 183.730469 108.449219 184.183594 107.761719 C 186.597656 104.015625 188.222656 99.898438 189.65625 95.710938 L 196.023438 106.09375 C 196.558594 106.964844 197.585938 106.972656 198.320312 106.375 L 204.195312 101.710938 C 205.429688 100.734375 207.308594 98.636719 209.085938 97.800781 C 208.261719 105.851562 206.472656 113.972656 204.535156 121.792969 C 204.074219 123.636719 203.445312 125.550781 201.761719 126.636719 C 200.082031 127.71875 197.890625 128.085938 196.015625 128.546875 C 191.734375 129.585938 187.390625 130.125 182.980469 130.160156 C 178.722656 130.207031 174.511719 129.78125 170.347656 128.886719 C 168.359375 128.480469 166.410156 127.949219 164.492188 127.292969 C 161.84375 126.34375 161 124.730469 160.175781 122.179688 C 157.828125 114.886719 156.472656 107.332031 155 99.820312 C 158.449219 102.285156 161.734375 104.953125 164.855469 107.824219 C 165.015625 107.980469 165.203125 108.09375 165.417969 108.164062 C 165.632812 108.234375 165.851562 108.253906 166.074219 108.226562 C 166.296875 108.199219 166.5 108.121094 166.691406 108 C 166.878906 107.878906 167.03125 107.71875 167.148438 107.527344 Z M 134.265625 135.363281 C 140.472656 128.839844 148.265625 123.925781 156.714844 120.84375 C 156.75 120.957031 156.777344 121.070312 156.8125 121.183594 C 157.683594 124.097656 158.507812 127.34375 161.273438 129.035156 C 164.152344 130.796875 168.011719 131.433594 171.285156 132.042969 C 178.644531 133.40625 186.003906 133.421875 193.363281 132.085938 C 196.589844 131.496094 200.382812 130.871094 203.226562 129.152344 C 205.59375 127.722656 206.710938 125.140625 207.34375 122.566406 C 207.511719 121.882812 207.675781 121.191406 207.839844 120.507812 C 213.378906 122.597656 218.878906 125.078125 223.558594 128.757812 C 227.742188 132.050781 230.855469 136.203125 233.574219 140.726562 C 235.664062 144.21875 237.0625 147.503906 235.03125 151.378906 C 233.21875 154.839844 229.675781 156.90625 226.167969 158.316406 C 219.171875 161.15625 211.707031 162.875 204.238281 163.890625 C 195.425781 165.085938 186.511719 165.300781 177.632812 165.25 C 166.824219 164.925781 155.980469 164.320312 145.234375 163.097656 C 138.195312 162.296875 126.058594 161.175781 126.269531 151.546875 C 126.410156 145.269531 130.089844 139.738281 134.265625 135.363281 Z M 126.210938 167.136719 C 124.710938 164.777344 125.277344 162.027344 126.976562 160.066406 C 129.808594 162.925781 133.582031 164.28125 137.496094 164.949219 C 145.339844 166.285156 153.328125 166.871094 161.273438 167.375 C 166.71875 167.71875 172.179688 168.003906 177.636719 168.167969 C 194.71875 168.269531 213.042969 167.527344 228.847656 160.324219 C 231.597656 159.089844 233.960938 157.339844 235.945312 155.070312 C 237.710938 156.5625 238.652344 158.867188 238.023438 161.195312 C 237.277344 163.976562 235.171875 164.847656 232.859375 166.050781 C 231.132812 166.949219 229.890625 168.203125 228.738281 169.75 C 227.226562 171.785156 225.90625 174.078125 223.074219 174.21875 C 218.101562 174.460938 214.132812 170.144531 209.179688 169.863281 C 204.480469 169.601562 201.40625 172.253906 198.355469 175.410156 C 195.347656 178.515625 191.988281 178.683594 188.613281 177.59375 L 188.492188 177.539062 C 188.351562 177.46875 188.207031 177.425781 188.050781 177.402344 C 186.527344 176.824219 185.066406 176.121094 183.667969 175.289062 C 179.824219 173.074219 175.828125 170.605469 171.199219 170.871094 C 169.25 170.972656 167.480469 171.589844 165.890625 172.722656 C 163.667969 174.277344 162.027344 176.03125 159.125 176.09375 C 156.6875 176.121094 154.308594 175.75 151.992188 174.988281 C 149.394531 174.105469 148.195312 171.816406 146.164062 170.1875 C 142.289062 167.054688 137.902344 168.945312 133.5625 169.730469 C 130.714844 170.230469 127.867188 169.738281 126.210938 167.136719 Z M 128.035156 181.761719 C 128.425781 182.308594 128.855469 182.820312 129.332031 183.296875 C 129.335938 183.457031 129.363281 183.613281 129.417969 183.765625 C 130.5625 186.917969 131.601562 190.097656 132.53125 193.308594 C 132.410156 193.121094 132.277344 192.945312 132.132812 192.777344 C 131.027344 191.554688 129.492188 191.445312 128.171875 190.605469 C 125.632812 188.996094 126.472656 184.453125 128.035156 181.761719 Z M 204.765625 221.332031 C 196.808594 222.710938 188.734375 222.9375 180.679688 222.847656 C 173.378906 222.765625 166.0625 222.488281 158.804688 221.691406 C 151.296875 220.863281 142.488281 219.746094 136.164062 215.195312 C 134.34375 213.894531 132.929688 212.25 131.917969 210.257812 C 131.207031 208.808594 130.707031 207.289062 130.417969 205.699219 C 129.882812 203.007812 129.285156 198.804688 130.703125 196.09375 C 131.019531 196.746094 131.300781 197.429688 131.816406 197.972656 C 132.46875 198.660156 133.253906 199.140625 134.164062 199.414062 C 134.445312 200.589844 134.730469 201.765625 134.984375 202.949219 C 135.238281 204.132812 136.652344 204.265625 137.425781 203.59375 C 139.605469 201.753906 142.003906 200.265625 144.617188 199.125 L 144.695312 199.140625 C 148.402344 199.390625 151.390625 200.804688 154.796875 202.109375 C 157.441406 203.128906 160.058594 203.328125 162.585938 201.898438 C 164.914062 200.582031 167.050781 197.550781 170.058594 198.578125 C 172.902344 199.550781 174.8125 202.175781 177.773438 203.046875 C 179.039062 203.410156 180.328125 203.542969 181.644531 203.449219 C 182.957031 203.355469 184.214844 203.035156 185.417969 202.496094 C 188.515625 201.082031 190.105469 197.746094 193.886719 198.15625 C 197.042969 198.496094 199.859375 200.171875 203.089844 200.273438 C 205.789062 200.332031 208.296875 199.679688 210.621094 198.3125 C 216.667969 201.191406 222.402344 204.832031 227.8125 208.820312 C 228.402344 209.253906 229.511719 208.964844 229.816406 208.296875 C 231.710938 204.039062 233.253906 199.660156 234.449219 195.15625 C 235.234375 195.035156 235.988281 194.8125 236.714844 194.480469 C 238.519531 211.699219 218.625 218.925781 204.765625 221.332031 Z M 204.765625 221.332031 " fill-opacity="1" fill-rule="nonzero"/><path fill="#ffe97f" d="M 182.457031 151.125 C 183.367188 151.757812 184.351562 152.226562 185.417969 152.535156 C 185.605469 152.585938 185.796875 152.601562 185.988281 152.578125 C 186.183594 152.550781 186.363281 152.492188 186.53125 152.394531 C 186.703125 152.300781 186.847656 152.175781 186.964844 152.023438 C 187.085938 151.867188 187.171875 151.699219 187.222656 151.511719 C 187.273438 151.324219 187.285156 151.136719 187.261719 150.941406 C 187.238281 150.75 187.179688 150.570312 187.082031 150.398438 C 186.988281 150.230469 186.863281 150.085938 186.707031 149.96875 C 186.554688 149.847656 186.382812 149.761719 186.195312 149.710938 C 185.378906 149.464844 184.625 149.085938 183.933594 148.582031 C 183.289062 148.125 182.308594 148.464844 181.933594 149.105469 C 181.503906 149.835938 181.8125 150.644531 182.457031 151.097656 Z M 182.457031 151.125 " fill-opacity="1" fill-rule="nonzero"/><path fill="#ffe97f" d="M 191.726562 144.292969 L 193.511719 144.292969 C 193.699219 144.285156 193.878906 144.242188 194.050781 144.164062 C 194.222656 144.085938 194.375 143.976562 194.503906 143.84375 C 194.632812 143.707031 194.734375 143.550781 194.804688 143.375 C 194.875 143.203125 194.910156 143.019531 194.910156 142.832031 C 194.910156 142.644531 194.875 142.464844 194.804688 142.289062 C 194.734375 142.113281 194.632812 141.957031 194.503906 141.824219 C 194.375 141.6875 194.222656 141.582031 194.050781 141.503906 C 193.878906 141.425781 193.699219 141.382812 193.511719 141.375 L 191.726562 141.375 C 191.527344 141.363281 191.332031 141.394531 191.144531 141.464844 C 190.957031 141.535156 190.792969 141.640625 190.648438 141.777344 C 190.503906 141.914062 190.394531 142.074219 190.316406 142.257812 C 190.238281 142.441406 190.199219 142.632812 190.199219 142.832031 C 190.199219 143.03125 190.238281 143.222656 190.316406 143.40625 C 190.394531 143.589844 190.503906 143.75 190.648438 143.886719 C 190.792969 144.023438 190.957031 144.128906 191.144531 144.199219 C 191.332031 144.269531 191.527344 144.300781 191.726562 144.292969 Z M 191.726562 144.292969 " fill-opacity="1" fill-rule="nonzero"/><path fill="#ffe97f" d="M 202.007812 143.648438 C 202.238281 144.261719 202.316406 144.890625 202.246094 145.539062 C 202.246094 145.734375 202.285156 145.917969 202.359375 146.097656 C 202.433594 146.277344 202.539062 146.433594 202.675781 146.570312 C 202.8125 146.707031 202.972656 146.8125 203.152344 146.886719 C 203.328125 146.960938 203.515625 147 203.710938 147 C 203.902344 146.996094 204.085938 146.953125 204.261719 146.878906 C 204.441406 146.804688 204.597656 146.695312 204.730469 146.5625 C 204.867188 146.425781 204.972656 146.269531 205.050781 146.09375 C 205.125 145.917969 205.164062 145.730469 205.171875 145.539062 C 205.230469 144.628906 205.117188 143.738281 204.828125 142.875 C 204.585938 142.152344 203.808594 141.601562 203.03125 141.855469 C 202.308594 142.089844 201.75 142.875 202.007812 143.648438 Z M 202.007812 143.648438 " fill-opacity="1" fill-rule="nonzero"/><path fill="#ffe97f" d="M 211.914062 141.328125 L 213.214844 141.328125 C 213.402344 141.320312 213.582031 141.277344 213.753906 141.199219 C 213.925781 141.121094 214.078125 141.015625 214.207031 140.878906 C 214.335938 140.742188 214.4375 140.589844 214.507812 140.414062 C 214.578125 140.238281 214.613281 140.058594 214.613281 139.871094 C 214.613281 139.683594 214.578125 139.5 214.507812 139.324219 C 214.4375 139.152344 214.335938 138.996094 214.207031 138.859375 C 214.078125 138.722656 213.925781 138.617188 213.753906 138.539062 C 213.582031 138.460938 213.402344 138.417969 213.214844 138.410156 L 211.914062 138.410156 C 211.726562 138.417969 211.546875 138.460938 211.375 138.539062 C 211.203125 138.617188 211.050781 138.722656 210.921875 138.859375 C 210.792969 138.996094 210.691406 139.152344 210.621094 139.324219 C 210.550781 139.5 210.515625 139.683594 210.515625 139.871094 C 210.515625 140.058594 210.550781 140.238281 210.621094 140.414062 C 210.691406 140.589844 210.792969 140.742188 210.921875 140.878906 C 211.050781 141.015625 211.203125 141.121094 211.375 141.199219 C 211.546875 141.277344 211.726562 141.320312 211.914062 141.328125 Z M 211.914062 141.328125 " fill-opacity="1" fill-rule="nonzero"/><path fill="#ffe97f" d="M 198.765625 134.847656 L 200.0625 134.847656 C 200.257812 134.847656 200.445312 134.8125 200.621094 134.738281 C 200.800781 134.664062 200.960938 134.558594 201.097656 134.421875 C 201.234375 134.285156 201.339844 134.128906 201.414062 133.949219 C 201.488281 133.769531 201.523438 133.585938 201.523438 133.390625 C 201.523438 133.199219 201.488281 133.011719 201.414062 132.835938 C 201.339844 132.65625 201.234375 132.496094 201.097656 132.359375 C 200.960938 132.226562 200.800781 132.121094 200.621094 132.046875 C 200.445312 131.972656 200.257812 131.933594 200.0625 131.933594 L 198.765625 131.933594 C 198.570312 131.933594 198.382812 131.972656 198.207031 132.046875 C 198.027344 132.121094 197.867188 132.226562 197.730469 132.359375 C 197.59375 132.496094 197.488281 132.65625 197.414062 132.835938 C 197.339844 133.011719 197.304688 133.199219 197.304688 133.390625 C 197.304688 133.585938 197.339844 133.769531 197.414062 133.949219 C 197.488281 134.128906 197.59375 134.285156 197.730469 134.421875 C 197.867188 134.558594 198.027344 134.664062 198.207031 134.738281 C 198.382812 134.8125 198.570312 134.847656 198.765625 134.847656 Z M 198.765625 134.847656 " fill-opacity="1" fill-rule="nonzero"/><path fill="#ffe97f" d="M 209.0625 149.320312 L 209.226562 150.289062 C 209.332031 150.671875 209.554688 150.960938 209.898438 151.164062 C 210.066406 151.261719 210.246094 151.324219 210.4375 151.347656 C 210.628906 151.375 210.820312 151.363281 211.007812 151.316406 C 211.195312 151.265625 211.363281 151.183594 211.519531 151.066406 C 211.675781 150.949219 211.800781 150.808594 211.898438 150.640625 C 212.082031 150.28125 212.132812 149.90625 212.046875 149.511719 L 211.882812 148.539062 C 211.777344 148.15625 211.554688 147.867188 211.210938 147.667969 C 211.042969 147.570312 210.863281 147.507812 210.671875 147.480469 C 210.480469 147.453125 210.289062 147.464844 210.101562 147.515625 C 209.914062 147.5625 209.742188 147.648438 209.589844 147.761719 C 209.433594 147.878906 209.308594 148.023438 209.210938 148.1875 C 209.027344 148.546875 208.976562 148.925781 209.0625 149.320312 Z M 209.0625 149.320312 " fill-opacity="1" fill-rule="nonzero"/><path fill="#ffe97f" d="M 223.054688 142.558594 C 224.140625 142.839844 225.246094 142.964844 226.367188 142.9375 C 228.246094 142.886719 228.253906 139.96875 226.367188 140.019531 C 225.511719 140.050781 224.664062 139.953125 223.835938 139.738281 C 222.011719 139.269531 221.234375 142.082031 223.054688 142.5625 Z M 223.054688 142.558594 " fill-opacity="1" fill-rule="nonzero"/><path fill="#ffe97f" d="M 196.546875 153.253906 L 196.546875 150.5 C 196.546875 148.625 193.621094 148.621094 193.621094 150.5 L 193.621094 153.257812 C 193.621094 155.132812 196.546875 155.132812 196.546875 153.257812 Z M 196.546875 153.253906 " fill-opacity="1" fill-rule="nonzero"/><path fill="#ffe97f" d="M 183.054688 135.15625 C 182.996094 136.238281 183.15625 137.289062 183.527344 138.308594 C 183.582031 138.492188 183.671875 138.660156 183.792969 138.808594 C 183.910156 138.960938 184.054688 139.082031 184.222656 139.175781 C 184.390625 139.273438 184.570312 139.332031 184.757812 139.359375 C 184.949219 139.386719 185.140625 139.375 185.324219 139.328125 C 186.039062 139.132812 186.621094 138.277344 186.347656 137.535156 C 186.054688 136.769531 185.929688 135.976562 185.976562 135.15625 C 185.976562 134.964844 185.9375 134.777344 185.867188 134.597656 C 185.792969 134.421875 185.6875 134.261719 185.546875 134.125 C 185.410156 133.988281 185.253906 133.882812 185.074219 133.8125 C 184.894531 133.738281 184.710938 133.699219 184.515625 133.699219 C 184.320312 133.699219 184.136719 133.738281 183.957031 133.8125 C 183.777344 133.882812 183.621094 133.988281 183.484375 134.125 C 183.347656 134.261719 183.242188 134.421875 183.167969 134.597656 C 183.09375 134.777344 183.054688 134.964844 183.054688 135.15625 Z M 183.054688 135.15625 " fill-opacity="1" fill-rule="nonzero"/><path fill="#ffe97f" d="M 167.839844 154.335938 L 169.449219 155.96875 C 169.589844 156.097656 169.746094 156.195312 169.921875 156.261719 C 170.097656 156.328125 170.28125 156.359375 170.46875 156.355469 C 170.660156 156.351562 170.839844 156.3125 171.011719 156.238281 C 171.1875 156.164062 171.339844 156.0625 171.472656 155.929688 C 171.609375 155.796875 171.710938 155.644531 171.785156 155.46875 C 171.859375 155.296875 171.898438 155.117188 171.902344 154.929688 C 171.90625 154.738281 171.875 154.558594 171.808594 154.382812 C 171.742188 154.203125 171.644531 154.046875 171.519531 153.910156 L 169.910156 152.273438 C 169.773438 152.144531 169.613281 152.046875 169.4375 151.980469 C 169.261719 151.914062 169.078125 151.882812 168.890625 151.886719 C 168.699219 151.890625 168.519531 151.929688 168.347656 152.003906 C 168.171875 152.078125 168.019531 152.179688 167.886719 152.316406 C 167.75 152.449219 167.648438 152.601562 167.574219 152.773438 C 167.5 152.945312 167.460938 153.128906 167.457031 153.316406 C 167.453125 153.503906 167.484375 153.6875 167.550781 153.863281 C 167.617188 154.039062 167.714844 154.195312 167.839844 154.335938 Z M 167.839844 154.335938 " fill-opacity="1" fill-rule="nonzero"/><path fill="#ffe97f" d="M 181.8125 160.527344 C 182.628906 160.523438 183.421875 160.664062 184.191406 160.945312 C 184.933594 161.210938 185.789062 160.644531 185.988281 159.929688 C 186.035156 159.742188 186.046875 159.554688 186.019531 159.363281 C 185.996094 159.171875 185.933594 158.992188 185.839844 158.824219 C 185.746094 158.65625 185.621094 158.515625 185.472656 158.394531 C 185.320312 158.273438 185.152344 158.1875 184.96875 158.132812 C 183.945312 157.773438 182.894531 157.601562 181.8125 157.609375 C 179.933594 157.609375 179.929688 160.535156 181.8125 160.527344 Z M 181.8125 160.527344 " fill-opacity="1" fill-rule="nonzero"/><path fill="#ffe97f" d="M 157.324219 159.304688 C 157.507812 157.414062 157.816406 155.542969 158.246094 153.695312 C 158.667969 151.867188 155.847656 151.085938 155.414062 152.917969 C 154.933594 155.023438 154.589844 157.152344 154.386719 159.304688 C 154.210938 161.171875 157.132812 161.160156 157.3125 159.304688 Z M 157.324219 159.304688 " fill-opacity="1" fill-rule="nonzero"/><path fill="#ffe97f" d="M 172.199219 142.675781 L 172.988281 144.792969 C 173.253906 145.503906 173.988281 146.066406 174.785156 145.8125 C 175.484375 145.585938 176.089844 144.78125 175.804688 144.015625 L 175.015625 141.902344 C 174.75 141.1875 174.015625 140.625 173.21875 140.882812 C 172.515625 141.109375 171.910156 141.910156 172.199219 142.675781 Z M 172.199219 142.675781 " fill-opacity="1" fill-rule="nonzero"/><path fill="#ffe97f" d="M 210.476562 133.445312 C 211.203125 133.113281 211.84375 132.660156 212.398438 132.085938 C 212.535156 131.949219 212.640625 131.792969 212.714844 131.613281 C 212.789062 131.433594 212.828125 131.25 212.828125 131.054688 C 212.828125 130.863281 212.792969 130.675781 212.71875 130.496094 C 212.644531 130.320312 212.539062 130.160156 212.398438 130.023438 C 212.261719 129.886719 212.105469 129.78125 211.925781 129.707031 C 211.746094 129.632812 211.558594 129.597656 211.367188 129.597656 C 211.171875 129.597656 210.984375 129.632812 210.808594 129.707031 C 210.628906 129.78125 210.46875 129.886719 210.332031 130.023438 C 210.226562 130.128906 210.125 130.234375 210.011719 130.332031 C 209.972656 130.363281 209.890625 130.460938 209.839844 130.472656 L 209.960938 130.378906 L 209.824219 130.472656 C 209.5625 130.648438 209.289062 130.800781 209.003906 130.929688 C 208.300781 131.242188 208.078125 132.308594 208.476562 132.921875 C 208.941406 133.644531 209.726562 133.769531 210.476562 133.445312 Z M 210.476562 133.445312 " fill-opacity="1" fill-rule="nonzero"/><g fill="#422002" fill-opacity="1"><g transform="translate(115.42437, 263.301333)"><g><path d="M 9.429688 -0.0859375 C 13.105469 -0.476562 17.039062 -1.6875 19.289062 -4.800781 C 21.667969 -8.128906 21.710938 -13.796875 18.640625 -16.738281 C 21.234375 -19.027344 23.613281 -23.136719 22.1875 -26.683594 C 20.5 -30.964844 15.09375 -31.007812 11.246094 -30.878906 C 8.347656 -30.835938 3.332031 -31.484375 1.558594 -28.628906 C 0.128906 -26.25 0.777344 -22.660156 0.863281 -20.023438 C 0.996094 -15.050781 0.390625 -9.386719 1.558594 -4.542969 C 2.464844 -0.519531 5.707031 0.304688 9.429688 -0.0859375 Z M 7.570312 -19.851562 C 7.351562 -20.023438 7.480469 -22.574219 7.570312 -22.75 C 8.304688 -24.433594 15.007812 -23.484375 13.753906 -21.363281 C 13.0625 -20.195312 11.375 -20.023438 10.164062 -19.894531 C 9.902344 -19.851562 7.828125 -19.632812 7.570312 -19.851562 Z M 7.308594 -6.53125 C 7.351562 -7.742188 6.832031 -10.550781 7.351562 -11.503906 C 7.828125 -12.367188 8.605469 -12.414062 9.902344 -12.457031 C 11.589844 -12.5 14.054688 -12.066406 13.492188 -9.773438 C 12.886719 -7.308594 9.386719 -6.746094 7.308594 -6.53125 Z M 7.308594 -6.53125 "/></g></g></g><g fill="#422002" fill-opacity="1"><g transform="translate(139.340382, 263.301333)"><g><path d="M 6.140625 -0.910156 C 9.644531 0.910156 15.914062 -0.128906 18.46875 -3.15625 C 21.710938 -6.964844 21.449219 -14.574219 21.320312 -19.289062 C 21.363281 -21.105469 21.40625 -23.613281 19.894531 -24.910156 C 17.992188 -26.511719 15.871094 -25.128906 15.222656 -23.050781 C 14.53125 -20.757812 15.441406 -17.601562 15.441406 -15.179688 C 15.441406 -12.800781 15.484375 -10.121094 14.402344 -7.914062 C 13.191406 -5.492188 11.070312 -6.140625 10.121094 -8.519531 C 9.125 -11.070312 9.515625 -14.316406 9.558594 -16.996094 C 9.644531 -20.109375 10.378906 -27.117188 5.578125 -27.160156 C -0.519531 -27.160156 0.605469 -18.078125 1.039062 -14.316406 C 1.601562 -9.773438 1.425781 -3.332031 6.140625 -0.910156 Z M 6.140625 -0.910156 "/></g></g></g><g fill="#422002" fill-opacity="1"><g transform="translate(162.045454, 263.301333)"><g><path d="M 23.3125 -1.46875 C 26.945312 -5.058594 22.964844 -11.71875 20.84375 -14.921875 C 25.734375 -19.460938 26.855469 -26.597656 20.757812 -30.578125 C 16.476562 -33.386719 3.242188 -35.765625 2.074219 -28.542969 C 1.425781 -24.695312 1.902344 -20.371094 1.644531 -16.390625 C 1.382812 -12.757812 -0.128906 -7.65625 1.167969 -4.109375 C 2.378906 -0.863281 6.054688 -0.0429688 8.304688 -2.769531 C 9.429688 -4.152344 9.816406 -5.96875 10.207031 -7.65625 C 10.335938 -8.21875 10.292969 -9.730469 10.683594 -10.164062 C 11.15625 -10.683594 13.839844 -10.898438 14.53125 -11.113281 C 15.136719 -7.914062 17.558594 4.152344 23.3125 -1.46875 Z M 9.992188 -16.519531 C 9.816406 -18.25 8.78125 -21.496094 9.296875 -23.09375 C 9.644531 -24.261719 10.464844 -24.21875 11.761719 -24.261719 C 14.964844 -24.433594 18.511719 -21.539062 14.746094 -18.898438 C 13.277344 -17.863281 11.632812 -17.167969 9.992188 -16.519531 Z M 9.992188 -16.519531 "/></g></g></g><g fill="#422002" fill-opacity="1"><g transform="translate(188.253589, 263.301333)"><g><path d="M 4.152344 -3.417969 C 11.503906 3.890625 25.515625 -1.125 22.359375 -12.367188 C 21.363281 -15.871094 14.402344 -18.421875 12.5 -14.574219 C 11.894531 -13.363281 11.9375 -11.113281 12.886719 -10.121094 C 13.710938 -9.210938 16 -9.601562 14.964844 -7.914062 C 14.140625 -6.617188 11.675781 -7.050781 10.597656 -7.570312 C 8.5625 -8.605469 7.699219 -10.941406 7.785156 -13.148438 C 8 -17.472656 11.332031 -20.757812 15.265625 -21.925781 C 18.292969 -22.835938 18.683594 -26.121094 16.261719 -28.5 C 12.714844 -31.917969 6.53125 -26.078125 4.453125 -23.355469 C 0.171875 -17.816406 -1.210938 -8.78125 4.152344 -3.417969 Z M 4.152344 -3.417969 "/></g></g></g><g fill="#422002" fill-opacity="1"><g transform="translate(212.385834, 263.301333)"><g><path d="M 7.179688 -0.0859375 C 9.859375 -0.214844 12.542969 -0.171875 15.179688 -0.304688 C 17.386719 -0.433594 19.027344 -0.734375 19.894531 -2.898438 C 20.414062 -4.324219 20.714844 -6.917969 19.289062 -8 C 17.6875 -9.167969 15.179688 -8.648438 13.363281 -8.734375 C 11.71875 -8.824219 7.480469 -10.164062 9.945312 -12.457031 C 11.417969 -13.839844 13.710938 -12.195312 15.441406 -12.671875 C 17.34375 -13.234375 17.773438 -15.394531 17.558594 -17.167969 C 17.429688 -18.683594 16.910156 -19.546875 15.441406 -20.109375 C 14.011719 -20.628906 11.027344 -19.679688 9.902344 -20.5 C 8.390625 -21.582031 9.773438 -23.613281 10.855469 -23.828125 C 12.5 -24.21875 14.273438 -23.09375 16 -23.785156 C 17.515625 -24.390625 18.292969 -25.820312 18.078125 -27.460938 C 17.773438 -29.753906 15.871094 -30.144531 13.882812 -30.445312 C 10.941406 -30.878906 3.15625 -32.351562 1.859375 -28.71875 C 1.296875 -27.160156 1.601562 -24.996094 1.515625 -23.398438 C 1.425781 -20.5 1.296875 -17.601562 1.167969 -14.703125 C 1.039062 -12.238281 0.953125 -9.773438 0.820312 -7.308594 C 0.734375 -5.363281 0.171875 -2.550781 1.730469 -1.039062 C 3.15625 0.347656 5.449219 -0.0429688 7.179688 -0.0859375 Z M 7.179688 -0.0859375 "/></g></g></g><g fill="#422002" fill-opacity="1"><g transform="translate(234.009706, 263.301333)"><g><path d="M 23.3125 -1.46875 C 26.945312 -5.058594 22.964844 -11.71875 20.84375 -14.921875 C 25.734375 -19.460938 26.855469 -26.597656 20.757812 -30.578125 C 16.476562 -33.386719 3.242188 -35.765625 2.074219 -28.542969 C 1.425781 -24.695312 1.902344 -20.371094 1.644531 -16.390625 C 1.382812 -12.757812 -0.128906 -7.65625 1.167969 -4.109375 C 2.378906 -0.863281 6.054688 -0.0429688 8.304688 -2.769531 C 9.429688 -4.152344 9.816406 -5.96875 10.207031 -7.65625 C 10.335938 -8.21875 10.292969 -9.730469 10.683594 -10.164062 C 11.15625 -10.683594 13.839844 -10.898438 14.53125 -11.113281 C 15.136719 -7.914062 17.558594 4.152344 23.3125 -1.46875 Z M 9.992188 -16.519531 C 9.816406 -18.25 8.78125 -21.496094 9.296875 -23.09375 C 9.644531 -24.261719 10.464844 -24.21875 11.761719 -24.261719 C 14.964844 -24.433594 18.511719 -21.539062 14.746094 -18.898438 C 13.277344 -17.863281 11.632812 -17.167969 9.992188 -16.519531 Z M 9.992188 -16.519531 "/></g></g></g><g fill="#ee4723" fill-opacity="1"><g transform="translate(128.298483, 279.96866)"><g><path d="M 11.105469 -5.941406 C 11.105469 -8.191406 9.304688 -10.605469 6.722656 -10.820312 C 3.410156 -10.960938 0.59375 -8.832031 0.59375 -5.445312 C 0.59375 -3.242188 2.226562 -0.542969 5.46875 -0.214844 C 9.117188 -0.117188 11.058594 -2.699219 11.105469 -5.941406 Z M 8.832031 -5.964844 C 8.785156 -4 7.695312 -2.25 5.636719 -2.460938 C 3.527344 -2.628906 2.652344 -4.59375 2.886719 -5.894531 C 3.457031 -7.882812 4.59375 -8.640625 6.582031 -8.570312 C 7.929688 -8.476562 8.855469 -7.148438 8.832031 -5.964844 Z M 8.832031 -5.964844 "/></g></g></g><g fill="#ee4723" fill-opacity="1"><g transform="translate(139.990109, 279.96866)"><g><path d="M 7.386719 -4.78125 C 8.097656 -5.492188 8.382812 -6.320312 8.382812 -7.148438 C 8.382812 -9.542969 5.964844 -10.796875 3.90625 -10.726562 C 3.054688 -10.703125 1.136719 -10.417969 1.066406 -9.28125 L 0.996094 -8.191406 C 0.898438 -7.148438 0.828125 -5.777344 0.734375 -3.550781 L 0.59375 -0.640625 C 0.617188 -0.0703125 1.066406 0.519531 1.632812 0.566406 C 2.273438 0.617188 2.769531 0.09375 2.839844 -0.496094 C 2.914062 -1.46875 2.984375 -2.535156 3.03125 -3.621094 C 3.316406 -3.597656 3.410156 -3.597656 3.621094 -3.621094 C 3.882812 -2.699219 4.332031 -1.964844 4.710938 -1.277344 C 5.042969 -0.6875 5.375 -0.140625 5.585938 0.566406 C 5.824219 1.160156 6.441406 1.445312 7.054688 1.253906 C 7.648438 1.066406 7.90625 0.402344 7.71875 -0.1875 C 7.199219 -1.5625 6.320312 -2.652344 5.894531 -3.953125 C 6.511719 -4.144531 7.054688 -4.425781 7.386719 -4.804688 Z M 3.292969 -8.40625 C 3.457031 -8.429688 3.71875 -8.453125 3.976562 -8.453125 C 4.949219 -8.5 6.109375 -8.121094 6.109375 -7.175781 C 6.109375 -6.367188 5.351562 -6.085938 4.710938 -5.988281 C 4.191406 -5.894531 3.621094 -5.871094 3.125 -5.871094 C 3.171875 -6.746094 3.242188 -7.527344 3.292969 -8.40625 Z M 3.292969 -8.40625 "/></g></g></g><g fill="#ee4723" fill-opacity="1"><g transform="translate(148.604992, 279.96866)"><g><path d="M 5.351562 -1.539062 C 5.160156 -2.105469 4.546875 -2.460938 3.953125 -2.273438 L 3.953125 -3.054688 C 3.953125 -5.304688 3.859375 -6.914062 3.976562 -8.546875 C 4.5 -8.640625 4.828125 -9.117188 4.828125 -9.636719 C 4.828125 -10.226562 4.308594 -10.726562 3.742188 -10.773438 C 3.078125 -10.773438 2.4375 -10.773438 1.777344 -10.773438 C 1.113281 -10.773438 0.640625 -10.300781 0.640625 -9.660156 C 0.640625 -9.042969 1.066406 -8.570312 1.703125 -8.546875 C 1.65625 -7.90625 1.65625 -7.269531 1.65625 -6.628906 C 1.65625 -4.828125 1.777344 -3.242188 1.679688 -1.679688 C 1.515625 -1.632812 1.585938 -1.679688 1.421875 -1.65625 C 0.78125 -1.539062 0.355469 -0.972656 0.402344 -0.378906 C 0.496094 0.214844 1.042969 0.6875 1.679688 0.59375 C 2.582031 0.472656 3.621094 0.1875 4.59375 -0.117188 C 5.207031 -0.308594 5.539062 -0.921875 5.351562 -1.539062 Z M 5.351562 -1.539062 "/></g></g></g><g fill="#ee4723" fill-opacity="1"><g transform="translate(154.427145, 279.96866)"><g><path d="M 8.285156 -5.917969 C 7.578125 -5.964844 7.03125 -5.847656 6.15625 -5.730469 C 4.617188 -5.421875 4.996094 -3.457031 6.273438 -3.457031 C 6.796875 -3.457031 7.175781 -3.574219 7.410156 -3.316406 C 7.625 -2.863281 6.960938 -2.390625 6.203125 -2.226562 C 4.074219 -1.800781 2.886719 -3.90625 2.886719 -5.613281 C 2.886719 -6.582031 3.101562 -9.234375 4.378906 -9.234375 C 5.539062 -9.234375 6.132812 -7.90625 7.222656 -7.671875 C 8.003906 -7.527344 8.335938 -8.003906 8.476562 -8.308594 L 8.453125 -8.285156 C 8.714844 -8.878906 8.855469 -9.46875 9.089844 -10.015625 C 9.304688 -10.582031 9.066406 -11.269531 8.523438 -11.507812 C 7.929688 -11.765625 7.292969 -11.53125 7.007812 -10.9375 C 6.960938 -10.820312 6.914062 -10.703125 6.867188 -10.535156 C 6.699219 -10.679688 6.535156 -10.820312 6.417969 -10.890625 C 5.800781 -11.269531 5.019531 -11.507812 4.332031 -11.507812 C 3.480469 -11.507812 2.628906 -11.175781 1.988281 -10.371094 C 0.519531 -8.476562 0.355469 -5.660156 0.898438 -3.480469 C 1.632812 -1.230469 3.621094 0.0703125 5.730469 0.0703125 C 6.273438 0.0703125 6.773438 0.0234375 7.175781 -0.140625 L 7.101562 0.472656 C 7.054688 1.089844 7.503906 1.65625 8.074219 1.753906 C 8.640625 1.800781 9.210938 1.375 9.328125 0.804688 C 9.519531 -0.402344 9.636719 -1.609375 9.800781 -3.8125 C 9.847656 -4.308594 9.777344 -5.800781 8.285156 -5.917969 Z M 8.285156 -5.917969 "/></g></g></g><g fill="#ee4723" fill-opacity="1"><g transform="translate(164.840746, 279.96866)"><g><path d="M 5.351562 -1.539062 C 5.160156 -2.105469 4.546875 -2.460938 3.953125 -2.273438 L 3.953125 -3.054688 C 3.953125 -5.304688 3.859375 -6.914062 3.976562 -8.546875 C 4.5 -8.640625 4.828125 -9.117188 4.828125 -9.636719 C 4.828125 -10.226562 4.308594 -10.726562 3.742188 -10.773438 C 3.078125 -10.773438 2.4375 -10.773438 1.777344 -10.773438 C 1.113281 -10.773438 0.640625 -10.300781 0.640625 -9.660156 C 0.640625 -9.042969 1.066406 -8.570312 1.703125 -8.546875 C 1.65625 -7.90625 1.65625 -7.269531 1.65625 -6.628906 C 1.65625 -4.828125 1.777344 -3.242188 1.679688 -1.679688 C 1.515625 -1.632812 1.585938 -1.679688 1.421875 -1.65625 C 0.78125 -1.539062 0.355469 -0.972656 0.402344 -0.378906 C 0.496094 0.214844 1.042969 0.6875 1.679688 0.59375 C 2.582031 0.472656 3.621094 0.1875 4.59375 -0.117188 C 5.207031 -0.308594 5.539062 -0.921875 5.351562 -1.539062 Z M 5.351562 -1.539062 "/></g></g></g><g fill="#ee4723" fill-opacity="1"><g transform="translate(170.662899, 279.96866)"><g><path d="M 6.675781 -4.425781 C 5.660156 -6.628906 5.089844 -7.695312 4.546875 -8.546875 C 4.191406 -9.164062 3.242188 -10.75 2.203125 -10.75 L 2.226562 -10.75 C 1.277344 -10.820312 0.875 -10.015625 0.757812 -9.210938 C 0.617188 -8.40625 0.59375 -6.84375 0.59375 -5.234375 C 0.59375 -3.695312 0.617188 -2.082031 0.640625 -0.851562 C 0.6875 -0.261719 1.183594 0.238281 1.800781 0.238281 C 2.414062 0.1875 2.886719 -0.378906 2.914062 -0.945312 C 2.863281 -2.4375 2.839844 -3.953125 2.839844 -6.960938 C 3.410156 -5.917969 3.953125 -4.78125 5.234375 -2.011719 C 5.5625 -1.375 6.015625 -1.019531 6.773438 -0.875 C 8.546875 -0.804688 8.972656 -2.035156 8.972656 -3.742188 C 8.972656 -5.988281 8.664062 -8.238281 8.523438 -10.867188 C 8.476562 -11.484375 7.929688 -11.980469 7.316406 -11.933594 C 6.699219 -11.886719 6.203125 -11.363281 6.25 -10.773438 C 6.296875 -9.496094 6.367188 -8.191406 6.511719 -6.960938 C 6.582031 -6.226562 6.652344 -5.46875 6.675781 -4.425781 Z M 6.675781 -4.425781 "/></g></g></g><g fill="#ee4723" fill-opacity="1"><g transform="translate(180.224474, 279.96866)"><g><path d="M 9.375 -4.804688 C 9.351562 -5.445312 8.878906 -5.917969 8.238281 -5.917969 C 7.980469 -5.917969 7.8125 -5.847656 7.671875 -5.847656 C 7.339844 -7.199219 7.199219 -8.523438 6.773438 -9.777344 C 6.652344 -10.300781 6.441406 -10.890625 5.683594 -10.960938 C 4.996094 -11.035156 3.882812 -10.726562 3.433594 -10.417969 C 3.078125 -10.179688 2.914062 -9.847656 2.886719 -9.730469 C 2.605469 -8.785156 2.226562 -7.480469 1.753906 -5.707031 C 1.183594 -5.613281 0.851562 -5.183594 0.804688 -4.664062 C 0.78125 -4.261719 0.972656 -3.929688 1.230469 -3.71875 C 1.019531 -2.914062 0.804688 -2.25 0.519531 -1.253906 C 0.355469 -0.640625 0.710938 0 1.300781 0.164062 C 1.917969 0.308594 2.558594 0 2.722656 -0.640625 L 2.699219 -0.640625 L 3.457031 -3.410156 C 4.664062 -3.410156 5.375 -3.410156 6.039062 -3.480469 C 6.273438 -2.652344 6.394531 -2.035156 6.628906 -1.136719 C 6.773438 -0.496094 7.386719 -0.164062 7.980469 -0.285156 C 8.570312 -0.449219 8.972656 -1.066406 8.855469 -1.65625 L 8.261719 -3.71875 L 8.285156 -3.71875 C 8.925781 -3.859375 9.375 -4.121094 9.375 -4.78125 Z M 4.757812 -8.238281 C 5.066406 -7.101562 5.234375 -6.320312 5.398438 -5.753906 C 4.925781 -5.730469 4.5 -5.660156 4.074219 -5.660156 C 4.332031 -6.558594 4.476562 -7.433594 4.757812 -8.238281 Z M 4.757812 -8.238281 "/></g></g></g><g fill="#ee4723" fill-opacity="1"><g transform="translate(190.022716, 279.96866)"><g><path d="M 2.863281 -3.386719 C 3.03125 -5.351562 3.03125 -7.316406 3.21875 -9.421875 C 3.21875 -9.992188 2.792969 -10.582031 2.226562 -10.65625 C 1.585938 -10.726562 1.042969 -10.226562 0.972656 -9.636719 C 0.78125 -7.601562 0.640625 -5.5625 0.640625 -3.527344 C 0.640625 -3.054688 0.59375 -2.582031 0.59375 -1.847656 C 0.59375 -1.136719 0.6875 -0.542969 1.183594 0.0234375 C 1.492188 0.378906 1.964844 0.542969 2.390625 0.542969 C 3.550781 0.542969 4.78125 0.355469 6.039062 0.046875 L 6.015625 0.046875 C 6.652344 -0.09375 6.984375 -0.710938 6.867188 -1.324219 C 6.722656 -1.917969 6.132812 -2.296875 5.515625 -2.179688 C 4.617188 -1.964844 3.742188 -1.824219 2.792969 -1.753906 Z M 2.863281 -3.386719 "/></g></g></g><g fill="#ee4723" fill-opacity="1"><g transform="translate(197.170227, 279.96866)"><g/></g></g><g fill="#ee4723" fill-opacity="1"><g transform="translate(203.560393, 279.96866)"><g><path d="M 6.773438 -11.035156 C 4.972656 -11.082031 2.9375 -10.75 1.113281 -10.441406 C 0.519531 -10.300781 0.09375 -9.683594 0.214844 -9.117188 C 0.308594 -8.5 0.875 -8.097656 1.492188 -8.191406 C 2.082031 -8.308594 2.746094 -8.40625 3.386719 -8.523438 C 3.101562 -5.988281 3.078125 -3.527344 3.007812 -1.089844 C 2.960938 -0.425781 3.410156 0.046875 4.023438 0.117188 C 4.640625 0.1875 5.183594 -0.332031 5.234375 -0.921875 C 5.28125 -1.632812 5.328125 -2.582031 5.351562 -3.410156 C 5.421875 -5.136719 5.515625 -7.125 5.660156 -8.761719 C 6.179688 -8.808594 6.25 -8.785156 6.722656 -8.785156 C 7.363281 -8.738281 7.882812 -9.28125 7.882812 -9.898438 C 7.90625 -10.511719 7.363281 -11.035156 6.773438 -11.035156 Z M 6.773438 -11.035156 "/></g></g></g><g fill="#ee4723" fill-opacity="1"><g transform="translate(211.70193, 279.96866)"><g><path d="M 9.375 -4.804688 C 9.351562 -5.445312 8.878906 -5.917969 8.238281 -5.917969 C 7.980469 -5.917969 7.8125 -5.847656 7.671875 -5.847656 C 7.339844 -7.199219 7.199219 -8.523438 6.773438 -9.777344 C 6.652344 -10.300781 6.441406 -10.890625 5.683594 -10.960938 C 4.996094 -11.035156 3.882812 -10.726562 3.433594 -10.417969 C 3.078125 -10.179688 2.914062 -9.847656 2.886719 -9.730469 C 2.605469 -8.785156 2.226562 -7.480469 1.753906 -5.707031 C 1.183594 -5.613281 0.851562 -5.183594 0.804688 -4.664062 C 0.78125 -4.261719 0.972656 -3.929688 1.230469 -3.71875 C 1.019531 -2.914062 0.804688 -2.25 0.519531 -1.253906 C 0.355469 -0.640625 0.710938 0 1.300781 0.164062 C 1.917969 0.308594 2.558594 0 2.722656 -0.640625 L 2.699219 -0.640625 L 3.457031 -3.410156 C 4.664062 -3.410156 5.375 -3.410156 6.039062 -3.480469 C 6.273438 -2.652344 6.394531 -2.035156 6.628906 -1.136719 C 6.773438 -0.496094 7.386719 -0.164062 7.980469 -0.285156 C 8.570312 -0.449219 8.972656 -1.066406 8.855469 -1.65625 L 8.261719 -3.71875 L 8.285156 -3.71875 C 8.925781 -3.859375 9.375 -4.121094 9.375 -4.78125 Z M 4.757812 -8.238281 C 5.066406 -7.101562 5.234375 -6.320312 5.398438 -5.753906 C 4.925781 -5.730469 4.5 -5.660156 4.074219 -5.660156 C 4.332031 -6.558594 4.476562 -7.433594 4.757812 -8.238281 Z M 4.757812 -8.238281 "/></g></g></g><g fill="#ee4723" fill-opacity="1"><g transform="translate(221.500171, 279.96866)"><g><path d="M 6.890625 -9.945312 C 6.015625 -10.75 4.902344 -11.554688 3.695312 -11.316406 L 3.71875 -11.316406 C 2.105469 -11.105469 0.996094 -9.992188 0.710938 -8.664062 C 0.308594 -6.652344 1.847656 -5.257812 3.550781 -4.855469 C 3.953125 -4.757812 6.34375 -4.664062 6.441406 -4.378906 C 6.628906 -3.339844 5.445312 -2.179688 3.953125 -2.34375 C 3.765625 -2.390625 3.550781 -2.484375 3.316406 -2.628906 C 2.960938 -2.9375 2.605469 -3.339844 2.34375 -3.644531 C 1.964844 -4.167969 1.253906 -4.261719 0.757812 -3.882812 C 0.261719 -3.550781 0.1875 -2.816406 0.519531 -2.320312 C 1.183594 -1.46875 2.390625 -0.285156 3.667969 -0.09375 C 6.628906 0.285156 8.738281 -1.941406 8.738281 -4.144531 C 8.738281 -4.402344 8.714844 -4.664062 8.664062 -4.878906 C 8.238281 -6.652344 6.558594 -6.820312 5.113281 -6.9375 C 4.378906 -7.03125 2.699219 -7.125 2.960938 -8.214844 C 3.054688 -8.664062 3.457031 -9.019531 4.023438 -9.089844 C 4.425781 -9.164062 5.019531 -8.570312 5.328125 -8.285156 C 5.777344 -7.859375 6.535156 -7.882812 6.960938 -8.359375 C 7.386719 -8.808594 7.339844 -9.542969 6.890625 -9.945312 Z M 6.890625 -9.945312 "/></g></g></g><g fill="#ee4723" fill-opacity="1"><g transform="translate(230.47006, 279.96866)"><g><path d="M 6.773438 -11.035156 C 4.972656 -11.082031 2.9375 -10.75 1.113281 -10.441406 C 0.519531 -10.300781 0.09375 -9.683594 0.214844 -9.117188 C 0.308594 -8.5 0.875 -8.097656 1.492188 -8.191406 C 2.082031 -8.308594 2.746094 -8.40625 3.386719 -8.523438 C 3.101562 -5.988281 3.078125 -3.527344 3.007812 -1.089844 C 2.960938 -0.425781 3.410156 0.046875 4.023438 0.117188 C 4.640625 0.1875 5.183594 -0.332031 5.234375 -0.921875 C 5.28125 -1.632812 5.328125 -2.582031 5.351562 -3.410156 C 5.421875 -5.136719 5.515625 -7.125 5.660156 -8.761719 C 6.179688 -8.808594 6.25 -8.785156 6.722656 -8.785156 C 7.363281 -8.738281 7.882812 -9.28125 7.882812 -9.898438 C 7.90625 -10.511719 7.363281 -11.035156 6.773438 -11.035156 Z M 6.773438 -11.035156 "/></g></g></g><g fill="#ee4723" fill-opacity="1"><g transform="translate(238.611596, 279.96866)"><g><path d="M 7.648438 -0.59375 C 7.578125 -1.183594 7.078125 -1.632812 6.417969 -1.609375 C 5.089844 -1.515625 4.285156 -1.46875 3.242188 -1.46875 C 2.792969 -1.46875 2.839844 -2.460938 2.984375 -4.332031 C 4 -4.476562 4.734375 -4.59375 5.777344 -4.757812 C 6.394531 -4.902344 6.773438 -5.46875 6.675781 -6.085938 C 6.535156 -6.699219 5.917969 -7.101562 5.328125 -6.984375 C 4.710938 -6.890625 4.097656 -6.796875 3.457031 -6.699219 L 3.007812 -6.628906 C 3.03125 -7.363281 3.03125 -7.742188 3.078125 -8.359375 C 4.046875 -8.546875 5.207031 -8.738281 6.203125 -8.832031 C 6.820312 -8.878906 7.316406 -9.421875 7.246094 -10.0625 C 7.175781 -10.65625 6.628906 -11.128906 6.039062 -11.082031 C 4.617188 -10.960938 2.863281 -10.679688 1.753906 -10.394531 C 1.253906 -10.25 0.945312 -9.847656 0.875 -9.28125 C 0.6875 -7.175781 0.78125 -5.089844 0.640625 -3.054688 C 0.519531 -1.445312 0.851562 -0.472656 1.398438 0.09375 C 1.824219 0.519531 2.390625 0.78125 3.195312 0.804688 C 4.285156 0.828125 5.257812 0.757812 6.605469 0.640625 C 7.199219 0.566406 7.695312 0.046875 7.648438 -0.566406 Z M 7.648438 -0.59375 "/></g></g></g></svg>