<svg xmlns="http://www.w3.org/2000/svg" xmlns:xlink="http://www.w3.org/1999/xlink" width="500" zoomAndPan="magnify" viewBox="0 0 375 374.999991" height="500" preserveAspectRatio="xMidYMid meet" version="1.0"><defs><g/><clipPath id="0854515d75"><path d="M 150 93.875 L 224 93.875 L 224 218.375 L 150 218.375 Z M 150 93.875 " clip-rule="nonzero"/></clipPath></defs><g clip-path="url(#0854515d75)"><path fill="#210006" d="M 221.734375 106.328125 C 222.039062 105.257812 221.953125 104.214844 221.488281 103.203125 C 219.058594 97.789062 211.304688 94.832031 209.777344 94.296875 C 209.144531 94.0625 208.492188 93.945312 207.816406 93.9375 C 206.769531 93.921875 205.84375 94.25 205.03125 94.910156 C 204.5625 94.820312 204.105469 94.746094 203.667969 94.6875 C 203.101562 94.617188 202.53125 94.582031 201.960938 94.578125 C 200.890625 94.585938 199.832031 94.714844 198.789062 94.957031 C 197.746094 95.199219 196.742188 95.554688 195.78125 96.019531 C 194.816406 96.488281 193.914062 97.054688 193.078125 97.722656 C 192.242188 98.386719 191.488281 99.136719 190.820312 99.972656 L 186.867188 105.234375 C 186.550781 105.546875 186.324219 105.917969 186.1875 106.339844 C 186.054688 106.765625 186.027344 107.199219 186.109375 107.636719 C 186.445312 109.492188 187.800781 111.738281 189.589844 113.421875 L 189.589844 115.660156 L 189.542969 115.605469 L 186.34375 111.921875 C 186.179688 111.734375 185.980469 111.613281 185.738281 111.550781 C 185.5 111.492188 185.261719 111.507812 185.03125 111.59375 L 180.605469 113.292969 L 180.605469 106.59375 C 180.605469 106.273438 180.492188 106 180.265625 105.773438 L 177.78125 103.25 C 177.550781 103.019531 177.269531 102.902344 176.941406 102.898438 L 169.054688 102.898438 C 168.890625 102.898438 168.734375 102.933594 168.582031 102.996094 C 168.433594 103.0625 168.300781 103.15625 168.191406 103.277344 C 168.078125 103.398438 167.996094 103.535156 167.941406 103.691406 C 167.886719 103.847656 167.867188 104.007812 167.878906 104.167969 L 168.820312 115.980469 L 167.433594 108.566406 C 167.402344 108.417969 167.347656 108.277344 167.261719 108.144531 L 165.0625 104.789062 C 164.828125 104.433594 164.5 104.253906 164.074219 104.257812 C 163.976562 104.257812 163.878906 104.269531 163.785156 104.292969 L 156.667969 106.097656 C 156.523438 106.136719 156.386719 106.199219 156.265625 106.289062 C 156.144531 106.375 156.042969 106.484375 155.960938 106.613281 C 155.882812 106.738281 155.828125 106.878906 155.800781 107.027344 C 155.773438 107.175781 155.773438 107.324219 155.804688 107.46875 L 157.019531 113.546875 L 150.902344 115.546875 C 150.617188 115.640625 150.398438 115.816406 150.246094 116.074219 C 150.097656 116.335938 150.050781 116.613281 150.113281 116.90625 L 156.277344 146.472656 L 152.769531 146.472656 C 152.601562 146.472656 152.4375 146.507812 152.285156 146.578125 C 152.128906 146.648438 151.996094 146.75 151.882812 146.875 C 151.773438 147.003906 151.691406 147.148438 151.640625 147.3125 C 151.59375 147.472656 151.578125 147.636719 151.601562 147.804688 L 160.910156 217.335938 C 160.945312 217.628906 161.074219 217.875 161.296875 218.070312 C 161.519531 218.265625 161.78125 218.363281 162.074219 218.367188 L 210.304688 218.367188 C 210.601562 218.363281 210.859375 218.265625 211.082031 218.070312 C 211.304688 217.875 211.4375 217.628906 211.472656 217.335938 L 220.789062 147.804688 C 220.8125 147.636719 220.796875 147.472656 220.75 147.3125 C 220.699219 147.148438 220.617188 147.003906 220.507812 146.875 C 220.394531 146.75 220.261719 146.648438 220.105469 146.578125 C 219.953125 146.507812 219.789062 146.472656 219.621094 146.472656 L 216.316406 146.472656 L 218.535156 136.320312 C 219.878906 135.394531 220.835938 133.351562 221.011719 131.003906 C 221.113281 129.597656 221.601562 128.136719 222.074219 126.722656 C 222.957031 124.082031 223.957031 121.09375 222.027344 118.570312 C 223.035156 115.933594 224.160156 111.179688 221.734375 106.328125 Z M 221.734375 106.328125 " fill-opacity="1" fill-rule="nonzero"/></g><path fill="#dd8d0e" d="M 165.4375 147.148438 C 165.710938 147.148438 165.984375 147.167969 166.253906 147.210938 L 160.375 116.921875 L 158.253906 114.914062 L 151.855469 117 L 158.148438 147.148438 Z M 165.4375 147.148438 " fill-opacity="1" fill-rule="nonzero"/><path fill="#ffb830" d="M 161.304688 116.410156 L 167.339844 147.515625 C 168.503906 147.96875 169.382812 148.738281 169.980469 149.832031 C 171.125 151.902344 172.609375 153.691406 174.433594 155.195312 L 165.796875 108.980469 L 163.851562 106.011719 L 157.550781 107.609375 L 158.847656 114.085938 Z M 161.304688 116.410156 " fill-opacity="1" fill-rule="nonzero"/><path fill="#ff2626" d="M 206.945312 148.15625 C 206.1875 148.15625 205.476562 148.351562 204.820312 148.738281 C 204.167969 149.125 203.65625 149.652344 203.289062 150.320312 C 202.453125 151.839844 201.433594 153.226562 200.226562 154.476562 C 200.226562 154.535156 200.226562 154.59375 200.226562 154.652344 C 200.226562 154.710938 200.226562 154.738281 200.226562 154.78125 C 200.226562 154.828125 200.226562 154.914062 200.226562 154.988281 L 200.226562 155.121094 L 200.207031 155.328125 L 200.1875 155.480469 C 200.1875 155.542969 200.171875 155.605469 200.160156 155.667969 C 200.152344 155.730469 200.140625 155.785156 200.132812 155.839844 L 200.101562 156.015625 C 200.089844 156.082031 200.078125 156.148438 200.0625 156.222656 L 200.03125 156.371094 C 200.011719 156.453125 199.996094 156.535156 199.976562 156.617188 C 199.976562 156.648438 199.964844 156.679688 199.953125 156.714844 C 199.929688 156.828125 199.902344 156.9375 199.878906 157.046875 C 199.796875 157.398438 199.71875 157.730469 199.695312 157.921875 C 199.589844 158.859375 199.511719 159.816406 199.441406 160.757812 C 199.421875 161.070312 199.398438 161.375 199.378906 161.695312 C 199.339844 162.214844 199.304688 162.726562 199.261719 163.253906 C 199.195312 164.179688 199.082031 165.074219 198.519531 165.796875 C 198.460938 165.871094 198.398438 165.9375 198.332031 166.003906 C 198.3125 166.027344 198.289062 166.042969 198.265625 166.066406 C 198.246094 166.085938 198.175781 166.148438 198.125 166.1875 L 198.042969 166.253906 C 197.996094 166.289062 197.949219 166.320312 197.898438 166.351562 L 197.808594 166.40625 L 197.652344 166.488281 C 197.621094 166.503906 197.59375 166.519531 197.5625 166.53125 C 197.492188 166.5625 197.421875 166.589844 197.355469 166.617188 L 197.308594 166.632812 C 197.222656 166.660156 197.136719 166.683594 197.046875 166.703125 L 196.945312 166.722656 L 196.773438 166.75 L 196.660156 166.75 C 196.605469 166.75 196.550781 166.75 196.496094 166.75 L 196.394531 166.75 C 196.277344 166.75 196.164062 166.742188 196.050781 166.726562 L 195.992188 166.714844 C 195.886719 166.699219 195.785156 166.675781 195.6875 166.644531 L 195.625 166.628906 C 195.515625 166.59375 195.40625 166.550781 195.300781 166.5 L 195.234375 166.464844 C 195.125 166.410156 195.023438 166.347656 194.925781 166.277344 C 194.214844 165.761719 193.757812 164.871094 193.597656 163.707031 C 193.542969 163.292969 193.523438 162.882812 193.503906 162.492188 C 193.492188 162.046875 193.453125 161.605469 193.390625 161.164062 C 193.289062 160.59375 192.976562 159.890625 192.449219 159.804688 C 192.339844 159.796875 192.230469 159.796875 192.121094 159.804688 L 191.753906 159.804688 L 191.664062 159.796875 L 191.546875 159.773438 L 191.457031 159.75 L 191.390625 159.738281 L 191.222656 159.78125 L 190.90625 159.875 L 190.90625 159.832031 C 188.421875 160.449219 185.910156 160.574219 183.371094 160.207031 C 180.835938 159.835938 178.464844 159 176.257812 157.695312 C 175.773438 157.410156 175.3125 157.109375 174.886719 156.804688 C 172.460938 155.082031 170.53125 152.917969 169.09375 150.320312 C 168.570312 149.355469 167.785156 148.703125 166.742188 148.367188 C 166.316406 148.226562 165.882812 148.160156 165.4375 148.160156 L 153.339844 148.160156 L 162.519531 216.667969 L 209.863281 216.667969 L 219.042969 148.15625 Z M 206.945312 148.15625 " fill-opacity="1" fill-rule="nonzero"/><path fill="#bd1616" d="M 210.019531 124.207031 L 210.03125 123.734375 C 210.046875 123.222656 210.132812 122.71875 210.285156 122.226562 C 210.441406 121.738281 210.65625 121.273438 210.9375 120.84375 C 211.214844 120.410156 211.550781 120.023438 211.933594 119.683594 C 212.320312 119.339844 212.746094 119.058594 213.207031 118.832031 L 213.511719 118.699219 C 213.789062 118.574219 214.0625 118.460938 214.335938 118.359375 L 214.386719 118.339844 C 214.367188 118.320312 214.355469 118.296875 214.339844 118.273438 C 214.148438 118.023438 213.957031 117.773438 213.757812 117.527344 C 211.386719 114.5 208.542969 112.007812 205.222656 110.054688 C 204.058594 109.371094 202.851562 108.777344 201.601562 108.273438 C 201.324219 108.160156 201.039062 108.050781 200.757812 107.945312 L 200.476562 107.84375 C 200.285156 107.773438 200.09375 107.707031 199.902344 107.636719 C 199.789062 107.597656 199.675781 107.5625 199.5625 107.527344 C 199.386719 107.46875 199.210938 107.414062 199.035156 107.363281 L 198.667969 107.253906 C 198.5 107.203125 198.328125 107.15625 198.15625 107.109375 L 197.777344 107.011719 L 197.269531 106.886719 L 196.882812 106.796875 L 196.367188 106.6875 L 195.988281 106.613281 L 195.453125 106.5 L 195.082031 106.433594 L 194.960938 106.417969 L 195.914062 110.789062 L 196.238281 112.292969 C 196.53125 113.617188 196.832031 114.992188 196.804688 116.410156 C 196.78125 117.886719 196.394531 119.316406 196.039062 120.703125 C 195.957031 121.011719 195.878906 121.320312 195.800781 121.628906 C 194.902344 125.234375 194.5625 128.894531 194.78125 132.605469 C 194.828125 133.503906 194.925781 134.535156 195.398438 135.359375 C 195.777344 136.015625 196.566406 136.660156 197.414062 136.523438 C 198.03125 136.417969 198.546875 135.902344 199.082031 135.382812 C 199.523438 134.898438 200.027344 134.492188 200.597656 134.171875 C 200.730469 134.101562 200.867188 134.042969 201.007812 133.996094 C 201.3125 133.894531 201.621094 133.816406 201.933594 133.757812 L 202.636719 133.613281 L 202.636719 133.625 C 202.820312 133.589844 203 133.542969 203.179688 133.484375 C 205.035156 132.867188 206.097656 130.917969 207.230469 128.851562 C 207.992188 127.464844 208.777344 126.03125 209.847656 124.976562 Z M 210.019531 124.207031 " fill-opacity="1" fill-rule="nonzero"/><path fill="#ffb830" d="M 175.640625 156.105469 C 176 156.355469 176.375 156.601562 176.773438 156.835938 C 178.390625 157.792969 180.117188 158.488281 181.945312 158.914062 L 176.386719 115.617188 L 178.921875 114.652344 L 178.921875 106.800781 L 176.730469 104.582031 L 169.601562 104.582031 L 172.265625 138.058594 Z M 175.640625 156.105469 " fill-opacity="1" fill-rule="nonzero"/><path fill="#d1d3d4" d="M 189.632812 106.085938 C 189.324219 106.085938 189.015625 106.105469 188.714844 106.128906 C 188.660156 106.132812 188.605469 106.140625 188.554688 106.152344 L 188.5 106.167969 C 188.464844 106.175781 188.429688 106.1875 188.398438 106.199219 L 188.335938 106.230469 C 188.304688 106.242188 188.277344 106.257812 188.253906 106.273438 C 188.230469 106.285156 188.210938 106.300781 188.191406 106.316406 L 188.117188 106.367188 L 188.09375 106.390625 C 187.804688 106.644531 187.695312 106.957031 187.765625 107.335938 C 187.972656 108.457031 188.824219 110.195312 190.265625 111.722656 L 190.265625 106.085938 Z M 189.632812 106.085938 " fill-opacity="1" fill-rule="nonzero"/><path fill="#dd8d0e" d="M 182.992188 159.125 C 185.539062 159.570312 188.0625 159.488281 190.574219 158.875 C 190.4375 158.5 190.4375 158.121094 190.574219 157.742188 C 190.617188 157.636719 190.664062 157.53125 190.722656 157.433594 L 190.253906 149.996094 L 188.152344 116.585938 L 185.304688 113.292969 L 177.492188 116.28125 Z M 182.992188 159.125 " fill-opacity="1" fill-rule="nonzero"/><path fill="#ffb830" d="M 181.28125 119.765625 L 178.082031 116.058594 L 177.492188 116.28125 L 182.992188 159.128906 C 183.984375 159.300781 184.984375 159.390625 185.988281 159.398438 Z M 181.28125 119.765625 " fill-opacity="1" fill-rule="nonzero"/><path fill="#ffb830" d="M 203.503906 134.457031 C 203.171875 134.558594 202.832031 134.640625 202.492188 134.699219 L 199.890625 153.351562 C 200.867188 152.277344 201.703125 151.105469 202.402344 149.832031 C 202.859375 149.003906 203.492188 148.351562 204.308594 147.871094 C 204.546875 147.730469 204.792969 147.613281 205.050781 147.515625 L 209.382812 127.191406 C 208.933594 127.875 208.523438 128.617188 208.121094 129.351562 C 206.945312 131.496094 205.726562 133.71875 203.503906 134.457031 Z M 203.503906 134.457031 " fill-opacity="1" fill-rule="nonzero"/><path fill="#ffffff" d="M 214.945312 101.230469 C 211.027344 98.46875 207.160156 96.820312 203.453125 96.355469 C 199.21875 95.820312 194.886719 97.601562 192.152344 101.011719 L 189.082031 105.09375 C 189.222656 105.09375 189.367188 105.09375 189.511719 105.082031 L 189.800781 105.082031 C 189.957031 105.082031 190.109375 105.082031 190.269531 105.082031 L 191.277344 105.082031 C 192.066406 105.101562 192.867188 105.15625 193.667969 105.242188 L 193.667969 105.226562 L 194.378906 105.324219 L 194.730469 105.367188 C 196.574219 105.628906 198.378906 106.050781 200.144531 106.636719 C 200.761719 106.84375 201.382812 107.074219 201.988281 107.316406 C 203.28125 107.847656 204.53125 108.464844 205.734375 109.171875 C 209.160156 111.191406 212.101562 113.761719 214.550781 116.890625 C 214.804688 117.203125 215.054688 117.53125 215.296875 117.863281 L 215.390625 117.984375 L 215.441406 117.972656 C 215.664062 117.90625 215.886719 117.84375 216.097656 117.792969 L 216.230469 117.761719 C 216.4375 117.714844 216.628906 117.671875 216.816406 117.640625 L 216.882812 117.625 C 217.089844 117.589844 217.285156 117.566406 217.480469 117.546875 L 217.609375 117.535156 C 217.800781 117.523438 217.988281 117.511719 218.167969 117.511719 L 218.21875 117.511719 C 218.402344 117.511719 218.582031 117.523438 218.753906 117.539062 L 218.839844 117.539062 C 219.007812 117.558594 219.179688 117.589844 219.34375 117.625 L 219.445312 117.652344 C 219.605469 117.6875 219.761719 117.738281 219.914062 117.796875 L 219.96875 117.816406 C 220.109375 117.878906 220.246094 117.945312 220.378906 118.023438 C 220.394531 118.03125 220.40625 118.035156 220.417969 118.042969 C 221.773438 114.570312 223.300781 107.117188 214.945312 101.230469 Z M 214.945312 101.230469 " fill-opacity="1" fill-rule="nonzero"/><path fill="#bd1616" d="M 220.320312 119.203125 L 220.265625 119.15625 C 220.21875 119.121094 220.175781 119.085938 220.125 119.050781 C 220.078125 119.019531 220.046875 118.996094 220.003906 118.972656 C 219.964844 118.945312 219.917969 118.917969 219.875 118.894531 C 219.832031 118.871094 219.789062 118.851562 219.746094 118.828125 C 219.699219 118.808594 219.65625 118.789062 219.605469 118.765625 L 219.472656 118.714844 L 219.320312 118.671875 C 219.273438 118.65625 219.226562 118.640625 219.179688 118.632812 L 219.027344 118.597656 C 218.976562 118.589844 218.929688 118.578125 218.875 118.570312 L 218.722656 118.550781 L 218.566406 118.535156 L 218.40625 118.535156 C 218.351562 118.535156 218.296875 118.535156 218.246094 118.535156 L 217.757812 118.535156 L 217.589844 118.550781 L 217.429688 118.566406 L 217.257812 118.585938 L 217.101562 118.609375 L 216.9375 118.648438 L 216.78125 118.679688 L 216.609375 118.714844 L 216.453125 118.75 L 216.285156 118.789062 L 216.132812 118.828125 L 215.96875 118.871094 L 215.800781 118.921875 L 215.660156 118.964844 L 215.367188 119.058594 C 214.996094 119.179688 214.613281 119.324219 214.226562 119.484375 L 214.097656 119.523438 L 213.871094 119.640625 C 213.464844 119.816406 213.089844 120.042969 212.75 120.324219 C 212.40625 120.601562 212.109375 120.925781 211.859375 121.289062 C 211.613281 121.65625 211.417969 122.046875 211.28125 122.46875 C 211.144531 122.886719 211.066406 123.316406 211.054688 123.757812 L 211.054688 124.042969 L 211.085938 124.070312 C 211.21875 124.183594 211.355469 124.304688 211.5 124.425781 L 211.597656 124.507812 C 211.738281 124.625 211.882812 124.746094 212.03125 124.867188 C 212.710938 125.433594 213.476562 126.074219 214.320312 126.851562 C 215.960938 128.359375 215.8125 129.398438 215.640625 130.601562 C 215.433594 131.671875 215.484375 132.726562 215.792969 133.769531 C 216 134.476562 216.300781 134.953125 216.648438 135.121094 C 216.871094 135.222656 217.089844 135.21875 217.308594 135.105469 C 218.195312 134.730469 219.164062 133.164062 219.335938 130.890625 C 219.457031 129.277344 219.976562 127.714844 220.484375 126.207031 C 221.355469 123.597656 222.109375 121.347656 220.625 119.511719 C 220.535156 119.398438 220.433594 119.292969 220.320312 119.203125 Z M 220.320312 119.203125 " fill-opacity="1" fill-rule="nonzero"/><path fill="#ffb830" d="M 216.523438 136.140625 L 216.484375 136.125 C 216.382812 136.101562 216.289062 136.066406 216.195312 136.023438 C 215.761719 135.816406 215.164062 135.304688 214.800781 134.039062 C 214.453125 132.855469 214.394531 131.660156 214.617188 130.449219 C 214.773438 129.339844 214.863281 128.730469 213.613281 127.578125 C 212.789062 126.820312 212.03125 126.191406 211.363281 125.632812 C 211.234375 125.527344 211.113281 125.425781 210.988281 125.320312 C 210.914062 125.382812 210.839844 125.449219 210.765625 125.511719 L 206.148438 147.210938 C 206.226562 147.195312 206.304688 147.191406 206.382812 147.179688 L 206.539062 147.164062 C 206.675781 147.152344 206.8125 147.148438 206.949219 147.148438 L 214.445312 147.148438 L 216.839844 136.183594 L 216.8125 136.183594 C 216.714844 136.179688 216.621094 136.164062 216.523438 136.140625 Z M 216.523438 136.140625 " fill-opacity="1" fill-rule="nonzero"/><path fill="#ffb830" d="M 193.894531 106.277344 L 193.726562 106.257812 C 193.382812 106.21875 193.039062 106.1875 192.695312 106.160156 L 192.546875 106.144531 C 192.164062 106.121094 191.78125 106.101562 191.402344 106.089844 L 191.277344 106.089844 L 191.277344 149.964844 L 191.691406 156.441406 C 191.703125 156.433594 191.714844 156.421875 191.730469 156.414062 L 191.953125 156.242188 L 191.964844 156.234375 L 192.097656 156.136719 L 192.109375 156.136719 L 192.257812 156.027344 L 192.28125 156.011719 L 192.441406 155.898438 L 192.460938 155.882812 L 192.648438 155.75 C 192.925781 155.554688 193.246094 155.335938 193.59375 155.113281 C 193.675781 155.058594 193.761719 155.003906 193.851562 154.953125 L 193.878906 154.929688 L 194.113281 154.789062 L 194.164062 154.757812 L 194.386719 154.625 L 194.445312 154.589844 L 194.671875 154.460938 L 194.730469 154.425781 L 194.96875 154.292969 L 195.015625 154.265625 C 195.113281 154.214844 195.207031 154.164062 195.300781 154.113281 C 195.507812 154.007812 195.714844 153.90625 195.90625 153.816406 L 195.925781 153.816406 C 196.015625 153.773438 196.105469 153.730469 196.195312 153.691406 L 196.257812 153.664062 L 196.484375 153.570312 L 196.566406 153.539062 L 196.773438 153.457031 L 196.863281 153.425781 L 197.066406 153.359375 L 197.15625 153.328125 L 197.363281 153.273438 L 197.449219 153.246094 C 197.515625 153.226562 197.585938 153.210938 197.652344 153.199219 L 197.71875 153.179688 C 197.804688 153.164062 197.890625 153.144531 197.96875 153.132812 L 197.988281 153.132812 C 198.078125 153.121094 198.164062 153.109375 198.253906 153.101562 L 198.28125 153.101562 L 198.5 153.089844 L 198.574219 153.089844 C 198.628906 153.089844 198.683594 153.089844 198.734375 153.089844 L 198.820312 153.089844 L 198.914062 153.097656 L 201.449219 134.945312 L 201.359375 134.972656 C 201.253906 135.007812 201.152344 135.046875 201.054688 135.097656 C 200.585938 135.375 200.167969 135.71875 199.804688 136.125 C 199.183594 136.746094 198.535156 137.390625 197.585938 137.546875 C 197.46875 137.566406 197.355469 137.574219 197.238281 137.578125 L 197.1875 137.578125 C 197.078125 137.574219 196.96875 137.566406 196.859375 137.550781 L 196.789062 137.539062 C 196.679688 137.523438 196.574219 137.5 196.46875 137.46875 L 196.394531 137.441406 C 196.289062 137.410156 196.183594 137.371094 196.078125 137.324219 L 196.027344 137.296875 C 195.929688 137.25 195.832031 137.199219 195.738281 137.140625 L 195.691406 137.113281 C 195.59375 137.050781 195.496094 136.980469 195.402344 136.90625 L 195.34375 136.859375 C 195.253906 136.785156 195.164062 136.703125 195.078125 136.617188 L 195.027344 136.5625 C 194.941406 136.472656 194.863281 136.375 194.785156 136.277344 C 194.773438 136.261719 194.761719 136.246094 194.753906 136.230469 C 194.671875 136.121094 194.597656 136.007812 194.53125 135.890625 C 193.949219 134.878906 193.839844 133.710938 193.78125 132.695312 C 193.558594 128.882812 193.90625 125.125 194.828125 121.417969 C 194.90625 121.105469 194.992188 120.800781 195.074219 120.480469 C 195.421875 119.152344 195.78125 117.78125 195.804688 116.425781 C 195.828125 115.117188 195.539062 113.800781 195.261719 112.53125 L 194.933594 111.027344 C 194.585938 109.4375 194.238281 107.855469 193.894531 106.277344 Z M 193.894531 106.277344 " fill-opacity="1" fill-rule="nonzero"/><path fill="#bd1616" d="M 199.039062 154.191406 C 198.058594 153.507812 194.460938 155.589844 192.335938 157.214844 C 192.078125 157.394531 191.855469 157.609375 191.660156 157.851562 C 191.605469 157.925781 191.5625 158.007812 191.53125 158.09375 C 191.433594 158.320312 191.46875 158.527344 191.628906 158.710938 L 191.648438 158.730469 L 191.683594 158.75 C 191.820312 158.785156 191.957031 158.796875 192.097656 158.785156 L 192.359375 158.785156 C 192.4375 158.785156 192.519531 158.785156 192.601562 158.804688 C 193.660156 158.976562 194.214844 160.039062 194.378906 160.988281 C 194.453125 161.464844 194.496094 161.945312 194.511719 162.429688 C 194.527344 162.820312 194.546875 163.191406 194.597656 163.558594 C 194.679688 164.175781 194.90625 165 195.519531 165.449219 C 195.6875 165.566406 195.875 165.644531 196.074219 165.691406 C 196.273438 165.738281 196.476562 165.75 196.679688 165.71875 C 196.882812 165.691406 197.074219 165.628906 197.253906 165.527344 C 197.433594 165.425781 197.585938 165.296875 197.71875 165.140625 C 198.109375 164.636719 198.191406 163.9375 198.253906 163.140625 C 198.292969 162.621094 198.332031 162.109375 198.367188 161.585938 C 198.453125 160.335938 198.546875 159.042969 198.691406 157.773438 C 198.703125 157.648438 198.730469 157.5 198.765625 157.332031 C 198.800781 157.164062 198.84375 156.976562 198.890625 156.777344 C 199.074219 156.003906 199.320312 154.941406 199.191406 154.417969 C 199.183594 154.375 199.171875 154.335938 199.148438 154.296875 C 199.117188 154.253906 199.082031 154.21875 199.039062 154.191406 Z M 199.039062 154.191406 " fill-opacity="1" fill-rule="nonzero"/><path fill="#ffe6e6" d="M 156.960938 148.15625 L 166.253906 216.675781 L 162.519531 216.675781 L 153.339844 148.15625 Z M 156.960938 148.15625 " fill-opacity="1" fill-rule="nonzero"/><path fill="#bd1616" d="M 215.4375 148.15625 L 206.148438 216.675781 L 209.882812 216.675781 L 219.058594 148.15625 Z M 215.4375 148.15625 " fill-opacity="1" fill-rule="nonzero"/><path fill="#bd1616" d="M 209.882812 216.667969 C 209.882812 216.667969 188.128906 204.105469 162.519531 216.667969 Z M 209.882812 216.667969 " fill-opacity="1" fill-rule="nonzero"/><path fill="#ffb830" d="M 166.253906 147.210938 L 160.375 116.921875 L 158.253906 114.914062 L 164.324219 147.148438 L 165.4375 147.148438 C 165.710938 147.148438 165.984375 147.167969 166.253906 147.210938 Z M 166.253906 147.210938 " fill-opacity="1" fill-rule="nonzero"/><path fill="#dd8d0e" d="M 158.847656 114.085938 L 161.304688 116.410156 L 167.339844 147.515625 C 168.503906 147.96875 169.382812 148.738281 169.980469 149.832031 C 170.617188 150.980469 171.367188 152.050781 172.234375 153.035156 L 163.851562 106.011719 L 157.550781 107.609375 Z M 158.847656 114.085938 " fill-opacity="1" fill-rule="nonzero"/><path fill="#dd8d0e" d="M 172.265625 138.058594 L 175.640625 156.105469 C 176 156.355469 176.375 156.601562 176.773438 156.835938 C 177.5625 157.304688 178.382812 157.707031 179.230469 158.054688 L 177.738281 126.136719 L 176.671875 115.875 L 177.230469 115.300781 L 176.730469 104.589844 L 169.601562 104.589844 Z M 172.265625 138.058594 " fill-opacity="1" fill-rule="nonzero"/><path fill="#ffb830" d="M 177.492188 116.277344 L 181.28125 119.765625 L 188.160156 116.578125 L 185.304688 113.289062 Z M 177.492188 116.277344 " fill-opacity="1" fill-rule="nonzero"/><path fill="#dd8d0e" d="M 201.050781 135.085938 C 200.578125 135.367188 200.160156 135.707031 199.796875 136.117188 C 199.179688 136.734375 198.527344 137.378906 197.578125 137.535156 C 197.488281 137.550781 197.398438 137.558594 197.304688 137.558594 L 195.828125 153.847656 L 195.914062 153.808594 L 195.933594 153.808594 C 196.023438 153.765625 196.113281 153.722656 196.203125 153.683594 L 196.269531 153.65625 L 196.492188 153.5625 L 196.574219 153.527344 L 196.78125 153.449219 L 196.871094 153.417969 L 197.078125 153.351562 L 197.164062 153.320312 L 197.371094 153.261719 L 197.457031 153.238281 C 197.523438 153.21875 197.59375 153.203125 197.664062 153.1875 L 197.730469 153.171875 C 197.8125 153.152344 197.898438 153.136719 197.976562 153.125 L 197.996094 153.125 C 198.085938 153.113281 198.175781 153.101562 198.261719 153.09375 L 198.289062 153.09375 L 198.507812 153.078125 L 198.582031 153.078125 C 198.636719 153.078125 198.691406 153.078125 198.742188 153.078125 L 198.832031 153.078125 L 198.921875 153.089844 L 201.457031 134.9375 L 201.367188 134.964844 C 201.257812 134.996094 201.152344 135.039062 201.050781 135.085938 Z M 201.050781 135.085938 " fill-opacity="1" fill-rule="nonzero"/><path fill="#dd8d0e" d="M 209.382812 127.191406 C 208.933594 127.875 208.523438 128.617188 208.121094 129.351562 C 207.132812 131.152344 206.117188 132.996094 204.507812 133.984375 L 201.441406 151.390625 C 201.789062 150.890625 202.109375 150.371094 202.402344 149.839844 C 202.859375 149.011719 203.492188 148.355469 204.308594 147.875 C 204.546875 147.738281 204.792969 147.617188 205.050781 147.523438 Z M 209.382812 127.191406 " fill-opacity="1" fill-rule="nonzero"/><path fill="#dd8d0e" d="M 214.441406 147.148438 L 216.835938 136.183594 L 216.808594 136.183594 C 216.714844 136.179688 216.621094 136.164062 216.527344 136.144531 L 216.488281 136.128906 C 216.390625 136.105469 216.292969 136.070312 216.199219 136.027344 C 215.765625 135.820312 215.167969 135.308594 214.804688 134.042969 C 214.804688 134.015625 214.792969 133.988281 214.785156 133.960938 L 211.945312 147.148438 Z M 214.441406 147.148438 " fill-opacity="1" fill-rule="nonzero"/><path fill="#231f20" d="M 220.894531 106.65625 L 220.003906 106.1875 C 220.332031 105.414062 220.3125 104.652344 219.953125 103.894531 C 217.800781 99.105469 210.628906 96.378906 209.222656 95.878906 C 206.921875 95.070312 205.871094 96.433594 205.828125 96.496094 L 205 95.90625 C 205.0625 95.820312 206.511719 93.867188 209.550781 94.9375 C 211.035156 95.457031 218.558594 98.324219 220.875 103.488281 C 221.109375 103.992188 221.226562 104.519531 221.230469 105.070312 C 221.234375 105.625 221.125 106.152344 220.894531 106.65625 Z M 220.894531 106.65625 " fill-opacity="1" fill-rule="nonzero"/><path fill="#930000" d="M 213.761719 117.511719 C 211.386719 114.484375 208.542969 111.992188 205.226562 110.035156 C 204.0625 109.355469 202.855469 108.761719 201.605469 108.253906 C 201.324219 108.140625 201.042969 108.03125 200.757812 107.925781 L 200.480469 107.828125 C 200.285156 107.757812 200.097656 107.6875 199.902344 107.621094 C 199.792969 107.582031 199.675781 107.546875 199.5625 107.507812 C 199.386719 107.453125 199.214844 107.394531 199.035156 107.34375 L 198.671875 107.238281 C 198.5 107.1875 198.332031 107.140625 198.160156 107.09375 L 197.78125 106.996094 L 197.269531 106.871094 L 196.886719 106.78125 L 196.371094 106.671875 L 195.988281 106.59375 L 195.453125 106.5 L 195.082031 106.433594 L 194.960938 106.417969 L 195.914062 110.789062 L 196.078125 111.554688 C 202.027344 112.582031 207.476562 116.300781 210.519531 121.507812 L 210.535156 121.535156 C 211.101562 120.3125 211.988281 119.40625 213.199219 118.816406 L 213.5 118.679688 C 213.777344 118.558594 214.050781 118.445312 214.324219 118.34375 L 214.375 118.324219 C 214.359375 118.300781 214.34375 118.28125 214.328125 118.257812 C 214.148438 118.003906 213.957031 117.757812 213.761719 117.511719 Z M 213.761719 117.511719 " fill-opacity="1" fill-rule="nonzero"/><path fill="#930000" d="M 210.351562 117.074219 C 209.539062 116.457031 208.277344 116.410156 207.289062 116.664062 C 209.1875 118.957031 210.105469 122.414062 208.503906 124.925781 C 207.988281 125.734375 207.253906 126.386719 206.722656 127.191406 C 205.71875 128.714844 205.433594 130.796875 203.9375 131.828125 C 202.71875 132.675781 200.929688 132.628906 199.972656 133.769531 C 199.625 134.179688 199.4375 134.707031 199.148438 135.160156 C 198.644531 135.894531 197.957031 136.355469 197.085938 136.542969 C 197.195312 136.550781 197.308594 136.546875 197.417969 136.527344 C 198.039062 136.421875 198.554688 135.910156 199.089844 135.386719 C 199.527344 134.902344 200.035156 134.5 200.601562 134.175781 C 200.734375 134.109375 200.875 134.050781 201.015625 134 C 201.316406 133.898438 201.625 133.820312 201.941406 133.765625 L 202.640625 133.621094 L 202.640625 133.632812 C 202.824219 133.59375 203.007812 133.546875 203.1875 133.492188 C 205.042969 132.871094 206.101562 130.925781 207.234375 128.859375 C 208 127.472656 208.785156 126.035156 209.851562 124.980469 L 210.019531 124.1875 L 210.035156 123.71875 C 210.058594 122.867188 210.269531 122.058594 210.664062 121.300781 C 211.054688 120.542969 211.589844 119.910156 212.273438 119.394531 C 211.742188 118.535156 211.160156 117.6875 210.351562 117.074219 Z M 210.351562 117.074219 " fill-opacity="1" fill-rule="nonzero"/><path fill="#e24747" d="M 195.824219 133.113281 C 195.6875 133.113281 195.570312 133.066406 195.472656 132.972656 C 195.375 132.878906 195.324219 132.761719 195.320312 132.625 C 195.292969 131.839844 195.289062 131.046875 195.304688 130.277344 C 195.308594 130.140625 195.359375 130.023438 195.457031 129.925781 C 195.554688 129.832031 195.675781 129.78125 195.8125 129.78125 C 195.953125 129.785156 196.070312 129.835938 196.167969 129.9375 C 196.261719 130.039062 196.308594 130.15625 196.308594 130.296875 C 196.289062 131.050781 196.292969 131.824219 196.320312 132.59375 C 196.324219 132.734375 196.277344 132.855469 196.183594 132.957031 C 196.085938 133.054688 195.96875 133.109375 195.832031 133.113281 Z M 195.824219 133.113281 " fill-opacity="1" fill-rule="nonzero"/><path fill="#e24747" d="M 195.890625 128.980469 L 195.859375 128.980469 C 195.71875 128.972656 195.605469 128.914062 195.511719 128.808594 C 195.417969 128.703125 195.378906 128.582031 195.386719 128.445312 C 195.53125 126.054688 195.921875 123.703125 196.5625 121.394531 C 196.601562 121.261719 196.679688 121.164062 196.800781 121.097656 C 196.925781 121.03125 197.050781 121.015625 197.183594 121.054688 C 197.316406 121.09375 197.417969 121.171875 197.484375 121.292969 C 197.554688 121.414062 197.570312 121.539062 197.53125 121.671875 C 196.914062 123.910156 196.535156 126.191406 196.394531 128.507812 C 196.386719 128.640625 196.332031 128.753906 196.238281 128.84375 C 196.140625 128.933594 196.023438 128.980469 195.890625 128.980469 Z M 195.890625 128.980469 " fill-opacity="1" fill-rule="nonzero"/><path fill="#930000" d="M 197.414062 165.433594 C 197.332031 165.414062 197.246094 165.40625 197.164062 165.410156 C 196.832031 165.425781 196.507812 165.394531 196.183594 165.320312 C 195.847656 165.242188 195.589844 165.054688 195.410156 164.761719 C 195.304688 164.535156 195.246094 164.296875 195.238281 164.046875 L 194.859375 160.359375 C 194.804688 159.796875 194.730469 159.195312 194.355469 158.769531 C 194.019531 158.429688 193.613281 158.21875 193.140625 158.136719 C 192.84375 158.066406 192.523438 158.011719 192.316406 157.789062 C 192.203125 157.667969 192.15625 157.519531 192.171875 157.355469 C 191.984375 157.5 191.816406 157.664062 191.671875 157.851562 C 191.621094 157.925781 191.578125 158.007812 191.546875 158.09375 C 191.449219 158.320312 191.484375 158.527344 191.644531 158.710938 L 191.664062 158.730469 L 191.699219 158.75 C 191.835938 158.785156 191.972656 158.796875 192.113281 158.785156 L 192.375 158.785156 C 192.453125 158.785156 192.535156 158.785156 192.617188 158.804688 C 193.675781 158.976562 194.230469 160.039062 194.394531 160.988281 C 194.46875 161.464844 194.511719 161.945312 194.523438 162.429688 C 194.542969 162.820312 194.5625 163.191406 194.609375 163.558594 C 194.695312 164.175781 194.921875 165 195.535156 165.449219 C 195.820312 165.640625 196.132812 165.734375 196.476562 165.730469 C 196.820312 165.726562 197.132812 165.628906 197.414062 165.433594 Z M 197.414062 165.433594 " fill-opacity="1" fill-rule="nonzero"/><path fill="#e24747" d="M 199.148438 154.304688 C 199.121094 154.257812 199.082031 154.222656 199.039062 154.191406 C 198.300781 153.675781 196.089844 154.726562 194.132812 155.96875 C 194.453125 155.921875 195.234375 155.5 195.441406 155.429688 C 195.953125 155.257812 196.472656 155.109375 197 154.984375 C 197.246094 154.90625 197.492188 154.894531 197.746094 154.953125 C 198.15625 155.085938 198.375 155.570312 198.375 156.007812 C 198.375 156.445312 198.222656 156.867188 198.15625 157.300781 C 198.097656 157.765625 198.089844 158.230469 198.128906 158.695312 L 198.316406 162.328125 C 198.332031 162.082031 198.351562 161.839844 198.367188 161.59375 C 198.457031 160.34375 198.546875 159.050781 198.691406 157.78125 C 198.707031 157.65625 198.734375 157.507812 198.769531 157.339844 C 198.804688 157.171875 198.847656 156.988281 198.894531 156.785156 C 199.074219 156.011719 199.324219 154.949219 199.195312 154.425781 C 199.1875 154.382812 199.171875 154.34375 199.148438 154.304688 Z M 199.148438 154.304688 " fill-opacity="1" fill-rule="nonzero"/><path fill="#e24747" d="M 220.1875 124.09375 C 220.15625 124.09375 220.128906 124.09375 220.101562 124.09375 C 219.960938 124.070312 219.855469 124 219.773438 123.886719 C 219.691406 123.773438 219.664062 123.648438 219.6875 123.507812 C 219.882812 122.390625 219.773438 121.535156 219.378906 121.039062 C 219.179688 120.78125 218.917969 120.625 218.601562 120.570312 C 218.453125 120.566406 218.332031 120.515625 218.234375 120.40625 C 218.132812 120.300781 218.089844 120.175781 218.097656 120.03125 C 218.109375 119.886719 218.171875 119.765625 218.28125 119.675781 C 218.394531 119.582031 218.523438 119.546875 218.667969 119.5625 C 219.289062 119.636719 219.792969 119.917969 220.171875 120.414062 C 220.757812 121.15625 220.929688 122.269531 220.683594 123.6875 C 220.660156 123.804688 220.601562 123.902344 220.507812 123.980469 C 220.414062 124.054688 220.308594 124.09375 220.1875 124.09375 Z M 220.1875 124.09375 " fill-opacity="1" fill-rule="nonzero"/><path fill="#930000" d="M 217.292969 135.097656 C 217.46875 135.019531 217.625 134.914062 217.769531 134.785156 C 217.070312 134.425781 216.636719 133.863281 216.476562 133.09375 C 216.332031 132.359375 216.335938 131.621094 216.496094 130.890625 C 216.660156 129.976562 216.910156 129.035156 216.714844 128.132812 C 216.265625 126.074219 213.800781 125.117188 212.902344 123.21875 C 212.683594 122.742188 212.570312 122.242188 212.566406 121.714844 C 212.5625 121.191406 212.664062 120.691406 212.875 120.210938 C 212.320312 120.632812 211.878906 121.152344 211.558594 121.773438 C 211.234375 122.390625 211.066406 123.050781 211.042969 123.75 L 211.042969 124.03125 L 211.074219 124.058594 C 211.207031 124.175781 211.347656 124.292969 211.488281 124.414062 L 211.585938 124.496094 C 211.726562 124.617188 211.871094 124.734375 212.019531 124.859375 C 212.699219 125.421875 213.464844 126.0625 214.308594 126.839844 C 215.949219 128.351562 215.800781 129.390625 215.628906 130.589844 C 215.425781 131.660156 215.476562 132.714844 215.78125 133.761719 C 215.988281 134.464844 216.289062 134.945312 216.640625 135.113281 C 216.859375 135.210938 217.078125 135.203125 217.292969 135.097656 Z M 217.292969 135.097656 " fill-opacity="1" fill-rule="nonzero"/><path fill="#ffffff" d="M 205.867188 95.753906 C 205.867188 95.753906 217.261719 100.542969 220.261719 106.085938 L 220.929688 104.914062 C 220.929688 104.914062 218.601562 99.785156 215.046875 98.105469 C 211.488281 96.425781 208.441406 95.101562 207.542969 95.121094 C 206.917969 95.164062 206.359375 95.375 205.867188 95.753906 Z M 205.867188 95.753906 " fill-opacity="1" fill-rule="nonzero"/><path fill="#d1d3d4" d="M 214.945312 101.230469 C 214.128906 100.65625 213.316406 100.132812 212.507812 99.65625 C 215.066406 102.539062 221.175781 110.726562 215.441406 117.964844 C 215.664062 117.898438 215.886719 117.839844 216.097656 117.785156 L 216.230469 117.753906 C 216.4375 117.707031 216.628906 117.664062 216.816406 117.632812 L 216.882812 117.621094 C 217.089844 117.585938 217.285156 117.5625 217.480469 117.542969 L 217.609375 117.53125 C 217.800781 117.515625 217.988281 117.503906 218.167969 117.503906 L 218.21875 117.503906 C 218.402344 117.503906 218.582031 117.515625 218.753906 117.535156 L 218.839844 117.535156 C 219.007812 117.554688 219.179688 117.582031 219.34375 117.621094 L 219.445312 117.644531 C 219.605469 117.683594 219.761719 117.730469 219.914062 117.789062 L 219.96875 117.8125 C 220.109375 117.871094 220.246094 117.941406 220.378906 118.019531 C 220.394531 118.023438 220.40625 118.03125 220.417969 118.035156 C 221.773438 114.570312 223.300781 107.117188 214.945312 101.230469 Z M 214.945312 101.230469 " fill-opacity="1" fill-rule="nonzero"/><path fill="#d1d3d4" d="M 215.046875 98.105469 L 214.332031 97.773438 C 214.425781 98.019531 214.453125 98.273438 214.417969 98.535156 C 214.3125 99.105469 213.90625 99.476562 213.460938 99.769531 C 216.234375 101.542969 219 103.746094 220.261719 106.085938 L 220.929688 104.914062 C 220.929688 104.914062 218.601562 99.785156 215.046875 98.105469 Z M 215.046875 98.105469 " fill-opacity="1" fill-rule="nonzero"/><path fill="#210006" d="M 210.304688 217.683594 L 162.074219 217.683594 C 161.949219 217.683594 161.839844 217.640625 161.742188 217.558594 C 161.648438 217.476562 161.59375 217.371094 161.574219 217.246094 L 152.261719 147.71875 C 152.238281 147.566406 152.28125 147.429688 152.382812 147.316406 C 152.488281 147.199219 152.617188 147.144531 152.769531 147.148438 L 165.4375 147.148438 C 166.382812 147.148438 167.261719 147.390625 168.074219 147.867188 C 168.886719 148.347656 169.519531 149 169.976562 149.824219 C 171.335938 152.296875 173.167969 154.351562 175.464844 155.992188 C 175.878906 156.28125 176.304688 156.566406 176.765625 156.835938 C 177.839844 157.472656 178.972656 157.996094 180.15625 158.402344 C 181.339844 158.808594 182.550781 159.09375 183.792969 159.253906 C 185.035156 159.417969 186.277344 159.453125 187.527344 159.363281 C 188.773438 159.269531 190.003906 159.054688 191.207031 158.714844 L 191.25 158.703125 C 191.398438 158.660156 191.542969 158.675781 191.679688 158.746094 C 191.816406 158.785156 191.953125 158.796875 192.09375 158.78125 C 192.261719 158.773438 192.429688 158.78125 192.597656 158.800781 C 193.65625 158.976562 194.207031 160.039062 194.375 160.984375 C 194.449219 161.464844 194.492188 161.945312 194.503906 162.425781 C 194.523438 162.816406 194.539062 163.1875 194.589844 163.554688 C 194.671875 164.171875 194.898438 164.996094 195.511719 165.449219 C 195.683594 165.5625 195.867188 165.644531 196.066406 165.691406 C 196.265625 165.738281 196.46875 165.746094 196.671875 165.71875 C 196.875 165.6875 197.066406 165.625 197.246094 165.523438 C 197.425781 165.425781 197.582031 165.296875 197.710938 165.140625 C 198.105469 164.636719 198.1875 163.933594 198.25 163.136719 C 198.289062 162.621094 198.324219 162.109375 198.359375 161.585938 C 198.449219 160.335938 198.539062 159.042969 198.683594 157.769531 C 198.710938 157.519531 198.792969 157.175781 198.890625 156.777344 C 199.070312 156.003906 199.320312 154.941406 199.1875 154.414062 C 199.144531 154.230469 199.1875 154.070312 199.320312 153.9375 C 200.539062 152.707031 201.566406 151.335938 202.398438 149.816406 C 202.855469 148.992188 203.488281 148.335938 204.304688 147.855469 C 204.628906 147.664062 204.972656 147.507812 205.335938 147.390625 C 205.859375 147.21875 206.398438 147.132812 206.949219 147.132812 L 219.621094 147.132812 C 219.773438 147.132812 219.898438 147.191406 220 147.304688 C 220.101562 147.417969 220.140625 147.550781 220.121094 147.703125 L 210.804688 217.246094 C 210.789062 217.371094 210.730469 217.476562 210.636719 217.558594 C 210.542969 217.640625 210.429688 217.683594 210.304688 217.683594 Z M 162.519531 216.667969 L 209.863281 216.667969 L 219.042969 148.15625 L 206.945312 148.15625 C 206.1875 148.15625 205.476562 148.351562 204.820312 148.738281 C 204.167969 149.125 203.65625 149.652344 203.289062 150.320312 C 202.453125 151.839844 201.433594 153.226562 200.226562 154.476562 C 200.300781 155.222656 200.070312 156.210938 199.878906 157.023438 C 199.796875 157.375 199.71875 157.707031 199.699219 157.902344 C 199.554688 159.152344 199.464844 160.433594 199.378906 161.671875 C 199.34375 162.191406 199.308594 162.703125 199.265625 163.230469 C 199.195312 164.160156 199.085938 165.050781 198.519531 165.773438 C 198.308594 166.035156 198.054688 166.246094 197.761719 166.410156 C 197.46875 166.574219 197.152344 166.679688 196.820312 166.726562 C 196.488281 166.773438 196.15625 166.757812 195.832031 166.679688 C 195.503906 166.601562 195.203125 166.46875 194.925781 166.277344 C 194.214844 165.761719 193.757812 164.871094 193.597656 163.707031 C 193.542969 163.292969 193.523438 162.882812 193.503906 162.492188 C 193.492188 162.046875 193.453125 161.605469 193.390625 161.164062 C 193.289062 160.59375 192.976562 159.890625 192.449219 159.804688 C 192.339844 159.796875 192.230469 159.796875 192.121094 159.804688 C 191.875 159.824219 191.632812 159.796875 191.390625 159.730469 C 190.128906 160.078125 188.84375 160.300781 187.535156 160.390625 C 186.226562 160.480469 184.921875 160.4375 183.621094 160.265625 C 182.320312 160.09375 181.050781 159.792969 179.8125 159.363281 C 178.574219 158.933594 177.390625 158.386719 176.261719 157.722656 C 175.777344 157.433594 175.316406 157.132812 174.890625 156.828125 C 172.460938 155.097656 170.53125 152.929688 169.09375 150.320312 C 168.570312 149.355469 167.785156 148.703125 166.742188 148.367188 C 166.316406 148.226562 165.882812 148.160156 165.4375 148.160156 L 153.339844 148.160156 Z M 162.519531 216.667969 " fill-opacity="1" fill-rule="nonzero"/><path fill="#210006" d="M 197.660156 172.183594 C 197.9375 172.183594 198.207031 172.210938 198.476562 172.265625 C 198.746094 172.316406 199.011719 172.398438 199.265625 172.5 C 199.519531 172.605469 199.757812 172.734375 199.988281 172.886719 C 200.214844 173.039062 200.429688 173.214844 200.621094 173.40625 C 200.816406 173.601562 200.992188 173.8125 201.144531 174.042969 C 201.296875 174.269531 201.425781 174.511719 201.53125 174.765625 C 201.636719 175.015625 201.714844 175.277344 201.769531 175.546875 C 201.820312 175.816406 201.847656 176.089844 201.847656 176.363281 L 201.847656 183.753906 C 201.847656 184.027344 201.820312 184.300781 201.769531 184.570312 C 201.714844 184.839844 201.636719 185.101562 201.53125 185.355469 C 201.425781 185.605469 201.296875 185.847656 201.144531 186.078125 C 200.992188 186.304688 200.816406 186.515625 200.621094 186.710938 C 200.429688 186.902344 200.214844 187.078125 199.988281 187.230469 C 199.757812 187.382812 199.519531 187.511719 199.265625 187.617188 C 199.011719 187.722656 198.746094 187.800781 198.476562 187.855469 C 198.207031 187.90625 197.9375 187.933594 197.660156 187.933594 C 197.386719 187.933594 197.113281 187.90625 196.84375 187.855469 C 196.574219 187.800781 196.3125 187.722656 196.058594 187.617188 C 195.804688 187.511719 195.5625 187.382812 195.335938 187.230469 C 195.105469 187.078125 194.894531 186.902344 194.699219 186.710938 C 194.507812 186.515625 194.332031 186.304688 194.179688 186.078125 C 194.027344 185.847656 193.898438 185.605469 193.792969 185.355469 C 193.6875 185.101562 193.609375 184.839844 193.554688 184.570312 C 193.5 184.300781 193.472656 184.027344 193.472656 183.753906 L 193.472656 176.363281 C 193.472656 176.089844 193.5 175.816406 193.554688 175.546875 C 193.609375 175.277344 193.6875 175.015625 193.792969 174.765625 C 193.898438 174.511719 194.027344 174.269531 194.179688 174.042969 C 194.332031 173.8125 194.507812 173.601562 194.699219 173.40625 C 194.894531 173.214844 195.105469 173.039062 195.335938 172.886719 C 195.5625 172.734375 195.804688 172.605469 196.058594 172.5 C 196.3125 172.398438 196.574219 172.316406 196.84375 172.265625 C 197.113281 172.210938 197.386719 172.183594 197.660156 172.183594 Z M 197.660156 172.183594 " fill-opacity="1" fill-rule="nonzero"/><path fill="#ffffff" d="M 196.492188 174.765625 C 196.648438 174.765625 196.796875 174.796875 196.941406 174.855469 C 197.082031 174.914062 197.210938 174.996094 197.320312 175.105469 C 197.429688 175.214844 197.511719 175.34375 197.570312 175.484375 C 197.628906 175.628906 197.660156 175.777344 197.660156 175.929688 L 197.660156 177.992188 C 197.660156 178.144531 197.628906 178.292969 197.570312 178.4375 C 197.511719 178.578125 197.429688 178.707031 197.320312 178.816406 C 197.210938 178.921875 197.082031 179.007812 196.941406 179.066406 C 196.796875 179.125 196.648438 179.15625 196.492188 179.15625 C 196.339844 179.15625 196.191406 179.125 196.046875 179.066406 C 195.902344 179.007812 195.777344 178.921875 195.667969 178.816406 C 195.558594 178.707031 195.476562 178.578125 195.414062 178.4375 C 195.355469 178.292969 195.328125 178.144531 195.328125 177.992188 L 195.328125 175.929688 C 195.328125 175.777344 195.355469 175.628906 195.414062 175.484375 C 195.476562 175.34375 195.558594 175.214844 195.667969 175.105469 C 195.777344 174.996094 195.902344 174.914062 196.046875 174.855469 C 196.191406 174.796875 196.339844 174.765625 196.492188 174.765625 Z M 196.492188 174.765625 " fill-opacity="1" fill-rule="nonzero"/><path fill="#210006" d="M 177.09375 187.933594 C 176.816406 187.933594 176.546875 187.90625 176.277344 187.855469 C 176.007812 187.800781 175.746094 187.722656 175.492188 187.617188 C 175.238281 187.511719 174.996094 187.382812 174.765625 187.230469 C 174.539062 187.078125 174.328125 186.902344 174.132812 186.710938 C 173.9375 186.515625 173.765625 186.304688 173.613281 186.078125 C 173.457031 185.847656 173.328125 185.605469 173.226562 185.355469 C 173.121094 185.101562 173.039062 184.839844 172.988281 184.570312 C 172.933594 184.300781 172.90625 184.027344 172.90625 183.753906 L 172.90625 176.363281 C 172.90625 176.089844 172.933594 175.816406 172.988281 175.546875 C 173.039062 175.277344 173.121094 175.015625 173.226562 174.765625 C 173.328125 174.511719 173.457031 174.269531 173.613281 174.042969 C 173.765625 173.8125 173.9375 173.601562 174.132812 173.40625 C 174.328125 173.214844 174.539062 173.039062 174.765625 172.886719 C 174.996094 172.734375 175.238281 172.605469 175.492188 172.5 C 175.746094 172.398438 176.007812 172.316406 176.277344 172.265625 C 176.546875 172.210938 176.816406 172.183594 177.09375 172.183594 C 177.367188 172.183594 177.640625 172.210938 177.910156 172.265625 C 178.179688 172.316406 178.441406 172.398438 178.695312 172.5 C 178.949219 172.605469 179.191406 172.734375 179.417969 172.886719 C 179.648438 173.039062 179.859375 173.214844 180.054688 173.40625 C 180.25 173.601562 180.421875 173.8125 180.574219 174.042969 C 180.726562 174.269531 180.855469 174.511719 180.960938 174.765625 C 181.066406 175.015625 181.144531 175.277344 181.199219 175.546875 C 181.253906 175.816406 181.28125 176.089844 181.28125 176.363281 L 181.28125 183.753906 C 181.28125 184.027344 181.253906 184.300781 181.199219 184.570312 C 181.144531 184.839844 181.066406 185.101562 180.960938 185.355469 C 180.855469 185.605469 180.726562 185.847656 180.574219 186.078125 C 180.421875 186.304688 180.25 186.515625 180.054688 186.710938 C 179.859375 186.902344 179.648438 187.078125 179.417969 187.230469 C 179.191406 187.382812 178.949219 187.511719 178.695312 187.617188 C 178.441406 187.722656 178.179688 187.800781 177.910156 187.855469 C 177.640625 187.90625 177.367188 187.933594 177.09375 187.933594 Z M 177.09375 187.933594 " fill-opacity="1" fill-rule="nonzero"/><path fill="#ffffff" d="M 178.261719 179.15625 C 178.105469 179.15625 177.957031 179.125 177.816406 179.066406 C 177.671875 179.007812 177.546875 178.921875 177.4375 178.816406 C 177.328125 178.707031 177.242188 178.578125 177.183594 178.4375 C 177.125 178.292969 177.09375 178.144531 177.09375 177.992188 L 177.09375 175.929688 C 177.09375 175.777344 177.125 175.628906 177.183594 175.484375 C 177.242188 175.34375 177.328125 175.214844 177.4375 175.105469 C 177.546875 174.996094 177.671875 174.914062 177.816406 174.855469 C 177.957031 174.796875 178.105469 174.765625 178.261719 174.765625 C 178.414062 174.765625 178.566406 174.796875 178.707031 174.855469 C 178.851562 174.914062 178.976562 174.996094 179.085938 175.105469 C 179.195312 175.214844 179.28125 175.34375 179.339844 175.484375 C 179.398438 175.628906 179.429688 175.777344 179.429688 175.929688 L 179.429688 177.992188 C 179.429688 178.144531 179.398438 178.292969 179.339844 178.4375 C 179.28125 178.578125 179.195312 178.707031 179.085938 178.816406 C 178.976562 178.921875 178.851562 179.007812 178.707031 179.066406 C 178.566406 179.125 178.414062 179.15625 178.261719 179.15625 Z M 178.261719 179.15625 " fill-opacity="1" fill-rule="nonzero"/><path fill="#210006" d="M 205.488281 148.390625 C 205.324219 148.394531 205.191406 148.328125 205.089844 148.203125 C 204.988281 148.074219 204.957031 147.933594 204.992188 147.773438 L 210.03125 124.140625 C 210.050781 124.054688 210.089844 123.980469 210.148438 123.914062 C 210.207031 123.847656 210.28125 123.800781 210.367188 123.773438 C 210.449219 123.746094 210.535156 123.742188 210.625 123.757812 C 210.710938 123.777344 210.789062 123.8125 210.855469 123.871094 C 211.195312 124.171875 211.589844 124.503906 212.011719 124.851562 C 212.6875 125.414062 213.453125 126.054688 214.296875 126.832031 C 215.9375 128.34375 215.789062 129.378906 215.617188 130.582031 C 215.414062 131.652344 215.464844 132.707031 215.769531 133.753906 C 215.976562 134.457031 216.277344 134.9375 216.628906 135.101562 C 216.851562 135.203125 217.070312 135.199219 217.289062 135.089844 C 217.476562 135.007812 217.648438 135.03125 217.808594 135.164062 C 217.96875 135.292969 218.023438 135.457031 217.980469 135.660156 L 215.339844 147.75 C 215.3125 147.867188 215.253906 147.960938 215.160156 148.035156 C 215.070312 148.109375 214.964844 148.148438 214.84375 148.148438 L 206.941406 148.148438 C 206.5 148.148438 206.066406 148.214844 205.644531 148.355469 C 205.59375 148.375 205.542969 148.386719 205.488281 148.390625 Z M 210.839844 125.195312 L 210.804688 125.351562 L 206.148438 147.210938 C 206.414062 147.167969 206.679688 147.148438 206.945312 147.148438 L 214.441406 147.148438 L 216.835938 136.183594 C 216.613281 136.171875 216.402344 136.117188 216.199219 136.023438 C 215.765625 135.816406 215.167969 135.304688 214.804688 134.039062 C 214.457031 132.855469 214.398438 131.660156 214.621094 130.449219 C 214.777344 129.339844 214.867188 128.730469 213.617188 127.578125 C 212.792969 126.820312 212.035156 126.191406 211.367188 125.632812 Z M 210.839844 125.195312 " fill-opacity="1" fill-rule="nonzero"/><path fill="#210006" d="M 166.402344 147.980469 L 160.375 116.921875 L 158.253906 114.914062 L 151.855469 117 L 158.230469 147.542969 L 157.242188 147.75 L 150.773438 116.769531 C 150.746094 116.640625 150.765625 116.519531 150.832031 116.40625 C 150.898438 116.292969 150.996094 116.214844 151.121094 116.175781 L 158.226562 113.863281 C 158.417969 113.800781 158.585938 113.839844 158.730469 113.976562 L 161.1875 116.296875 C 161.265625 116.375 161.316406 116.464844 161.335938 116.570312 L 167.394531 147.789062 Z M 166.402344 147.980469 " fill-opacity="1" fill-rule="nonzero"/><path fill="#210006" d="M 174.6875 156.496094 L 165.796875 108.980469 L 163.851562 106.011719 L 157.550781 107.609375 L 158.878906 114.242188 L 157.886719 114.449219 L 156.464844 107.339844 C 156.4375 107.207031 156.460938 107.085938 156.53125 106.972656 C 156.605469 106.859375 156.707031 106.785156 156.835938 106.75 L 163.949219 104.945312 C 164.179688 104.882812 164.363281 104.953125 164.5 105.148438 L 166.699219 108.511719 C 166.734375 108.570312 166.757812 108.628906 166.773438 108.695312 L 175.671875 156.3125 Z M 174.6875 156.496094 " fill-opacity="1" fill-rule="nonzero"/><path fill="#210006" d="M 190.84375 159.203125 L 190.84375 159.199219 L 191.855469 159.199219 Z M 190.84375 159.203125 " fill-opacity="1" fill-rule="nonzero"/><path fill="#210006" d="M 182.039062 159.625 L 176.4375 116.011719 C 176.40625 115.75 176.511719 115.570312 176.757812 115.476562 L 185.273438 112.222656 C 185.492188 112.136719 185.679688 112.183594 185.835938 112.363281 L 189.035156 116.046875 C 189.109375 116.128906 189.152344 116.230469 189.15625 116.34375 L 191.273438 149.921875 L 190.265625 149.988281 L 188.160156 116.578125 L 185.304688 113.292969 L 177.492188 116.28125 L 183.039062 159.5 Z M 182.039062 159.625 " fill-opacity="1" fill-rule="nonzero"/><path fill="#210006" d="M 191.371094 159.699219 C 191.261719 159.699219 191.160156 159.667969 191.070312 159.609375 C 190.933594 159.515625 190.859375 159.386719 190.847656 159.226562 L 190.847656 159.160156 C 190.835938 158.945312 190.925781 158.789062 191.117188 158.6875 C 191.304688 158.585938 191.484375 158.601562 191.65625 158.730469 C 191.847656 158.839844 191.9375 159.007812 191.917969 159.226562 C 191.902344 159.453125 191.785156 159.597656 191.570312 159.664062 L 191.523438 159.679688 C 191.472656 159.691406 191.421875 159.699219 191.371094 159.699219 Z M 191.679688 158.75 Z M 191.636719 158.722656 Z M 191.636719 158.722656 " fill-opacity="1" fill-rule="nonzero"/><path fill="#210006" d="M 191.246094 158.0625 C 191.199219 158.0625 191.15625 158.058594 191.109375 158.042969 C 190.882812 157.980469 190.757812 157.828125 190.742188 157.589844 L 190.265625 149.996094 L 190.265625 105.570312 C 190.261719 105.429688 190.3125 105.308594 190.414062 105.210938 C 190.511719 105.109375 190.632812 105.0625 190.773438 105.066406 C 191.980469 105.078125 193.179688 105.160156 194.375 105.320312 C 194.609375 105.347656 194.753906 105.480469 194.804688 105.710938 C 195.175781 107.40625 195.546875 109.101562 195.914062 110.796875 L 196.238281 112.296875 C 196.53125 113.625 196.832031 114.996094 196.804688 116.414062 C 196.78125 117.890625 196.394531 119.324219 196.039062 120.710938 C 195.957031 121.019531 195.878906 121.328125 195.800781 121.632812 C 194.902344 125.242188 194.5625 128.902344 194.78125 132.613281 C 194.828125 133.511719 194.925781 134.539062 195.398438 135.363281 C 195.777344 136.023438 196.566406 136.667969 197.414062 136.527344 C 198.03125 136.421875 198.546875 135.910156 199.082031 135.386719 C 199.523438 134.902344 200.027344 134.5 200.597656 134.175781 C 200.730469 134.109375 200.867188 134.050781 201.007812 134 C 201.3125 133.898438 201.621094 133.820312 201.933594 133.765625 C 202.011719 133.75 202.09375 133.75 202.171875 133.773438 C 202.25 133.796875 202.320312 133.835938 202.378906 133.890625 C 202.441406 133.945312 202.484375 134.011719 202.511719 134.089844 C 202.539062 134.167969 202.546875 134.246094 202.535156 134.328125 L 201.503906 141.691406 C 201.503906 141.703125 201.503906 141.71875 201.503906 141.726562 L 199.8125 153.839844 C 199.800781 153.925781 199.769531 154.003906 199.714844 154.074219 C 199.660156 154.144531 199.59375 154.199219 199.515625 154.234375 C 199.433594 154.269531 199.347656 154.28125 199.261719 154.273438 C 199.175781 154.261719 199.09375 154.234375 199.023438 154.183594 C 198.046875 153.507812 194.453125 155.59375 192.328125 157.214844 C 192.070312 157.394531 191.847656 157.609375 191.648438 157.851562 C 191.550781 157.992188 191.417969 158.0625 191.246094 158.0625 Z M 191.273438 106.085938 L 191.273438 149.96875 L 191.6875 156.445312 C 191.699219 156.4375 191.710938 156.425781 191.726562 156.417969 C 192.601562 155.75 196.679688 152.75 198.910156 153.09375 L 200.507812 141.625 C 200.507812 141.613281 200.507812 141.597656 200.507812 141.585938 L 201.4375 134.9375 C 201.40625 134.945312 201.375 134.953125 201.347656 134.96875 C 201.242188 135 201.144531 135.042969 201.046875 135.089844 C 200.574219 135.371094 200.15625 135.710938 199.792969 136.121094 C 199.175781 136.738281 198.523438 137.382812 197.574219 137.542969 C 196.441406 137.730469 195.183594 137.046875 194.519531 135.894531 C 193.9375 134.878906 193.828125 133.714844 193.769531 132.699219 C 193.546875 128.886719 193.898438 125.125 194.820312 121.417969 C 194.898438 121.105469 194.980469 120.800781 195.0625 120.480469 C 195.410156 119.15625 195.769531 117.78125 195.796875 116.429688 C 195.816406 115.117188 195.527344 113.804688 195.25 112.53125 L 194.925781 111.03125 C 194.582031 109.453125 194.238281 107.875 193.894531 106.292969 C 193.015625 106.171875 192.140625 106.105469 191.273438 106.085938 Z M 191.273438 106.085938 " fill-opacity="1" fill-rule="nonzero"/><path fill="#210006" d="M 171.257812 138.167969 L 168.550781 104.117188 C 168.542969 103.96875 168.585938 103.84375 168.683594 103.734375 C 168.785156 103.625 168.910156 103.574219 169.054688 103.574219 L 176.941406 103.574219 C 177.082031 103.570312 177.203125 103.621094 177.300781 103.722656 L 179.785156 106.242188 C 179.882812 106.339844 179.933594 106.457031 179.933594 106.59375 L 179.933594 115 L 178.921875 115 L 178.921875 106.800781 L 176.730469 104.582031 L 169.601562 104.582031 L 172.265625 138.085938 Z M 171.257812 138.167969 " fill-opacity="1" fill-rule="nonzero"/><path fill="#210006" d="M 190.769531 113.40625 C 190.644531 113.40625 190.535156 113.367188 190.4375 113.285156 C 188.582031 111.683594 187.109375 109.371094 186.769531 107.519531 C 186.707031 107.175781 186.730469 106.839844 186.839844 106.511719 C 186.949219 106.183594 187.132812 105.898438 187.390625 105.664062 C 187.402344 105.648438 187.417969 105.636719 187.429688 105.625 C 187.78125 105.316406 188.1875 105.148438 188.648438 105.117188 C 189.34375 105.074219 190.058594 105.058594 190.777344 105.066406 C 190.914062 105.066406 191.03125 105.117188 191.128906 105.214844 C 191.226562 105.3125 191.273438 105.429688 191.273438 105.570312 L 191.273438 112.902344 C 191.273438 113.117188 191.175781 113.269531 190.980469 113.359375 C 190.914062 113.390625 190.84375 113.40625 190.769531 113.40625 Z M 188.125 106.359375 L 188.09375 106.386719 C 187.804688 106.640625 187.695312 106.957031 187.765625 107.335938 C 187.972656 108.453125 188.824219 110.195312 190.265625 111.722656 L 190.265625 106.074219 C 189.742188 106.074219 189.222656 106.09375 188.714844 106.125 C 188.496094 106.140625 188.296875 106.21875 188.125 106.359375 Z M 188.125 106.359375 " fill-opacity="1" fill-rule="nonzero"/><path fill="#210006" d="M 220.652344 119.316406 C 220.523438 119.316406 220.414062 119.277344 220.316406 119.191406 C 219.089844 118.121094 216.945312 118.523438 215.363281 119.050781 C 215.128906 119.128906 214.9375 119.066406 214.792969 118.863281 C 214.464844 118.402344 214.121094 117.949219 213.761719 117.511719 C 211.386719 114.484375 208.542969 111.992188 205.226562 110.035156 C 204.0625 109.355469 202.855469 108.761719 201.605469 108.253906 C 198.128906 106.84375 194.515625 106.117188 190.761719 106.074219 C 190.070312 106.074219 189.382812 106.074219 188.714844 106.125 C 188.480469 106.140625 188.273438 106.226562 188.097656 106.382812 C 188 106.464844 187.886719 106.503906 187.757812 106.503906 C 187.628906 106.5 187.519531 106.457031 187.425781 106.367188 C 187.332031 106.28125 187.277344 106.171875 187.265625 106.046875 C 187.253906 105.917969 187.285156 105.804688 187.359375 105.699219 L 191.351562 100.394531 C 194.3125 96.699219 198.996094 94.777344 203.578125 95.355469 C 207.453125 95.847656 211.472656 97.550781 215.527344 100.40625 C 224.988281 107.070312 222.578125 115.644531 221.097656 119.015625 C 221.011719 119.214844 220.855469 119.316406 220.636719 119.316406 Z M 218.175781 117.503906 C 218.96875 117.476562 219.71875 117.652344 220.417969 118.03125 C 221.773438 114.5625 223.304688 107.117188 214.945312 101.226562 C 211.027344 98.46875 207.160156 96.820312 203.453125 96.355469 C 199.21875 95.820312 194.886719 97.601562 192.152344 101.011719 L 189.082031 105.09375 C 189.640625 105.066406 190.207031 105.058594 190.78125 105.066406 C 191.984375 105.078125 193.183594 105.160156 194.378906 105.320312 C 197 105.660156 199.539062 106.328125 201.988281 107.324219 C 203.28125 107.851562 204.53125 108.46875 205.734375 109.175781 C 209.160156 111.195312 212.101562 113.765625 214.550781 116.894531 C 214.835938 117.246094 215.121094 117.617188 215.390625 117.988281 C 216.296875 117.691406 217.222656 117.527344 218.175781 117.503906 Z M 218.175781 117.503906 " fill-opacity="1" fill-rule="nonzero"/><path fill="#210006" d="M 210.660156 125.609375 L 209.964844 124.878906 C 210.179688 124.675781 210.40625 124.488281 210.648438 124.316406 L 211.234375 125.140625 C 211.03125 125.285156 210.839844 125.441406 210.660156 125.609375 Z M 210.660156 125.609375 " fill-opacity="1" fill-rule="nonzero"/><path fill="#210006" d="M 193.816406 105.917969 L 193.78125 105.761719 L 194.773438 105.5625 L 194.804688 105.71875 Z M 193.816406 105.917969 " fill-opacity="1" fill-rule="nonzero"/><path fill="#210006" d="M 216.9375 136.1875 C 216.683594 136.1875 216.4375 136.132812 216.207031 136.023438 C 215.773438 135.816406 215.175781 135.304688 214.8125 134.039062 C 214.464844 132.855469 214.40625 131.660156 214.628906 130.449219 C 214.789062 129.339844 214.875 128.730469 213.625 127.578125 C 212.800781 126.820312 212.046875 126.191406 211.375 125.632812 C 210.949219 125.28125 210.550781 124.945312 210.195312 124.632812 C 210.078125 124.53125 210.023438 124.398438 210.027344 124.242188 L 210.039062 123.726562 C 210.058594 123.1875 210.148438 122.664062 210.316406 122.152344 C 210.484375 121.640625 210.71875 121.160156 211.023438 120.714844 C 211.328125 120.269531 211.6875 119.878906 212.105469 119.535156 C 212.519531 119.191406 212.976562 118.914062 213.472656 118.703125 L 213.519531 118.679688 C 214.035156 118.453125 214.550781 118.253906 215.046875 118.09375 C 217.710938 117.207031 219.710938 117.320312 220.984375 118.433594 L 221.019531 118.464844 C 221.160156 118.589844 221.285156 118.726562 221.402344 118.875 C 223.230469 121.140625 222.316406 123.875 221.433594 126.523438 C 220.949219 127.972656 220.445312 129.476562 220.335938 130.964844 C 220.160156 133.398438 219.097656 135.4375 217.695312 136.035156 C 217.453125 136.136719 217.199219 136.1875 216.9375 136.1875 Z M 211.042969 124.039062 C 211.339844 124.296875 211.671875 124.574219 212.023438 124.863281 C 212.703125 125.425781 213.464844 126.066406 214.3125 126.84375 C 215.949219 128.355469 215.800781 129.394531 215.632812 130.59375 C 215.425781 131.664062 215.476562 132.71875 215.785156 133.765625 C 215.988281 134.46875 216.292969 134.949219 216.640625 135.117188 C 216.863281 135.214844 217.082031 135.210938 217.300781 135.101562 C 218.183594 134.722656 219.15625 133.15625 219.328125 130.886719 C 219.449219 129.269531 219.96875 127.707031 220.476562 126.199219 C 221.347656 123.59375 222.097656 121.339844 220.617188 119.507812 C 220.53125 119.398438 220.433594 119.296875 220.328125 119.207031 L 220.285156 119.171875 C 219.046875 118.140625 216.933594 118.535156 215.363281 119.054688 C 214.914062 119.203125 214.453125 119.382812 213.984375 119.585938 C 213.953125 119.605469 213.917969 119.621094 213.878906 119.632812 C 213.472656 119.808594 213.097656 120.035156 212.753906 120.316406 C 212.410156 120.59375 212.113281 120.917969 211.863281 121.28125 C 211.613281 121.648438 211.417969 122.039062 211.28125 122.460938 C 211.140625 122.878906 211.066406 123.3125 211.050781 123.753906 Z M 211.042969 124.039062 " fill-opacity="1" fill-rule="nonzero"/><path fill="#210006" d="M 197.195312 137.5625 C 196.164062 137.5625 195.109375 136.910156 194.515625 135.875 C 193.917969 134.835938 193.824219 133.691406 193.765625 132.675781 C 193.539062 128.863281 193.890625 125.105469 194.8125 121.398438 C 194.890625 121.085938 194.972656 120.78125 195.058594 120.460938 C 195.40625 119.132812 195.765625 117.761719 195.789062 116.40625 C 195.8125 115.097656 195.523438 113.785156 195.246094 112.511719 L 194.917969 111.011719 C 194.546875 109.3125 194.179688 107.617188 193.808594 105.925781 C 193.792969 105.847656 193.792969 105.765625 193.816406 105.6875 C 193.835938 105.605469 193.875 105.539062 193.929688 105.476562 C 193.988281 105.417969 194.054688 105.371094 194.132812 105.34375 C 194.207031 105.316406 194.289062 105.308594 194.371094 105.320312 C 196.996094 105.65625 199.535156 106.324219 201.988281 107.324219 C 203.28125 107.851562 204.53125 108.46875 205.734375 109.175781 C 209.160156 111.195312 212.101562 113.765625 214.550781 116.894531 C 214.914062 117.34375 215.269531 117.8125 215.609375 118.289062 C 215.65625 118.355469 215.683594 118.425781 215.695312 118.507812 C 215.707031 118.585938 215.699219 118.664062 215.675781 118.738281 C 215.652344 118.8125 215.609375 118.878906 215.554688 118.9375 C 215.496094 118.992188 215.429688 119.035156 215.355469 119.058594 C 214.90625 119.207031 214.445312 119.386719 213.976562 119.589844 C 213.941406 119.609375 213.90625 119.625 213.871094 119.636719 C 213.464844 119.8125 213.089844 120.039062 212.746094 120.320312 C 212.402344 120.597656 212.105469 120.921875 211.855469 121.285156 C 211.605469 121.652344 211.410156 122.042969 211.273438 122.464844 C 211.132812 122.882812 211.058594 123.316406 211.042969 123.757812 L 211.027344 124.277344 C 211.027344 124.308594 211.023438 124.339844 211.019531 124.371094 L 210.8125 125.359375 C 210.789062 125.460938 210.742188 125.546875 210.664062 125.617188 C 209.65625 126.574219 208.878906 127.992188 208.128906 129.359375 C 206.949219 131.503906 205.734375 133.726562 203.507812 134.464844 C 203.128906 134.582031 202.742188 134.671875 202.347656 134.734375 L 202.140625 134.769531 C 201.871094 134.820312 201.609375 134.886719 201.355469 134.976562 C 201.25 135.007812 201.148438 135.050781 201.050781 135.097656 C 200.582031 135.378906 200.164062 135.722656 199.800781 136.128906 C 199.179688 136.746094 198.53125 137.390625 197.582031 137.550781 C 197.453125 137.5625 197.324219 137.566406 197.195312 137.5625 Z M 194.960938 106.421875 L 195.914062 110.796875 L 196.238281 112.296875 C 196.53125 113.625 196.832031 114.996094 196.804688 116.414062 C 196.78125 117.890625 196.394531 119.324219 196.039062 120.710938 C 195.957031 121.019531 195.878906 121.328125 195.800781 121.632812 C 194.902344 125.242188 194.5625 128.902344 194.78125 132.613281 C 194.828125 133.511719 194.925781 134.539062 195.398438 135.363281 C 195.777344 136.023438 196.566406 136.667969 197.414062 136.527344 C 198.03125 136.421875 198.546875 135.910156 199.082031 135.386719 C 199.523438 134.902344 200.027344 134.5 200.597656 134.175781 C 200.730469 134.109375 200.867188 134.050781 201.007812 134 C 201.3125 133.898438 201.621094 133.820312 201.933594 133.765625 L 202.15625 133.722656 C 202.503906 133.671875 202.84375 133.59375 203.175781 133.492188 C 205.035156 132.871094 206.09375 130.925781 207.226562 128.859375 C 207.992188 127.472656 208.777344 126.035156 209.84375 124.980469 L 210.011719 124.1875 L 210.023438 123.71875 C 210.042969 123.179688 210.132812 122.65625 210.300781 122.140625 C 210.46875 121.628906 210.703125 121.152344 211.007812 120.707031 C 211.3125 120.261719 211.671875 119.867188 212.089844 119.527344 C 212.507812 119.183594 212.960938 118.90625 213.457031 118.695312 L 213.503906 118.671875 C 213.796875 118.542969 214.089844 118.421875 214.382812 118.3125 C 214.175781 118.039062 213.96875 117.769531 213.765625 117.503906 C 211.390625 114.476562 208.546875 111.984375 205.226562 110.027344 C 204.0625 109.347656 202.855469 108.753906 201.605469 108.246094 C 199.464844 107.378906 197.246094 106.769531 194.960938 106.421875 Z M 194.960938 106.421875 " fill-opacity="1" fill-rule="nonzero"/><path fill="#210006" d="M 196.429688 166.746094 C 195.875 166.753906 195.375 166.59375 194.921875 166.269531 C 194.210938 165.753906 193.753906 164.863281 193.597656 163.699219 C 193.542969 163.289062 193.523438 162.875 193.503906 162.484375 C 193.492188 162.039062 193.453125 161.597656 193.386719 161.160156 C 193.285156 160.589844 192.976562 159.886719 192.445312 159.800781 C 192.335938 159.792969 192.226562 159.792969 192.117188 159.800781 C 191.828125 159.824219 191.546875 159.785156 191.273438 159.679688 C 191.242188 159.667969 191.214844 159.652344 191.183594 159.632812 C 191.132812 159.609375 191.085938 159.578125 191.042969 159.542969 C 190.777344 159.328125 190.605469 159.054688 190.519531 158.722656 C 190.433594 158.394531 190.457031 158.070312 190.582031 157.753906 C 190.644531 157.585938 190.730469 157.429688 190.832031 157.28125 C 191.085938 156.953125 191.382812 156.664062 191.722656 156.425781 C 192.699219 155.675781 197.671875 152.019531 199.609375 153.367188 C 199.75 153.464844 199.871094 153.582031 199.96875 153.71875 C 200.070312 153.867188 200.136719 154.027344 200.171875 154.199219 C 200.359375 154.953125 200.09375 156.101562 199.875 157.027344 C 199.792969 157.378906 199.714844 157.710938 199.695312 157.90625 C 199.550781 159.152344 199.460938 160.4375 199.375 161.675781 C 199.335938 162.195312 199.304688 162.703125 199.261719 163.230469 C 199.191406 164.160156 199.078125 165.054688 198.515625 165.777344 C 197.976562 166.433594 197.28125 166.757812 196.429688 166.746094 Z M 192.246094 158.78125 C 192.367188 158.777344 192.488281 158.785156 192.605469 158.800781 C 193.664062 158.976562 194.21875 160.039062 194.382812 160.984375 C 194.457031 161.464844 194.5 161.945312 194.511719 162.425781 C 194.53125 162.816406 194.550781 163.1875 194.597656 163.554688 C 194.679688 164.171875 194.90625 164.996094 195.519531 165.449219 C 195.691406 165.5625 195.875 165.644531 196.074219 165.691406 C 196.273438 165.738281 196.476562 165.746094 196.679688 165.71875 C 196.882812 165.6875 197.074219 165.625 197.253906 165.523438 C 197.433594 165.425781 197.589844 165.296875 197.71875 165.140625 C 198.113281 164.636719 198.195312 163.933594 198.257812 163.136719 C 198.296875 162.621094 198.332031 162.109375 198.367188 161.585938 C 198.457031 160.335938 198.546875 159.042969 198.691406 157.769531 C 198.722656 157.519531 198.800781 157.175781 198.898438 156.777344 C 199.078125 156.003906 199.328125 154.941406 199.199219 154.414062 C 199.191406 154.371094 199.175781 154.332031 199.152344 154.296875 C 199.125 154.25 199.085938 154.210938 199.042969 154.179688 C 198.0625 153.496094 194.464844 155.578125 192.339844 157.203125 C 192.082031 157.386719 191.859375 157.597656 191.664062 157.839844 C 191.609375 157.917969 191.566406 157.996094 191.535156 158.082031 C 191.433594 158.316406 191.472656 158.527344 191.644531 158.710938 L 191.65625 158.710938 L 191.691406 158.730469 C 191.824219 158.765625 191.960938 158.777344 192.101562 158.765625 Z M 191.679688 158.75 Z M 191.679688 158.75 " fill-opacity="1" fill-rule="nonzero"/><path fill="#210006" d="M 220.894531 106.65625 L 220.003906 106.1875 C 220.332031 105.414062 220.3125 104.652344 219.953125 103.894531 C 217.800781 99.105469 210.628906 96.378906 209.222656 95.878906 C 206.921875 95.070312 205.871094 96.433594 205.828125 96.496094 L 205 95.90625 C 205.0625 95.820312 206.511719 93.867188 209.550781 94.9375 C 211.035156 95.457031 218.558594 98.324219 220.875 103.488281 C 221.109375 103.992188 221.226562 104.519531 221.230469 105.070312 C 221.234375 105.625 221.125 106.152344 220.894531 106.65625 Z M 220.894531 106.65625 " fill-opacity="1" fill-rule="nonzero"/><path fill="#210006" d="M 187.472656 199.695312 C 180.128906 199.695312 175.015625 195.738281 174.9375 195.679688 C 174.84375 195.589844 174.792969 195.480469 174.785156 195.351562 C 174.777344 195.222656 174.8125 195.105469 174.890625 195.003906 C 174.972656 194.902344 175.074219 194.84375 175.203125 194.820312 C 175.328125 194.796875 175.449219 194.820312 175.558594 194.886719 C 177.710938 196.429688 180.074219 197.511719 182.652344 198.132812 C 188.390625 199.550781 194 198.445312 199.335938 194.855469 C 199.453125 194.78125 199.578125 194.757812 199.710938 194.789062 C 199.847656 194.816406 199.953125 194.886719 200.027344 195 C 200.105469 195.113281 200.128906 195.234375 200.105469 195.371094 C 200.082031 195.503906 200.015625 195.613281 199.902344 195.691406 C 195.433594 198.695312 191.171875 199.695312 187.472656 199.695312 Z M 187.472656 199.695312 " fill-opacity="1" fill-rule="nonzero"/><g fill="#210006" fill-opacity="1"><g transform="translate(93.587199, 255.374369)"><g><path d="M 14.460938 -22.238281 C 12.03125 -21.851562 9.628906 -21.46875 7.199219 -21.085938 C 4.894531 -20.699219 3.96875 -19.582031 3.710938 -17.277344 C 3.101562 -11.933594 2.464844 -6.589844 1.632812 -1.28125 C 1.152344 1.726562 5.757812 3.039062 6.238281 0 C 6.621094 -2.527344 7.007812 -5.054688 7.328125 -7.582031 C 9.183594 -7.964844 11.007812 -8.160156 12.894531 -8.191406 C 15.964844 -8.222656 15.964844 -13.023438 12.894531 -12.988281 C 11.230469 -12.957031 9.597656 -12.828125 7.964844 -12.574219 C 8 -12.703125 8 -12.863281 8.03125 -13.023438 C 8.125 -13.980469 8.445312 -15.132812 8.382812 -16.09375 C 8.382812 -16.222656 8.382812 -16.316406 8.414062 -16.445312 C 8.765625 -16.476562 9.152344 -16.542969 9.214844 -16.574219 C 11.390625 -16.894531 13.566406 -17.246094 15.742188 -17.597656 C 18.78125 -18.078125 17.46875 -22.683594 14.460938 -22.238281 Z M 14.460938 -22.238281 "/></g></g></g><g fill="#210006" fill-opacity="1"><g transform="translate(110.734507, 255.374369)"><g><path d="M 18.171875 -3.039062 C 16.414062 -5.4375 14.398438 -7.582031 12.09375 -9.4375 C 13.820312 -10.65625 15.261719 -12.351562 15.871094 -14.171875 C 17.085938 -17.820312 13.820312 -21.40625 10.109375 -21.246094 C 6.175781 -21.050781 3.582031 -17.40625 2.878906 -13.855469 C 1.953125 -9.246094 1.953125 -4.351562 1.601562 0.320312 C 1.34375 3.390625 6.144531 3.390625 6.398438 0.320312 C 6.589844 -2.207031 6.78125 -4.734375 7.007812 -7.261719 C 9.726562 -5.472656 12.09375 -3.261719 14.046875 -0.609375 C 15.835938 1.855469 20.027344 -0.542969 18.171875 -3.039062 Z M 11.328125 -15.835938 C 11.453125 -15.324219 10.015625 -14.046875 9.628906 -13.695312 C 8.957031 -13.085938 8.320312 -12.636719 7.488281 -12.542969 C 7.582031 -13.085938 7.710938 -13.628906 7.933594 -14.140625 C 8.160156 -14.75 10.878906 -18.011719 11.328125 -15.835938 Z M 11.328125 -15.835938 "/></g></g></g><g fill="#210006" fill-opacity="1"><g transform="translate(129.065524, 255.374369)"><g><path d="M 13.34375 -6.78125 C 11.132812 -6.878906 8.925781 -6.78125 6.75 -6.589844 C 6.910156 -7.808594 7.101562 -9.023438 7.261719 -10.238281 C 8.351562 -10.238281 9.4375 -10.207031 10.527344 -10.078125 C 11.839844 -9.949219 12.925781 -11.261719 12.925781 -12.476562 C 12.925781 -13.886719 11.839844 -14.75 10.527344 -14.878906 C 9.695312 -14.972656 8.863281 -15.003906 8 -15.039062 C 8.191406 -16.253906 8.414062 -17.5 8.605469 -18.75 C 10.238281 -18.75 11.839844 -18.683594 13.46875 -18.589844 C 16.542969 -18.363281 16.542969 -23.164062 13.46875 -23.386719 C 11.167969 -23.546875 8.832031 -23.582031 6.527344 -23.484375 C 5.632812 -23.484375 4.992188 -23.035156 4.605469 -22.429688 C 4.449219 -22.171875 4.320312 -21.851562 4.253906 -21.5 C 3.199219 -15.613281 2.335938 -9.726562 1.601562 -3.839844 C 1.375 -2.113281 3.296875 -1.3125 4.640625 -1.503906 C 7.519531 -1.984375 10.429688 -2.113281 13.34375 -1.984375 C 16.414062 -1.855469 16.414062 -6.65625 13.34375 -6.78125 Z M 13.34375 -6.78125 "/></g></g></g><g fill="#210006" fill-opacity="1"><g transform="translate(144.51725, 255.374369)"><g><path d="M 14.078125 -19.421875 C 13.566406 -15.964844 12.957031 -12.511719 12.316406 -9.085938 L 9.46875 -15.613281 C 8.636719 -17.566406 5.597656 -16.863281 5.085938 -15.039062 C 3.742188 -10.046875 2.589844 -4.992188 1.632812 0.0625 C 1.054688 3.101562 5.695312 4.382812 6.269531 1.34375 C 6.78125 -1.441406 7.390625 -4.222656 8.03125 -7.007812 C 9.054688 -4.671875 10.046875 -2.367188 11.070312 -0.03125 C 11.902344 1.886719 15.039062 1.3125 15.453125 -0.609375 C 16.734375 -6.398438 17.820312 -12.253906 18.683594 -18.140625 C 19.132812 -21.148438 14.492188 -22.460938 14.078125 -19.421875 Z M 14.078125 -19.421875 "/></g></g></g><g fill="#210006" fill-opacity="1"><g transform="translate(162.944251, 255.374369)"><g><path d="M 14.207031 -7.710938 C 11.070312 -6.816406 5.597656 -6.527344 6.464844 -11.390625 C 7.039062 -14.6875 10.109375 -17.339844 13.46875 -17.085938 C 16.542969 -16.828125 16.542969 -21.628906 13.46875 -21.882812 C 7.359375 -22.363281 1.886719 -16.828125 1.601562 -10.847656 C 1.441406 -7.808594 2.878906 -4.992188 5.566406 -3.457031 C 8.636719 -1.726562 12.253906 -2.175781 15.484375 -3.070312 C 18.460938 -3.933594 17.214844 -8.542969 14.207031 -7.710938 Z M 14.207031 -7.710938 "/></g></g></g><g fill="#210006" fill-opacity="1"><g transform="translate(179.835626, 255.374369)"><g><path d="M 13.695312 -22.398438 C 13.148438 -19.644531 12.703125 -16.894531 12.316406 -14.109375 L 7.871094 -14.109375 C 7.933594 -14.8125 8.03125 -15.484375 8.09375 -16.191406 C 8.285156 -17.628906 8.253906 -19.390625 8.765625 -20.765625 C 9.855469 -23.675781 5.214844 -24.925781 4.128906 -22.042969 C 3.617188 -20.636719 3.617188 -18.878906 3.457031 -17.339844 C 3.230469 -15.675781 3.039062 -13.980469 2.847656 -12.285156 C 2.429688 -8.765625 2.015625 -5.246094 1.601562 -1.726562 C 1.246094 1.34375 6.046875 1.3125 6.398438 -1.726562 C 6.6875 -4.253906 7.007812 -6.78125 7.292969 -9.34375 L 11.710938 -9.34375 C 11.484375 -7.328125 11.292969 -5.34375 11.132812 -3.328125 C 10.910156 -0.257812 15.710938 -0.257812 15.933594 -3.328125 C 16.382812 -9.308594 17.179688 -15.230469 18.332031 -21.117188 C 18.910156 -24.125 14.300781 -25.402344 13.695312 -22.398438 Z M 13.695312 -22.398438 "/></g></g></g><g fill="#210006" fill-opacity="1"><g transform="translate(197.91071, 255.374369)"><g/></g></g><g fill="#210006" fill-opacity="1"><g transform="translate(205.716324, 255.374369)"><g><path d="M 14.460938 -22.238281 C 12.03125 -21.851562 9.628906 -21.46875 7.199219 -21.085938 C 4.894531 -20.699219 3.96875 -19.582031 3.710938 -17.277344 C 3.101562 -11.933594 2.464844 -6.589844 1.632812 -1.28125 C 1.152344 1.726562 5.757812 3.039062 6.238281 0 C 6.621094 -2.527344 7.007812 -5.054688 7.328125 -7.582031 C 9.183594 -7.964844 11.007812 -8.160156 12.894531 -8.191406 C 15.964844 -8.222656 15.964844 -13.023438 12.894531 -12.988281 C 11.230469 -12.957031 9.597656 -12.828125 7.964844 -12.574219 C 8 -12.703125 8 -12.863281 8.03125 -13.023438 C 8.125 -13.980469 8.445312 -15.132812 8.382812 -16.09375 C 8.382812 -16.222656 8.382812 -16.316406 8.414062 -16.445312 C 8.765625 -16.476562 9.152344 -16.542969 9.214844 -16.574219 C 11.390625 -16.894531 13.566406 -17.246094 15.742188 -17.597656 C 18.78125 -18.078125 17.46875 -22.683594 14.460938 -22.238281 Z M 14.460938 -22.238281 "/></g></g></g><g fill="#210006" fill-opacity="1"><g transform="translate(222.863635, 255.374369)"><g><path d="M 18.171875 -3.039062 C 16.414062 -5.4375 14.398438 -7.582031 12.09375 -9.4375 C 13.820312 -10.65625 15.261719 -12.351562 15.871094 -14.171875 C 17.085938 -17.820312 13.820312 -21.40625 10.109375 -21.246094 C 6.175781 -21.050781 3.582031 -17.40625 2.878906 -13.855469 C 1.953125 -9.246094 1.953125 -4.351562 1.601562 0.320312 C 1.34375 3.390625 6.144531 3.390625 6.398438 0.320312 C 6.589844 -2.207031 6.78125 -4.734375 7.007812 -7.261719 C 9.726562 -5.472656 12.09375 -3.261719 14.046875 -0.609375 C 15.835938 1.855469 20.027344 -0.542969 18.171875 -3.039062 Z M 11.328125 -15.835938 C 11.453125 -15.324219 10.015625 -14.046875 9.628906 -13.695312 C 8.957031 -13.085938 8.320312 -12.636719 7.488281 -12.542969 C 7.582031 -13.085938 7.710938 -13.628906 7.933594 -14.140625 C 8.160156 -14.75 10.878906 -18.011719 11.328125 -15.835938 Z M 11.328125 -15.835938 "/></g></g></g><g fill="#210006" fill-opacity="1"><g transform="translate(241.194654, 255.374369)"><g><path d="M 3.039062 -19.707031 C 2.398438 -13.949219 1.917969 -8.160156 1.601562 -2.367188 C 1.40625 0.734375 6.207031 0.703125 6.398438 -2.367188 C 6.71875 -8.160156 7.199219 -13.949219 7.839844 -19.707031 C 8.160156 -22.78125 3.359375 -22.78125 3.039062 -19.707031 Z M 3.039062 -19.707031 "/></g></g></g><g fill="#210006" fill-opacity="1"><g transform="translate(248.744332, 255.374369)"><g><path d="M 13.34375 -6.78125 C 11.132812 -6.878906 8.925781 -6.78125 6.75 -6.589844 C 6.910156 -7.808594 7.101562 -9.023438 7.261719 -10.238281 C 8.351562 -10.238281 9.4375 -10.207031 10.527344 -10.078125 C 11.839844 -9.949219 12.925781 -11.261719 12.925781 -12.476562 C 12.925781 -13.886719 11.839844 -14.75 10.527344 -14.878906 C 9.695312 -14.972656 8.863281 -15.003906 8 -15.039062 C 8.191406 -16.253906 8.414062 -17.5 8.605469 -18.75 C 10.238281 -18.75 11.839844 -18.683594 13.46875 -18.589844 C 16.542969 -18.363281 16.542969 -23.164062 13.46875 -23.386719 C 11.167969 -23.546875 8.832031 -23.582031 6.527344 -23.484375 C 5.632812 -23.484375 4.992188 -23.035156 4.605469 -22.429688 C 4.449219 -22.171875 4.320312 -21.851562 4.253906 -21.5 C 3.199219 -15.613281 2.335938 -9.726562 1.601562 -3.839844 C 1.375 -2.113281 3.296875 -1.3125 4.640625 -1.503906 C 7.519531 -1.984375 10.429688 -2.113281 13.34375 -1.984375 C 16.414062 -1.855469 16.414062 -6.65625 13.34375 -6.78125 Z M 13.34375 -6.78125 "/></g></g></g><g fill="#210006" fill-opacity="1"><g transform="translate(264.196063, 255.374369)"><g><path d="M 11.902344 -13.855469 C 11.070312 -14.429688 9.152344 -14.941406 8.765625 -15.933594 C 8.191406 -17.5 10.335938 -18.621094 11.421875 -19.132812 C 14.207031 -20.445312 11.773438 -24.570312 8.992188 -23.261719 C 4.703125 -21.246094 1.726562 -15.550781 6.015625 -11.839844 C 7.519531 -10.527344 10.496094 -10.015625 10.8125 -7.648438 C 10.941406 -6.65625 10.460938 -5.726562 9.566406 -5.34375 C 8.957031 -5.085938 6.71875 -4.734375 6.207031 -5.4375 C 4.351562 -7.871094 0.191406 -5.472656 2.046875 -3.007812 C 5.824219 1.984375 14.84375 -0.128906 15.550781 -6.527344 C 15.871094 -9.46875 14.332031 -12.253906 11.902344 -13.855469 Z M 11.902344 -13.855469 "/></g></g></g><g fill="#210006" fill-opacity="1"><g transform="translate(118.247981, 277.207686)"><g><path d="M 1.375 0 C 1.28125 0 1.195312 -0.03125 1.125 -0.09375 C 1.0625 -0.164062 1.03125 -0.25 1.03125 -0.34375 L 1.03125 -9.453125 C 1.03125 -9.554688 1.0625 -9.640625 1.125 -9.703125 C 1.195312 -9.765625 1.28125 -9.796875 1.375 -9.796875 L 5.203125 -9.796875 C 5.960938 -9.796875 6.617188 -9.675781 7.171875 -9.4375 C 7.734375 -9.207031 8.171875 -8.859375 8.484375 -8.390625 C 8.796875 -7.921875 8.953125 -7.332031 8.953125 -6.625 C 8.953125 -5.925781 8.796875 -5.34375 8.484375 -4.875 C 8.171875 -4.414062 7.734375 -4.070312 7.171875 -3.84375 C 6.617188 -3.625 5.960938 -3.515625 5.203125 -3.515625 L 3.328125 -3.515625 L 3.328125 -0.34375 C 3.328125 -0.25 3.296875 -0.164062 3.234375 -0.09375 C 3.171875 -0.03125 3.085938 0 2.984375 0 Z M 3.296875 -5.25 L 5.140625 -5.25 C 5.617188 -5.25 5.988281 -5.363281 6.25 -5.59375 C 6.507812 -5.832031 6.640625 -6.179688 6.640625 -6.640625 C 6.640625 -7.054688 6.519531 -7.394531 6.28125 -7.65625 C 6.039062 -7.914062 5.660156 -8.046875 5.140625 -8.046875 L 3.296875 -8.046875 Z M 3.296875 -5.25 "/></g></g></g><g fill="#210006" fill-opacity="1"><g transform="translate(130.394763, 277.207686)"><g><path d="M 1.375 0 C 1.28125 0 1.195312 -0.03125 1.125 -0.09375 C 1.0625 -0.164062 1.03125 -0.25 1.03125 -0.34375 L 1.03125 -9.453125 C 1.03125 -9.554688 1.0625 -9.640625 1.125 -9.703125 C 1.195312 -9.765625 1.28125 -9.796875 1.375 -9.796875 L 2.984375 -9.796875 C 3.078125 -9.796875 3.15625 -9.765625 3.21875 -9.703125 C 3.28125 -9.640625 3.3125 -9.554688 3.3125 -9.453125 L 3.3125 -0.34375 C 3.3125 -0.25 3.28125 -0.164062 3.21875 -0.09375 C 3.15625 -0.03125 3.078125 0 2.984375 0 Z M 1.375 0 "/></g></g></g><g fill="#210006" fill-opacity="1"><g transform="translate(137.546337, 277.207686)"><g><path d="M 0.875 0 C 0.78125 0 0.695312 -0.03125 0.625 -0.09375 C 0.5625 -0.164062 0.53125 -0.25 0.53125 -0.34375 L 0.53125 -1.53125 C 0.53125 -1.65625 0.554688 -1.757812 0.609375 -1.84375 C 0.671875 -1.925781 0.710938 -1.988281 0.734375 -2.03125 L 5.453125 -7.921875 L 1.015625 -7.921875 C 0.921875 -7.921875 0.835938 -7.953125 0.765625 -8.015625 C 0.703125 -8.085938 0.671875 -8.175781 0.671875 -8.28125 L 0.671875 -9.453125 C 0.671875 -9.554688 0.703125 -9.640625 0.765625 -9.703125 C 0.835938 -9.765625 0.921875 -9.796875 1.015625 -9.796875 L 7.890625 -9.796875 C 7.992188 -9.796875 8.078125 -9.765625 8.140625 -9.703125 C 8.210938 -9.640625 8.25 -9.554688 8.25 -9.453125 L 8.25 -8.28125 C 8.25 -8.1875 8.226562 -8.097656 8.1875 -8.015625 C 8.15625 -7.929688 8.113281 -7.863281 8.0625 -7.8125 L 3.484375 -1.890625 L 8.046875 -1.890625 C 8.148438 -1.890625 8.234375 -1.851562 8.296875 -1.78125 C 8.367188 -1.71875 8.40625 -1.640625 8.40625 -1.546875 L 8.40625 -0.34375 C 8.40625 -0.25 8.367188 -0.164062 8.296875 -0.09375 C 8.234375 -0.03125 8.148438 0 8.046875 0 Z M 0.875 0 "/></g></g></g><g fill="#210006" fill-opacity="1"><g transform="translate(149.273363, 277.207686)"><g><path d="M 0.875 0 C 0.78125 0 0.695312 -0.03125 0.625 -0.09375 C 0.5625 -0.164062 0.53125 -0.25 0.53125 -0.34375 L 0.53125 -1.53125 C 0.53125 -1.65625 0.554688 -1.757812 0.609375 -1.84375 C 0.671875 -1.925781 0.710938 -1.988281 0.734375 -2.03125 L 5.453125 -7.921875 L 1.015625 -7.921875 C 0.921875 -7.921875 0.835938 -7.953125 0.765625 -8.015625 C 0.703125 -8.085938 0.671875 -8.175781 0.671875 -8.28125 L 0.671875 -9.453125 C 0.671875 -9.554688 0.703125 -9.640625 0.765625 -9.703125 C 0.835938 -9.765625 0.921875 -9.796875 1.015625 -9.796875 L 7.890625 -9.796875 C 7.992188 -9.796875 8.078125 -9.765625 8.140625 -9.703125 C 8.210938 -9.640625 8.25 -9.554688 8.25 -9.453125 L 8.25 -8.28125 C 8.25 -8.1875 8.226562 -8.097656 8.1875 -8.015625 C 8.15625 -7.929688 8.113281 -7.863281 8.0625 -7.8125 L 3.484375 -1.890625 L 8.046875 -1.890625 C 8.148438 -1.890625 8.234375 -1.851562 8.296875 -1.78125 C 8.367188 -1.71875 8.40625 -1.640625 8.40625 -1.546875 L 8.40625 -0.34375 C 8.40625 -0.25 8.367188 -0.164062 8.296875 -0.09375 C 8.234375 -0.03125 8.148438 0 8.046875 0 Z M 0.875 0 "/></g></g></g><g fill="#210006" fill-opacity="1"><g transform="translate(161.00039, 277.207686)"><g><path d="M 0.46875 0 C 0.382812 0 0.3125 -0.03125 0.25 -0.09375 C 0.195312 -0.15625 0.171875 -0.222656 0.171875 -0.296875 C 0.171875 -0.335938 0.175781 -0.378906 0.1875 -0.421875 L 3.515625 -9.421875 C 3.546875 -9.523438 3.601562 -9.613281 3.6875 -9.6875 C 3.769531 -9.757812 3.882812 -9.796875 4.03125 -9.796875 L 5.828125 -9.796875 C 5.972656 -9.796875 6.085938 -9.757812 6.171875 -9.6875 C 6.253906 -9.613281 6.316406 -9.523438 6.359375 -9.421875 L 9.671875 -0.421875 C 9.691406 -0.378906 9.703125 -0.335938 9.703125 -0.296875 C 9.703125 -0.222656 9.671875 -0.15625 9.609375 -0.09375 C 9.546875 -0.03125 9.472656 0 9.390625 0 L 7.921875 0 C 7.796875 0 7.695312 -0.03125 7.625 -0.09375 C 7.5625 -0.164062 7.519531 -0.226562 7.5 -0.28125 L 6.90625 -1.84375 L 2.953125 -1.84375 L 2.359375 -0.28125 C 2.335938 -0.226562 2.296875 -0.164062 2.234375 -0.09375 C 2.171875 -0.03125 2.070312 0 1.9375 0 Z M 3.484375 -3.65625 L 6.375 -3.65625 L 4.921875 -7.671875 Z M 3.484375 -3.65625 "/></g></g></g><g fill="#210006" fill-opacity="1"><g transform="translate(173.650897, 277.207686)"><g/></g></g><g fill="#210006" fill-opacity="1"><g transform="translate(179.543173, 277.207686)"><g><path d="M 4.5625 0.140625 C 3.664062 0.140625 2.914062 0.0078125 2.3125 -0.25 C 1.707031 -0.507812 1.25 -0.847656 0.9375 -1.265625 C 0.632812 -1.691406 0.476562 -2.144531 0.46875 -2.625 C 0.46875 -2.707031 0.492188 -2.773438 0.546875 -2.828125 C 0.597656 -2.878906 0.664062 -2.90625 0.75 -2.90625 L 2.265625 -2.90625 C 2.390625 -2.90625 2.484375 -2.878906 2.546875 -2.828125 C 2.609375 -2.785156 2.671875 -2.726562 2.734375 -2.65625 C 2.796875 -2.488281 2.898438 -2.328125 3.046875 -2.171875 C 3.191406 -2.023438 3.382812 -1.90625 3.625 -1.8125 C 3.875 -1.726562 4.1875 -1.6875 4.5625 -1.6875 C 5.164062 -1.6875 5.617188 -1.78125 5.921875 -1.96875 C 6.234375 -2.164062 6.390625 -2.429688 6.390625 -2.765625 C 6.390625 -3.003906 6.304688 -3.195312 6.140625 -3.34375 C 5.972656 -3.488281 5.710938 -3.625 5.359375 -3.75 C 5.015625 -3.875 4.550781 -4 3.96875 -4.125 C 3.269531 -4.289062 2.675781 -4.488281 2.1875 -4.71875 C 1.695312 -4.957031 1.328125 -5.265625 1.078125 -5.640625 C 0.835938 -6.023438 0.71875 -6.5 0.71875 -7.0625 C 0.71875 -7.613281 0.867188 -8.109375 1.171875 -8.546875 C 1.484375 -8.984375 1.914062 -9.320312 2.46875 -9.5625 C 3.03125 -9.8125 3.703125 -9.9375 4.484375 -9.9375 C 5.109375 -9.9375 5.660156 -9.851562 6.140625 -9.6875 C 6.617188 -9.519531 7.019531 -9.300781 7.34375 -9.03125 C 7.664062 -8.757812 7.910156 -8.46875 8.078125 -8.15625 C 8.242188 -7.851562 8.332031 -7.554688 8.34375 -7.265625 C 8.34375 -7.179688 8.316406 -7.109375 8.265625 -7.046875 C 8.210938 -6.984375 8.140625 -6.953125 8.046875 -6.953125 L 6.484375 -6.953125 C 6.390625 -6.953125 6.304688 -6.96875 6.234375 -7 C 6.160156 -7.039062 6.09375 -7.109375 6.03125 -7.203125 C 5.988281 -7.460938 5.828125 -7.679688 5.546875 -7.859375 C 5.273438 -8.035156 4.921875 -8.125 4.484375 -8.125 C 4.023438 -8.125 3.660156 -8.039062 3.390625 -7.875 C 3.128906 -7.707031 3 -7.453125 3 -7.109375 C 3 -6.890625 3.066406 -6.703125 3.203125 -6.546875 C 3.347656 -6.390625 3.578125 -6.253906 3.890625 -6.140625 C 4.210938 -6.023438 4.644531 -5.898438 5.1875 -5.765625 C 5.988281 -5.597656 6.644531 -5.394531 7.15625 -5.15625 C 7.675781 -4.914062 8.054688 -4.613281 8.296875 -4.25 C 8.546875 -3.882812 8.671875 -3.421875 8.671875 -2.859375 C 8.671875 -2.234375 8.492188 -1.695312 8.140625 -1.25 C 7.796875 -0.800781 7.316406 -0.457031 6.703125 -0.21875 C 6.085938 0.0195312 5.375 0.140625 4.5625 0.140625 Z M 4.5625 0.140625 "/></g></g></g><g fill="#210006" fill-opacity="1"><g transform="translate(191.466085, 277.207686)"><g><path d="M 3.546875 0 C 3.441406 0 3.351562 -0.03125 3.28125 -0.09375 C 3.21875 -0.164062 3.1875 -0.25 3.1875 -0.34375 L 3.1875 -7.84375 L 0.640625 -7.84375 C 0.546875 -7.84375 0.46875 -7.875 0.40625 -7.9375 C 0.34375 -8 0.3125 -8.082031 0.3125 -8.1875 L 0.3125 -9.453125 C 0.3125 -9.554688 0.34375 -9.640625 0.40625 -9.703125 C 0.46875 -9.765625 0.546875 -9.796875 0.640625 -9.796875 L 7.984375 -9.796875 C 8.085938 -9.796875 8.171875 -9.765625 8.234375 -9.703125 C 8.296875 -9.640625 8.328125 -9.554688 8.328125 -9.453125 L 8.328125 -8.1875 C 8.328125 -8.082031 8.296875 -8 8.234375 -7.9375 C 8.171875 -7.875 8.085938 -7.84375 7.984375 -7.84375 L 5.453125 -7.84375 L 5.453125 -0.34375 C 5.453125 -0.25 5.414062 -0.164062 5.34375 -0.09375 C 5.28125 -0.03125 5.195312 0 5.09375 0 Z M 3.546875 0 "/></g></g></g><g fill="#210006" fill-opacity="1"><g transform="translate(202.89927, 277.207686)"><g><path d="M 0.46875 0 C 0.382812 0 0.3125 -0.03125 0.25 -0.09375 C 0.195312 -0.15625 0.171875 -0.222656 0.171875 -0.296875 C 0.171875 -0.335938 0.175781 -0.378906 0.1875 -0.421875 L 3.515625 -9.421875 C 3.546875 -9.523438 3.601562 -9.613281 3.6875 -9.6875 C 3.769531 -9.757812 3.882812 -9.796875 4.03125 -9.796875 L 5.828125 -9.796875 C 5.972656 -9.796875 6.085938 -9.757812 6.171875 -9.6875 C 6.253906 -9.613281 6.316406 -9.523438 6.359375 -9.421875 L 9.671875 -0.421875 C 9.691406 -0.378906 9.703125 -0.335938 9.703125 -0.296875 C 9.703125 -0.222656 9.671875 -0.15625 9.609375 -0.09375 C 9.546875 -0.03125 9.472656 0 9.390625 0 L 7.921875 0 C 7.796875 0 7.695312 -0.03125 7.625 -0.09375 C 7.5625 -0.164062 7.519531 -0.226562 7.5 -0.28125 L 6.90625 -1.84375 L 2.953125 -1.84375 L 2.359375 -0.28125 C 2.335938 -0.226562 2.296875 -0.164062 2.234375 -0.09375 C 2.171875 -0.03125 2.070312 0 1.9375 0 Z M 3.484375 -3.65625 L 6.375 -3.65625 L 4.921875 -7.671875 Z M 3.484375 -3.65625 "/></g></g></g><g fill="#210006" fill-opacity="1"><g transform="translate(215.549774, 277.207686)"><g><path d="M 3.546875 0 C 3.441406 0 3.351562 -0.03125 3.28125 -0.09375 C 3.21875 -0.164062 3.1875 -0.25 3.1875 -0.34375 L 3.1875 -7.84375 L 0.640625 -7.84375 C 0.546875 -7.84375 0.46875 -7.875 0.40625 -7.9375 C 0.34375 -8 0.3125 -8.082031 0.3125 -8.1875 L 0.3125 -9.453125 C 0.3125 -9.554688 0.34375 -9.640625 0.40625 -9.703125 C 0.46875 -9.765625 0.546875 -9.796875 0.640625 -9.796875 L 7.984375 -9.796875 C 8.085938 -9.796875 8.171875 -9.765625 8.234375 -9.703125 C 8.296875 -9.640625 8.328125 -9.554688 8.328125 -9.453125 L 8.328125 -8.1875 C 8.328125 -8.082031 8.296875 -8 8.234375 -7.9375 C 8.171875 -7.875 8.085938 -7.84375 7.984375 -7.84375 L 5.453125 -7.84375 L 5.453125 -0.34375 C 5.453125 -0.25 5.414062 -0.164062 5.34375 -0.09375 C 5.28125 -0.03125 5.195312 0 5.09375 0 Z M 3.546875 0 "/></g></g></g><g fill="#210006" fill-opacity="1"><g transform="translate(226.982959, 277.207686)"><g><path d="M 1.375 0 C 1.28125 0 1.195312 -0.03125 1.125 -0.09375 C 1.0625 -0.164062 1.03125 -0.25 1.03125 -0.34375 L 1.03125 -9.453125 C 1.03125 -9.554688 1.0625 -9.640625 1.125 -9.703125 C 1.195312 -9.765625 1.28125 -9.796875 1.375 -9.796875 L 2.984375 -9.796875 C 3.078125 -9.796875 3.15625 -9.765625 3.21875 -9.703125 C 3.28125 -9.640625 3.3125 -9.554688 3.3125 -9.453125 L 3.3125 -0.34375 C 3.3125 -0.25 3.28125 -0.164062 3.21875 -0.09375 C 3.15625 -0.03125 3.078125 0 2.984375 0 Z M 1.375 0 "/></g></g></g><g fill="#210006" fill-opacity="1"><g transform="translate(234.134531, 277.207686)"><g><path d="M 4.921875 0.140625 C 4.078125 0.140625 3.347656 0 2.734375 -0.28125 C 2.117188 -0.5625 1.632812 -0.984375 1.28125 -1.546875 C 0.9375 -2.109375 0.753906 -2.820312 0.734375 -3.6875 C 0.722656 -4.082031 0.71875 -4.476562 0.71875 -4.875 C 0.71875 -5.269531 0.722656 -5.675781 0.734375 -6.09375 C 0.753906 -6.925781 0.9375 -7.628906 1.28125 -8.203125 C 1.632812 -8.785156 2.125 -9.21875 2.75 -9.5 C 3.375 -9.789062 4.097656 -9.9375 4.921875 -9.9375 C 5.742188 -9.9375 6.460938 -9.789062 7.078125 -9.5 C 7.703125 -9.21875 8.191406 -8.785156 8.546875 -8.203125 C 8.910156 -7.628906 9.101562 -6.925781 9.125 -6.09375 C 9.144531 -5.675781 9.15625 -5.269531 9.15625 -4.875 C 9.15625 -4.476562 9.144531 -4.082031 9.125 -3.6875 C 9.101562 -2.820312 8.914062 -2.109375 8.5625 -1.546875 C 8.207031 -0.984375 7.722656 -0.5625 7.109375 -0.28125 C 6.492188 0 5.765625 0.140625 4.921875 0.140625 Z M 4.921875 -1.6875 C 5.460938 -1.6875 5.910156 -1.847656 6.265625 -2.171875 C 6.617188 -2.492188 6.800781 -3.019531 6.8125 -3.75 C 6.832031 -4.164062 6.84375 -4.550781 6.84375 -4.90625 C 6.84375 -5.269531 6.832031 -5.648438 6.8125 -6.046875 C 6.800781 -6.535156 6.710938 -6.929688 6.546875 -7.234375 C 6.378906 -7.546875 6.15625 -7.769531 5.875 -7.90625 C 5.601562 -8.050781 5.285156 -8.125 4.921875 -8.125 C 4.566406 -8.125 4.25 -8.050781 3.96875 -7.90625 C 3.695312 -7.769531 3.472656 -7.546875 3.296875 -7.234375 C 3.128906 -6.929688 3.039062 -6.535156 3.03125 -6.046875 C 3.019531 -5.648438 3.015625 -5.269531 3.015625 -4.90625 C 3.015625 -4.550781 3.019531 -4.164062 3.03125 -3.75 C 3.050781 -3.019531 3.234375 -2.492188 3.578125 -2.171875 C 3.929688 -1.847656 4.378906 -1.6875 4.921875 -1.6875 Z M 4.921875 -1.6875 "/></g></g></g><g fill="#210006" fill-opacity="1"><g transform="translate(246.77104, 277.207686)"><g><path d="M 1.375 0 C 1.28125 0 1.195312 -0.03125 1.125 -0.09375 C 1.0625 -0.164062 1.03125 -0.25 1.03125 -0.34375 L 1.03125 -9.453125 C 1.03125 -9.554688 1.0625 -9.640625 1.125 -9.703125 C 1.195312 -9.765625 1.28125 -9.796875 1.375 -9.796875 L 2.65625 -9.796875 C 2.800781 -9.796875 2.90625 -9.765625 2.96875 -9.703125 C 3.03125 -9.640625 3.070312 -9.585938 3.09375 -9.546875 L 6.8125 -3.71875 L 6.8125 -9.453125 C 6.8125 -9.554688 6.84375 -9.640625 6.90625 -9.703125 C 6.976562 -9.765625 7.066406 -9.796875 7.171875 -9.796875 L 8.59375 -9.796875 C 8.695312 -9.796875 8.78125 -9.765625 8.84375 -9.703125 C 8.914062 -9.640625 8.953125 -9.554688 8.953125 -9.453125 L 8.953125 -0.34375 C 8.953125 -0.25 8.914062 -0.164062 8.84375 -0.09375 C 8.78125 -0.03125 8.695312 0 8.59375 0 L 7.3125 0 C 7.164062 0 7.0625 -0.03125 7 -0.09375 C 6.9375 -0.164062 6.894531 -0.21875 6.875 -0.25 L 3.15625 -5.890625 L 3.15625 -0.34375 C 3.15625 -0.25 3.125 -0.164062 3.0625 -0.09375 C 3 -0.03125 2.914062 0 2.8125 0 Z M 1.375 0 "/></g></g></g></svg>