<svg xmlns="http://www.w3.org/2000/svg" xmlns:xlink="http://www.w3.org/1999/xlink" width="500" zoomAndPan="magnify" viewBox="0 0 375 374.999991" height="500" preserveAspectRatio="xMidYMid meet" version="1.0"><defs><g/><clipPath id="becd3264fc"><path d="M 164 104.59375 L 191 104.59375 L 191 133 L 164 133 Z M 164 104.59375 " clip-rule="nonzero"/></clipPath><clipPath id="7d6d5f4126"><path d="M 113.03125 150.664062 L 262.207031 150.664062 L 262.207031 198.34375 L 113.03125 198.34375 Z M 113.03125 150.664062 " clip-rule="nonzero"/></clipPath></defs><g clip-path="url(#becd3264fc)"><path fill="#92410f" d="M 177.371094 108.769531 C 177.285156 108.105469 176.988281 107.210938 176.613281 106.792969 C 175.191406 105.203125 172.917969 106.230469 171.800781 107.171875 C 171.265625 107.621094 170.710938 108.621094 170.195312 108.675781 C 169.523438 108.746094 169.199219 107.945312 168.496094 108.015625 C 167.390625 108.128906 166.796875 110.246094 166.699219 111.59375 C 166.515625 114.164062 167.011719 116.4375 167.644531 118.273438 C 167.417969 118.796875 166.59375 118.730469 166.230469 119.117188 C 165.898438 121.003906 167.296875 124.417969 168.589844 125.988281 C 168.9375 126.40625 170.625 127.136719 170.476562 127.679688 C 170.367188 128.089844 169.738281 128.089844 169.441406 128.058594 C 171.660156 130.097656 175.011719 131.53125 178.597656 131.160156 C 179.777344 131.039062 181.316406 130.53125 182.5625 130.3125 C 183.8125 130.097656 186.71875 127.597656 187.285156 126.832031 C 187.527344 126.507812 188.058594 125.441406 187.945312 125.421875 C 187.261719 125.492188 187.042969 126.027344 186.339844 126.082031 C 185.367188 123.941406 184.082031 126.664062 182.5625 126.832031 C 181.6875 126.929688 180.445312 126.730469 180.203125 125.890625 C 179.980469 125.117188 180.414062 123.792969 180.675781 122.882812 C 181.164062 121.191406 182.175781 119.804688 180.957031 118.273438 C 180.082031 118.308594 179.894531 119.03125 178.976562 119.023438 C 178.464844 117.867188 179.359375 116.113281 179.449219 114.414062 C 179.507812 113.308594 179.386719 112.597656 178.976562 111.96875 C 178.410156 111.960938 178.164062 112.695312 177.652344 112.4375 C 176.90625 111.324219 177.515625 109.894531 177.371094 108.769531 Z M 178.503906 110.652344 C 181.253906 110.660156 180.714844 115.007812 180.203125 117.144531 C 180.382812 117.257812 181.070312 117.066406 181.527344 117.144531 C 183.953125 119.207031 181.585938 122.707031 181.335938 125.421875 C 183.320312 126.578125 184.882812 122.675781 186.71875 124.859375 C 187.199219 124.519531 187.925781 124.429688 188.796875 124.480469 C 190.058594 124.839844 190.703125 127.195312 189.175781 127.773438 C 188.734375 127.804688 188.519531 127.609375 188.511719 127.210938 C 187.128906 128.535156 185.550781 130.53125 183.320312 131.347656 C 182.699219 131.574219 181.816406 131.636719 181.054688 131.820312 C 176.320312 132.953125 170.753906 131.636719 168.304688 128.433594 C 168.355469 128.105469 168.164062 127.539062 168.496094 127.492188 C 167.429688 126.21875 164.679688 122.292969 164.90625 119.683594 C 164.992188 118.699219 165.5625 118.230469 166.324219 117.707031 C 164.800781 114.457031 165.160156 104.890625 169.910156 107.359375 C 171.441406 106.25 172.476562 104.59375 174.914062 104.820312 C 177.640625 105.070312 178.84375 107.464844 178.503906 110.652344 " fill-opacity="1" fill-rule="evenodd"/></g><path fill="#92410f" d="M 173.6875 113.097656 C 173.792969 113.121094 173.753906 113.285156 173.878906 113.285156 C 173.359375 119.269531 173.957031 125.144531 177.277344 127.960938 C 177.757812 128.371094 178.433594 128.402344 178.882812 128.902344 C 176.960938 129.417969 175.660156 127.351562 174.726562 125.609375 C 173.078125 122.539062 172.085938 117.039062 173.6875 113.097656 " fill-opacity="1" fill-rule="evenodd"/><path fill="#92410f" d="M 175.859375 119.683594 C 175.796875 120.105469 176.023438 121.539062 175.765625 121.847656 C 174.867188 121.53125 175.453125 120.078125 175.859375 119.683594 " fill-opacity="1" fill-rule="evenodd"/><path fill="#92410f" d="M 168.871094 122.503906 C 169.375 122.789062 169.84375 123.105469 170.289062 123.445312 C 169.992188 124.304688 168.425781 123.269531 168.871094 122.503906 " fill-opacity="1" fill-rule="evenodd"/><path fill="#92410f" d="M 209.570312 137.089844 C 209.160156 137.5625 209.101562 138.316406 208.25 138.3125 C 207.839844 138.023438 208.378906 137.324219 207.964844 136.996094 C 206.511719 137.359375 205.464844 138.308594 204.472656 139.15625 C 203.464844 140.015625 202.585938 141.074219 201.355469 141.699219 C 200.898438 141.351562 200.980469 140.71875 200.410156 140.570312 C 199.429688 140.308594 198.269531 141.300781 197.578125 141.792969 C 195.125 143.539062 192.808594 145.75 190.589844 146.96875 C 188.847656 145.773438 186.808594 147.488281 185.679688 148.378906 C 189.378906 148.984375 190.988281 147.976562 193.234375 146.683594 C 194.621094 145.882812 197.257812 144.074219 198.238281 145.835938 C 200.0625 144.113281 201.425781 141.925781 204.847656 141.792969 C 205.867188 142.964844 206.210938 141.5 206.925781 140.476562 C 207.9375 139.023438 209.015625 138.644531 210.515625 137.839844 C 211.625 137.246094 212.828125 136.4375 213.722656 137.558594 C 215.488281 135.144531 217.707031 132.683594 218.917969 130.03125 C 215.371094 131.863281 211.996094 134.273438 209.570312 137.089844 Z M 223.542969 137.652344 C 223.390625 137.046875 224.949219 135.203125 225.246094 134.078125 C 226.128906 130.714844 223.964844 128.90625 220.429688 129.46875 C 219.332031 131.617188 217.929688 133.570312 216.460938 135.582031 C 215.945312 136.289062 214.34375 138.789062 213.628906 138.78125 C 213.097656 138.777344 212.929688 138.007812 212.496094 137.933594 C 211.84375 137.824219 210.566406 138.730469 209.949219 139.0625 C 207.863281 140.1875 207.324219 142.144531 205.605469 143.578125 C 204.890625 143.25 205.109375 142.769531 204.472656 142.640625 C 203.519531 142.441406 201.746094 143.597656 200.695312 144.519531 C 199.65625 145.429688 197.859375 148.464844 197.199219 145.933594 C 194.28125 146.210938 192.621094 148.988281 189.550781 149.320312 C 187.917969 149.496094 186.273438 149.417969 185.019531 149.128906 C 183.882812 148.871094 182.949219 148.074219 181.714844 148 C 181.625 148.320312 181.449219 148.554688 181.527344 149.035156 C 181.847656 149.308594 182.410156 149.347656 182.847656 149.507812 C 183.089844 149.671875 182.984375 150.1875 183.226562 150.351562 C 187.375 154.007812 196.878906 155.453125 203.335938 152.988281 C 203.632812 152.808594 203.703125 152.410156 204.09375 152.328125 C 206.863281 152.9375 210.035156 152.105469 212.78125 151.484375 C 215.140625 150.945312 217.453125 150.292969 218.539062 148.753906 C 218.226562 148.535156 217.65625 148.570312 217.691406 148 C 220.792969 145.589844 224.917969 143.953125 225.433594 139.0625 C 225.390625 138.285156 223.730469 138.371094 223.542969 137.652344 Z M 224.960938 137.183594 C 225.660156 137.746094 226.417969 138.0625 226.566406 139.0625 C 227.179688 143.210938 221.585938 146.417969 219.484375 148.097656 C 219.542969 148.445312 219.742188 148.65625 219.671875 149.128906 C 216.832031 152.710938 210.363281 153.636719 204.472656 153.550781 C 200.636719 155.617188 194.398438 155.976562 189.644531 154.679688 C 186.265625 153.757812 183.558594 152.652344 181.902344 150.257812 C 180.527344 150.199219 180.28125 148.75 180.675781 147.4375 C 181.609375 146.382812 183.261719 147.324219 184.453125 147.625 C 185.964844 146.957031 187.992188 144.625 190.589844 145.648438 C 192.140625 144.792969 193.390625 143.5 194.933594 142.355469 C 196.316406 141.335938 198.289062 139.058594 200.597656 139.441406 C 201 139.507812 201.410156 140.089844 201.636719 140.097656 C 202.082031 140.113281 204.007812 138.050781 204.375 137.746094 C 205.675781 136.667969 207.234375 135.253906 208.8125 136.242188 C 210.296875 134.890625 212.050781 132.988281 214.195312 131.445312 C 216.65625 129.675781 220.601562 126.921875 224.300781 128.714844 C 227.128906 130.089844 227.0625 134.617188 224.960938 137.183594 " fill-opacity="1" fill-rule="evenodd"/><path fill="#92410f" d="M 217.597656 139.0625 C 217.5 139.675781 216.902344 140.230469 216.273438 140.003906 C 216.261719 139.300781 217.175781 139.023438 217.597656 139.0625 " fill-opacity="1" fill-rule="evenodd"/><path fill="#92410f" d="M 214.574219 139.910156 C 214.683594 139.894531 214.742188 139.929688 214.761719 140.003906 C 214.503906 140.96875 214.097656 141.785156 213.15625 142.074219 C 212.992188 141.085938 214.023438 140.5 214.574219 139.910156 " fill-opacity="1" fill-rule="evenodd"/><path fill="#92410f" d="M 193.046875 150.542969 C 198.546875 151.09375 203.371094 148.417969 207.207031 146.496094 C 210.878906 144.65625 214.519531 142.71875 218.351562 141.417969 C 218.414062 141.417969 218.476562 141.417969 218.539062 141.417969 C 215.277344 143.179688 211.777344 145.136719 208.058594 146.96875 C 204.492188 148.722656 200.542969 150.929688 196.351562 151.292969 C 195.140625 151.398438 193.382812 151.53125 193.046875 150.542969 " fill-opacity="1" fill-rule="evenodd"/><path fill="#92410f" d="M 215.046875 146.027344 C 215.558594 145.964844 215.757812 146.359375 215.613281 146.683594 C 215.257812 146.914062 214.742188 146.433594 215.046875 146.027344 " fill-opacity="1" fill-rule="evenodd"/><path fill="#92410f" d="M 212.308594 147.25 C 212.714844 147.3125 212.675781 147.820312 213.160156 147.8125 C 212.910156 148.765625 211.445312 147.683594 212.308594 147.25 " fill-opacity="1" fill-rule="evenodd"/><g clip-path="url(#7d6d5f4126)"><path fill="#92410f" d="M 235.0625 192.5 C 221.757812 194.472656 206.125 195.511719 190.496094 195.511719 C 176.742188 195.511719 162.898438 195.179688 150.554688 193.820312 C 148.816406 193.628906 147.148438 193.238281 145.457031 193.347656 C 146.222656 194.863281 148.300781 194.816406 149.800781 194.949219 C 151.550781 195.105469 153.410156 195.496094 155.179688 195.605469 C 158.75 195.832031 162.558594 196.3125 166.226562 196.640625 C 169.960938 196.976562 173.777344 196.9375 177.652344 197.113281 C 189.128906 197.632812 201.011719 197.367188 212.496094 196.453125 C 216.070312 196.167969 219.796875 195.980469 223.640625 195.511719 C 225.191406 195.324219 226.976562 194.875 228.832031 194.664062 C 231.753906 194.332031 234.515625 194.105469 235.347656 192.40625 C 235.234375 192.449219 235.210938 192.480469 235.0625 192.5 Z M 155.277344 185.820312 C 159.921875 186.480469 165.085938 187.171875 169.722656 187.796875 C 170.0625 187.835938 169.851562 187.625 169.628906 187.703125 C 159.78125 184.53125 151.507812 179.792969 146.777344 171.523438 C 137.339844 172.945312 127.902344 173.957031 120.054688 177.167969 C 118.023438 178 114.105469 179.625 114.105469 182.058594 C 114.105469 184.382812 117.769531 185.925781 120.054688 186.855469 C 127.746094 189.988281 137.515625 191.511719 146.683594 192.597656 C 172.175781 195.617188 203.039062 195.515625 228.550781 192.5 C 237.957031 191.390625 247.484375 189.988281 255.175781 186.855469 C 257.410156 185.949219 261.207031 184.425781 261.125 181.964844 C 261.039062 179.332031 256.386719 177.734375 254.421875 176.980469 C 246.417969 173.914062 237.296875 172.5625 227.699219 171.425781 C 226.773438 171.320312 225.394531 171.046875 224.960938 171.144531 C 224.539062 171.242188 223.867188 172.234375 223.355469 172.839844 C 222.746094 173.554688 222.136719 174.085938 221.65625 174.53125 C 213.417969 182.160156 201.800781 185.929688 188.605469 188.363281 C 203.101562 187.28125 217.242188 185.34375 230.816406 183.660156 C 224.125 185.339844 216.640625 186.128906 209.003906 186.953125 C 201.429688 187.765625 193.648438 188.808594 185.964844 189.117188 C 177.914062 189.4375 170.074219 188.640625 162.734375 187.421875 C 155.417969 186.207031 148.082031 185.628906 142.621094 182.53125 C 146.644531 183.535156 150.757812 185.183594 155.277344 185.820312 Z M 202.960938 170.957031 C 204.359375 171.703125 204.710938 173.269531 205.886719 174.0625 C 206.488281 174.46875 207.40625 174.589844 208.246094 174.816406 C 209.453125 175.132812 210.253906 175.558594 211.457031 175.472656 C 214.789062 175.238281 218.730469 172.65625 220.332031 170.769531 C 213.929688 170.15625 206.890625 169.675781 200.222656 169.640625 C 201.214844 170.0625 201.6875 171.070312 202.960938 170.957031 Z M 169.0625 158.820312 C 167.019531 157.660156 165.082031 156.046875 163.394531 155.246094 C 162.949219 155.207031 162.964844 155.632812 162.453125 155.527344 C 160.777344 154.652344 158.621094 152.859375 156.691406 152.519531 C 156.078125 152.410156 155.5625 153.34375 155.652344 153.835938 C 155.769531 154.457031 157.386719 155.59375 157.917969 156.09375 C 158.835938 156.949219 159.4375 157.675781 159.996094 158.632812 C 160.59375 157.710938 162.152344 157.554688 163.300781 158.066406 C 165.515625 159.054688 167.222656 162.550781 168.023438 164.652344 C 169.585938 163.769531 170.894531 162.714844 173.027344 162.679688 C 176.414062 162.621094 178.867188 164.753906 180.675781 166.347656 C 184.1875 164.472656 187.308594 169.328125 188.703125 171.332031 C 191.628906 169.933594 195.40625 171.1875 197.105469 172.933594 C 198.589844 170.851562 200.460938 173.710938 201.542969 174.4375 C 203.050781 175.449219 205.679688 176.25 208.058594 175.566406 C 205.183594 175.421875 204.269531 173.320312 202.769531 171.804688 C 202.460938 171.808594 202.300781 171.964844 201.921875 171.898438 C 199.410156 170.476562 197.589844 167.683594 194.367188 167.664062 C 192.320312 167.652344 190.855469 169.152344 188.796875 168.324219 C 188.542969 168.058594 188.964844 167.9375 188.890625 167.570312 C 186.164062 165.488281 183.566406 163.277344 179.636719 162.394531 C 179.273438 162.378906 179.382812 162.832031 178.976562 162.773438 C 176.902344 161.109375 175.082031 159.1875 171.707031 158.820312 C 171.597656 160.667969 169.851562 159.269531 169.0625 158.820312 Z M 156.03125 155.527344 C 155.289062 154.847656 154.539062 154.015625 153.765625 153.550781 C 151.898438 152.433594 148.234375 150.96875 146.304688 152.800781 C 145.351562 153.703125 145.367188 155.816406 145.171875 157.410156 C 144.945312 159.257812 144.558594 160.964844 144.699219 162.773438 C 144.859375 164.808594 145.660156 166.734375 146.492188 168.511719 C 147.335938 170.308594 148.113281 171.917969 149.042969 173.402344 C 150.964844 176.46875 153.964844 178.835938 156.785156 180.835938 C 159.773438 182.953125 163.308594 184.59375 166.984375 185.820312 C 168.921875 186.472656 170.804688 187.199219 172.933594 187.421875 C 175.183594 187.65625 177.539062 187.796875 180.109375 187.890625 C 185.089844 188.078125 189.484375 187.199219 193.800781 186.386719 C 197.992188 185.597656 201.929688 184.351562 205.605469 183 C 209.179688 181.683594 212.820312 180.050781 215.800781 178.011719 C 218.480469 176.179688 220.824219 174.089844 222.976562 171.898438 C 223.308594 171.5625 223.769531 171.273438 224.015625 170.957031 C 224.386719 170.480469 224.550781 169.839844 224.867188 169.359375 C 225.886719 167.804688 227.042969 166.726562 227.886719 164.9375 C 227.402344 164.636719 227.023438 163.90625 226.378906 163.996094 C 225.910156 164.058594 225.167969 165.21875 224.773438 165.972656 C 223.953125 167.527344 223.296875 169.132812 222.03125 169.921875 C 222.261719 170.375 221.632812 170.527344 221.277344 170.957031 C 220.894531 171.421875 220.625 172.03125 220.238281 172.367188 C 218.808594 173.625 217.03125 174.550781 215.328125 175.285156 C 213.289062 176.164062 211.398438 176.328125 208.71875 176.507812 C 207.839844 176.566406 206.945312 176.792969 205.980469 176.789062 C 203.894531 176.785156 202.1875 176 200.882812 175.097656 C 200.324219 174.710938 199.347656 173.136719 198.523438 173.121094 C 197.933594 173.109375 197.710938 173.996094 197.011719 173.96875 C 196.222656 173.9375 194.960938 172.34375 193.988281 171.992188 C 191.796875 171.195312 189.859375 171.984375 188.136719 172.367188 C 187.011719 170.191406 184.015625 165.398438 180.675781 167.382812 C 178.097656 165.769531 176.492188 163.183594 172.460938 163.621094 C 171.40625 163.734375 170.679688 164.144531 169.816406 164.652344 C 169.1875 165.027344 168.363281 165.792969 167.835938 165.6875 C 167.179688 165.558594 167.089844 164.339844 166.699219 163.523438 C 166.191406 162.464844 164.925781 160.417969 163.773438 159.480469 C 163.335938 159.121094 162.371094 158.503906 161.601562 158.632812 C 160.808594 158.765625 161.019531 159.53125 159.996094 159.761719 C 158.617188 158.328125 157.578125 156.945312 156.03125 155.527344 Z M 154.519531 152.707031 C 156.691406 149.800781 160.429688 152.933594 162.355469 154.210938 C 164.257812 153.789062 165.644531 155.183594 167.078125 156.1875 C 168.203125 156.972656 169.167969 157.773438 170.289062 158.257812 C 170.824219 158.1875 170.863281 157.765625 171.609375 157.691406 C 174.433594 157.417969 177.5 160.078125 178.976562 161.363281 C 184.015625 161.578125 187.269531 165.070312 190.496094 167.476562 C 192.210938 166.644531 194.378906 166.207031 196.351562 166.910156 C 197.460938 167.3125 198.425781 168.3125 199.277344 168.511719 C 200.003906 168.679688 201.097656 168.566406 202.015625 168.605469 C 208.246094 168.867188 214.621094 169.050781 220.617188 169.734375 C 222.472656 168.683594 223.09375 166.601562 224.394531 164.652344 C 224.765625 164.097656 225.105469 163.054688 225.527344 162.867188 C 226.742188 162.320312 228.957031 163.699219 229.117188 164.652344 C 229.460938 166.722656 226.105469 168.621094 225.714844 170.203125 C 235.816406 171.496094 246.527344 172.523438 255.175781 175.945312 C 257.578125 176.894531 261.132812 178.496094 261.976562 180.835938 C 263.144531 184.082031 259.609375 186.0625 257.445312 187.140625 C 251.511719 190.089844 244.148438 191.175781 236.765625 192.5 C 235.796875 193.6875 235.058594 194.585938 233.460938 195.042969 C 231.023438 195.738281 228.222656 195.832031 225.527344 196.265625 C 222.828125 196.699219 220.011719 196.730469 217.125 197.019531 C 198.816406 198.84375 176.550781 198.730469 158.582031 197.019531 C 156.539062 196.824219 154.300781 196.625 151.78125 196.265625 C 148.441406 195.789062 144.890625 196.125 144.324219 193.347656 C 135.300781 192.023438 126.378906 190.859375 118.921875 187.609375 C 116.765625 186.671875 113.753906 185.21875 113.160156 183.09375 C 112.75 181.621094 113.371094 180.324219 114.105469 179.519531 C 117.128906 176.214844 123.355469 174.726562 128.554688 173.496094 C 134.425781 172.109375 140.40625 171.238281 146.117188 170.582031 C 145.195312 168.574219 143.566406 165.492188 143.566406 161.644531 C 143.566406 159.949219 143.835938 158.140625 144.039062 156.375 C 144.398438 153.234375 145.246094 151.164062 148.289062 150.730469 C 151.050781 150.335938 152.566406 152.039062 154.519531 152.707031 " fill-opacity="1" fill-rule="evenodd"/></g><path fill="#92410f" d="M 153.386719 159.292969 C 153.878906 159.164062 154.167969 159.574219 153.953125 159.855469 C 153.542969 159.886719 153.457031 159.597656 153.386719 159.292969 " fill-opacity="1" fill-rule="evenodd"/><path fill="#92410f" d="M 168.871094 160.136719 C 168.972656 160.761719 167.871094 160.929688 167.929688 160.230469 C 168.105469 160.066406 168.550781 160.164062 168.871094 160.136719 " fill-opacity="1" fill-rule="evenodd"/><path fill="#92410f" d="M 153.199219 161.078125 C 153.949219 161.210938 154.953125 161.902344 155.464844 162.585938 C 154.414062 162.742188 153.835938 161.640625 153.199219 161.078125 " fill-opacity="1" fill-rule="evenodd"/><path fill="#92410f" d="M 169.722656 162.019531 C 169.847656 162.019531 169.972656 162.019531 170.101562 162.019531 C 170.089844 162.277344 170.257812 162.210938 170.101562 162.394531 C 169.859375 162.382812 169.734375 162.257812 169.722656 162.019531 " fill-opacity="1" fill-rule="evenodd"/><path fill="#92410f" d="M 160.28125 168.230469 C 160.890625 168.363281 161.117188 169.03125 161.507812 169.453125 C 166.035156 174.339844 170.46875 178.738281 178.03125 180.929688 C 180.664062 181.691406 183.808594 182.363281 187.003906 182.152344 C 187.65625 182.109375 188.210938 181.789062 188.703125 182.058594 C 188.371094 182.71875 187.359375 182.757812 186.625 182.8125 C 183.394531 183.046875 180.207031 182.347656 177.558594 181.589844 C 174.9375 180.835938 172.492188 179.710938 170.476562 178.484375 C 166.066406 175.792969 162.996094 171.917969 160.28125 168.230469 " fill-opacity="1" fill-rule="evenodd"/><path fill="#92410f" d="M 172.648438 172.460938 C 173.046875 173.078125 173.601562 174.011719 173.6875 174.625 C 172.652344 174.964844 172.273438 173.265625 172.648438 172.460938 " fill-opacity="1" fill-rule="evenodd"/><path fill="#92410f" d="M 157.730469 173.214844 C 156.988281 173.707031 155.234375 173.503906 154.425781 173.214844 C 154.425781 173.121094 154.425781 173.027344 154.425781 172.933594 C 155.457031 172.730469 157.019531 172.789062 157.730469 173.214844 " fill-opacity="1" fill-rule="evenodd"/><path fill="#92410f" d="M 178.222656 174.625 C 178.84375 175.171875 179.640625 176.023438 179.449219 177.074219 C 178.457031 176.839844 178.5625 175.507812 178.222656 174.625 " fill-opacity="1" fill-rule="evenodd"/><path fill="#92410f" d="M 161.980469 177.730469 C 161.964844 178.710938 159.648438 178.738281 159.429688 177.917969 C 160.113281 177.847656 161.246094 177.992188 161.980469 177.730469 " fill-opacity="1" fill-rule="evenodd"/><path fill="#92410f" d="M 172.460938 181.683594 C 172.621094 182.464844 171.65625 182.605469 171.234375 182.246094 C 171.558594 181.976562 171.859375 181.679688 172.460938 181.683594 " fill-opacity="1" fill-rule="evenodd"/><path fill="#92410f" d="M 178.03125 184.035156 C 178.363281 184.902344 177.296875 185.257812 176.519531 185.070312 C 176.835938 184.535156 177.503906 184.355469 178.03125 184.035156 " fill-opacity="1" fill-rule="evenodd"/><g fill="#ffffff" fill-opacity="1"><g transform="translate(106.814853, 245.463411)"><g><path d="M 1.53125 -7.21875 L 2.640625 -7.21875 C 2.898438 -5.425781 3.613281 -4.015625 4.78125 -2.984375 C 5.957031 -1.953125 7.40625 -1.4375 9.125 -1.4375 C 9.820312 -1.4375 10.460938 -1.519531 11.046875 -1.6875 C 11.628906 -1.863281 12.128906 -2.109375 12.546875 -2.421875 C 12.960938 -2.734375 13.285156 -3.101562 13.515625 -3.53125 C 13.742188 -3.957031 13.859375 -4.429688 13.859375 -4.953125 C 13.859375 -5.410156 13.785156 -5.800781 13.640625 -6.125 C 13.492188 -6.457031 13.222656 -6.78125 12.828125 -7.09375 C 12.429688 -7.40625 11.890625 -7.722656 11.203125 -8.046875 C 10.515625 -8.367188 9.625 -8.738281 8.53125 -9.15625 C 6.320312 -10 4.6875 -10.984375 3.625 -12.109375 C 2.570312 -13.234375 2.046875 -14.5625 2.046875 -16.09375 C 2.046875 -16.976562 2.210938 -17.785156 2.546875 -18.515625 C 2.890625 -19.253906 3.367188 -19.890625 3.984375 -20.421875 C 4.597656 -20.953125 5.332031 -21.363281 6.1875 -21.65625 C 7.050781 -21.945312 8 -22.09375 9.03125 -22.09375 C 10 -22.09375 10.90625 -21.941406 11.75 -21.640625 C 12.601562 -21.335938 13.445312 -20.882812 14.28125 -20.28125 L 14.78125 -21.703125 L 15.46875 -21.703125 L 15.78125 -15.578125 L 14.671875 -15.578125 C 14.222656 -17.128906 13.515625 -18.316406 12.546875 -19.140625 C 11.585938 -19.960938 10.472656 -20.375 9.203125 -20.375 C 8.035156 -20.375 7.085938 -20.082031 6.359375 -19.5 C 5.628906 -18.925781 5.265625 -18.1875 5.265625 -17.28125 C 5.265625 -16.882812 5.332031 -16.53125 5.46875 -16.21875 C 5.601562 -15.90625 5.847656 -15.609375 6.203125 -15.328125 C 6.554688 -15.046875 7.046875 -14.753906 7.671875 -14.453125 C 8.296875 -14.160156 9.097656 -13.835938 10.078125 -13.484375 C 11.398438 -12.972656 12.53125 -12.457031 13.46875 -11.9375 C 14.40625 -11.414062 15.171875 -10.859375 15.765625 -10.265625 C 16.359375 -9.671875 16.796875 -9.039062 17.078125 -8.375 C 17.359375 -7.71875 17.5 -6.992188 17.5 -6.203125 C 17.5 -5.242188 17.289062 -4.363281 16.875 -3.5625 C 16.46875 -2.769531 15.890625 -2.09375 15.140625 -1.53125 C 14.390625 -0.96875 13.5 -0.523438 12.46875 -0.203125 C 11.445312 0.117188 10.3125 0.28125 9.0625 0.28125 C 7.925781 0.28125 6.90625 0.125 6 -0.1875 C 5.09375 -0.5 4.160156 -1.003906 3.203125 -1.703125 L 2.640625 0 L 1.953125 0 Z M 1.53125 -7.21875 "/></g></g></g><g fill="#ffffff" fill-opacity="1"><g transform="translate(125.480542, 245.463411)"><g><path d="M 14.1875 -6.59375 L 6.171875 -6.59375 C 5.285156 -4.59375 4.84375 -3.207031 4.84375 -2.4375 C 4.84375 -1.875 5.054688 -1.515625 5.484375 -1.359375 C 5.910156 -1.210938 6.546875 -1.140625 7.390625 -1.140625 L 7.390625 0 L -0.375 0 L -0.375 -1.140625 C 0.0820312 -1.191406 0.472656 -1.265625 0.796875 -1.359375 C 1.128906 -1.453125 1.421875 -1.582031 1.671875 -1.75 C 1.929688 -1.925781 2.15625 -2.148438 2.34375 -2.421875 C 2.539062 -2.691406 2.722656 -3.023438 2.890625 -3.421875 L 10.34375 -22.09375 L 12.4375 -22.09375 L 19.203125 -5.546875 C 19.597656 -4.585938 19.929688 -3.832031 20.203125 -3.28125 C 20.484375 -2.738281 20.78125 -2.320312 21.09375 -2.03125 C 21.40625 -1.738281 21.765625 -1.535156 22.171875 -1.421875 C 22.578125 -1.304688 23.097656 -1.21875 23.734375 -1.15625 L 23.734375 0 L 13.03125 0 L 13.03125 -1.15625 C 13.9375 -1.195312 14.585938 -1.289062 14.984375 -1.4375 C 15.378906 -1.59375 15.578125 -1.894531 15.578125 -2.34375 C 15.578125 -2.613281 15.507812 -2.957031 15.375 -3.375 C 15.25 -3.789062 15.070312 -4.300781 14.84375 -4.90625 Z M 6.828125 -8.296875 L 13.5625 -8.296875 L 10.3125 -16.890625 L 10.203125 -16.890625 Z M 6.828125 -8.296875 "/></g></g></g><g fill="#ffffff" fill-opacity="1"><g transform="translate(148.281587, 245.463411)"><g><path d="M 20.515625 0 L 0.984375 0 L 0.984375 -1.140625 C 1.609375 -1.148438 2.117188 -1.203125 2.515625 -1.296875 C 2.910156 -1.390625 3.210938 -1.550781 3.421875 -1.78125 C 3.628906 -2.007812 3.769531 -2.332031 3.84375 -2.75 C 3.925781 -3.164062 3.96875 -3.703125 3.96875 -4.359375 L 3.96875 -17.453125 C 3.96875 -18.109375 3.929688 -18.640625 3.859375 -19.046875 C 3.796875 -19.453125 3.671875 -19.773438 3.484375 -20.015625 C 3.296875 -20.253906 3.023438 -20.414062 2.671875 -20.5 C 2.328125 -20.582031 1.867188 -20.640625 1.296875 -20.671875 L 1.296875 -21.8125 L 11.078125 -21.8125 L 11.078125 -20.671875 C 10.429688 -20.660156 9.914062 -20.609375 9.53125 -20.515625 C 9.144531 -20.421875 8.847656 -20.25 8.640625 -20 C 8.429688 -19.75 8.289062 -19.40625 8.21875 -18.96875 C 8.15625 -18.539062 8.125 -17.96875 8.125 -17.25 L 8.125 -5.375 C 8.125 -4.582031 8.203125 -3.9375 8.359375 -3.4375 C 8.523438 -2.9375 8.804688 -2.550781 9.203125 -2.28125 C 9.597656 -2.007812 10.125 -1.820312 10.78125 -1.71875 C 11.445312 -1.613281 12.269531 -1.5625 13.25 -1.5625 C 14.351562 -1.5625 15.269531 -1.625 16 -1.75 C 16.738281 -1.882812 17.359375 -2.132812 17.859375 -2.5 C 18.359375 -2.875 18.757812 -3.367188 19.0625 -3.984375 C 19.363281 -4.609375 19.617188 -5.425781 19.828125 -6.4375 L 20.96875 -6.4375 Z M 20.515625 0 "/></g></g></g><g fill="#ffffff" fill-opacity="1"><g transform="translate(169.553117, 245.463411)"><g><path d="M 8.125 -4.5625 C 8.125 -3.84375 8.171875 -3.257812 8.265625 -2.8125 C 8.359375 -2.375 8.550781 -2.035156 8.84375 -1.796875 C 9.144531 -1.554688 9.5625 -1.390625 10.09375 -1.296875 C 10.632812 -1.203125 11.359375 -1.148438 12.265625 -1.140625 L 12.265625 0 L 0.984375 0 L 0.984375 -1.140625 C 1.609375 -1.148438 2.117188 -1.203125 2.515625 -1.296875 C 2.910156 -1.390625 3.210938 -1.550781 3.421875 -1.78125 C 3.628906 -2.007812 3.769531 -2.332031 3.84375 -2.75 C 3.925781 -3.164062 3.96875 -3.703125 3.96875 -4.359375 L 3.96875 -17.453125 C 3.96875 -18.109375 3.929688 -18.640625 3.859375 -19.046875 C 3.796875 -19.453125 3.671875 -19.773438 3.484375 -20.015625 C 3.296875 -20.253906 3.023438 -20.414062 2.671875 -20.5 C 2.328125 -20.582031 1.867188 -20.640625 1.296875 -20.671875 L 1.296875 -21.8125 L 18.640625 -21.8125 L 18.984375 -15.828125 L 17.796875 -15.828125 C 17.679688 -16.640625 17.515625 -17.320312 17.296875 -17.875 C 17.078125 -18.4375 16.769531 -18.890625 16.375 -19.234375 C 15.976562 -19.585938 15.46875 -19.835938 14.84375 -19.984375 C 14.21875 -20.140625 13.453125 -20.21875 12.546875 -20.21875 L 8.640625 -20.21875 C 8.296875 -20.21875 8.125 -20.0625 8.125 -19.75 L 8.125 -11.5625 C 9.28125 -11.5625 10.222656 -11.609375 10.953125 -11.703125 C 11.679688 -11.796875 12.257812 -11.976562 12.6875 -12.25 C 13.125 -12.519531 13.4375 -12.890625 13.625 -13.359375 C 13.8125 -13.835938 13.941406 -14.460938 14.015625 -15.234375 L 15.078125 -15.234375 L 15.078125 -6.375 L 14.015625 -6.375 C 13.910156 -7.164062 13.753906 -7.800781 13.546875 -8.28125 C 13.335938 -8.769531 13.019531 -9.140625 12.59375 -9.390625 C 12.164062 -9.640625 11.59375 -9.8125 10.875 -9.90625 C 10.15625 -10.007812 9.238281 -10.0625 8.125 -10.0625 Z M 8.125 -4.5625 "/></g></g></g><g fill="#ffffff" fill-opacity="1"><g transform="translate(188.955246, 245.463411)"><g><path d="M 13.375 -22.09375 C 15.070312 -22.09375 16.65625 -21.800781 18.125 -21.21875 C 19.601562 -20.632812 20.882812 -19.832031 21.96875 -18.8125 C 23.050781 -17.789062 23.90625 -16.585938 24.53125 -15.203125 C 25.15625 -13.828125 25.46875 -12.335938 25.46875 -10.734375 C 25.46875 -9.203125 25.148438 -7.765625 24.515625 -6.421875 C 23.878906 -5.085938 23.019531 -3.921875 21.9375 -2.921875 C 20.851562 -1.929688 19.570312 -1.148438 18.09375 -0.578125 C 16.625 -0.00390625 15.050781 0.28125 13.375 0.28125 C 11.6875 0.28125 10.109375 -0.00390625 8.640625 -0.578125 C 7.171875 -1.148438 5.882812 -1.929688 4.78125 -2.921875 C 3.6875 -3.921875 2.828125 -5.085938 2.203125 -6.421875 C 1.585938 -7.765625 1.28125 -9.203125 1.28125 -10.734375 C 1.28125 -12.335938 1.585938 -13.828125 2.203125 -15.203125 C 2.828125 -16.585938 3.679688 -17.789062 4.765625 -18.8125 C 5.859375 -19.832031 7.140625 -20.632812 8.609375 -21.21875 C 10.085938 -21.800781 11.675781 -22.09375 13.375 -22.09375 Z M 13.375 -1.5625 C 14.46875 -1.5625 15.457031 -1.769531 16.34375 -2.1875 C 17.226562 -2.613281 17.984375 -3.21875 18.609375 -4 C 19.234375 -4.789062 19.707031 -5.75 20.03125 -6.875 C 20.363281 -8 20.53125 -9.257812 20.53125 -10.65625 C 20.53125 -12.125 20.363281 -13.445312 20.03125 -14.625 C 19.707031 -15.8125 19.234375 -16.820312 18.609375 -17.65625 C 17.984375 -18.5 17.226562 -19.140625 16.34375 -19.578125 C 15.457031 -20.023438 14.46875 -20.25 13.375 -20.25 C 12.257812 -20.25 11.257812 -20.023438 10.375 -19.578125 C 9.5 -19.140625 8.75 -18.5 8.125 -17.65625 C 7.507812 -16.820312 7.035156 -15.8125 6.703125 -14.625 C 6.367188 -13.445312 6.203125 -12.125 6.203125 -10.65625 C 6.203125 -9.257812 6.367188 -8 6.703125 -6.875 C 7.035156 -5.75 7.507812 -4.789062 8.125 -4 C 8.75 -3.21875 9.5 -2.613281 10.375 -2.1875 C 11.257812 -1.769531 12.257812 -1.5625 13.375 -1.5625 Z M 13.375 -1.5625 "/></g></g></g><g fill="#ffffff" fill-opacity="1"><g transform="translate(215.551742, 245.463411)"><g><path d="M 13.375 -22.09375 C 15.070312 -22.09375 16.65625 -21.800781 18.125 -21.21875 C 19.601562 -20.632812 20.882812 -19.832031 21.96875 -18.8125 C 23.050781 -17.789062 23.90625 -16.585938 24.53125 -15.203125 C 25.15625 -13.828125 25.46875 -12.335938 25.46875 -10.734375 C 25.46875 -9.203125 25.148438 -7.765625 24.515625 -6.421875 C 23.878906 -5.085938 23.019531 -3.921875 21.9375 -2.921875 C 20.851562 -1.929688 19.570312 -1.148438 18.09375 -0.578125 C 16.625 -0.00390625 15.050781 0.28125 13.375 0.28125 C 11.6875 0.28125 10.109375 -0.00390625 8.640625 -0.578125 C 7.171875 -1.148438 5.882812 -1.929688 4.78125 -2.921875 C 3.6875 -3.921875 2.828125 -5.085938 2.203125 -6.421875 C 1.585938 -7.765625 1.28125 -9.203125 1.28125 -10.734375 C 1.28125 -12.335938 1.585938 -13.828125 2.203125 -15.203125 C 2.828125 -16.585938 3.679688 -17.789062 4.765625 -18.8125 C 5.859375 -19.832031 7.140625 -20.632812 8.609375 -21.21875 C 10.085938 -21.800781 11.675781 -22.09375 13.375 -22.09375 Z M 13.375 -1.5625 C 14.46875 -1.5625 15.457031 -1.769531 16.34375 -2.1875 C 17.226562 -2.613281 17.984375 -3.21875 18.609375 -4 C 19.234375 -4.789062 19.707031 -5.75 20.03125 -6.875 C 20.363281 -8 20.53125 -9.257812 20.53125 -10.65625 C 20.53125 -12.125 20.363281 -13.445312 20.03125 -14.625 C 19.707031 -15.8125 19.234375 -16.820312 18.609375 -17.65625 C 17.984375 -18.5 17.226562 -19.140625 16.34375 -19.578125 C 15.457031 -20.023438 14.46875 -20.25 13.375 -20.25 C 12.257812 -20.25 11.257812 -20.023438 10.375 -19.578125 C 9.5 -19.140625 8.75 -18.5 8.125 -17.65625 C 7.507812 -16.820312 7.035156 -15.8125 6.703125 -14.625 C 6.367188 -13.445312 6.203125 -12.125 6.203125 -10.65625 C 6.203125 -9.257812 6.367188 -8 6.703125 -6.875 C 7.035156 -5.75 7.507812 -4.789062 8.125 -4 C 8.75 -3.21875 9.5 -2.613281 10.375 -2.1875 C 11.257812 -1.769531 12.257812 -1.5625 13.375 -1.5625 Z M 13.375 -1.5625 "/></g></g></g><g fill="#ffffff" fill-opacity="1"><g transform="translate(242.148245, 245.463411)"><g><path d="M 0.984375 0 L 0.984375 -1.140625 C 1.609375 -1.148438 2.113281 -1.195312 2.5 -1.28125 C 2.894531 -1.375 3.195312 -1.535156 3.40625 -1.765625 C 3.625 -2.003906 3.769531 -2.328125 3.84375 -2.734375 C 3.925781 -3.140625 3.96875 -3.679688 3.96875 -4.359375 L 3.96875 -17.453125 C 3.96875 -18.109375 3.9375 -18.640625 3.875 -19.046875 C 3.820312 -19.453125 3.703125 -19.773438 3.515625 -20.015625 C 3.328125 -20.253906 3.066406 -20.414062 2.734375 -20.5 C 2.398438 -20.582031 1.96875 -20.640625 1.4375 -20.671875 L 1.4375 -21.8125 L 12.203125 -21.8125 C 14.015625 -21.8125 15.6875 -21.523438 17.21875 -20.953125 C 18.75 -20.390625 20.070312 -19.609375 21.1875 -18.609375 C 22.300781 -17.609375 23.171875 -16.414062 23.796875 -15.03125 C 24.421875 -13.65625 24.734375 -12.15625 24.734375 -10.53125 C 24.734375 -8.988281 24.4375 -7.566406 23.84375 -6.265625 C 23.257812 -4.972656 22.441406 -3.863281 21.390625 -2.9375 C 20.347656 -2.019531 19.09375 -1.300781 17.625 -0.78125 C 16.164062 -0.257812 14.554688 0 12.796875 0 Z M 8.609375 -20.078125 C 8.285156 -20.078125 8.125 -19.921875 8.125 -19.609375 L 8.125 -4.953125 C 8.125 -3.859375 8.460938 -3.046875 9.140625 -2.515625 C 9.828125 -1.992188 10.878906 -1.734375 12.296875 -1.734375 C 14.765625 -1.734375 16.664062 -2.476562 18 -3.96875 C 19.332031 -5.457031 20 -7.628906 20 -10.484375 C 20 -11.992188 19.816406 -13.34375 19.453125 -14.53125 C 19.097656 -15.71875 18.582031 -16.722656 17.90625 -17.546875 C 17.226562 -18.367188 16.398438 -18.992188 15.421875 -19.421875 C 14.453125 -19.859375 13.363281 -20.078125 12.15625 -20.078125 Z M 8.609375 -20.078125 "/></g></g></g><g fill="#ffffff" fill-opacity="1"><g transform="translate(131.151525, 267.292804)"><g><path d="M 9.125 -8 C 9.125 -7.507812 9.046875 -7.070312 8.890625 -6.6875 C 8.734375 -6.300781 8.484375 -5.972656 8.140625 -5.703125 C 7.804688 -5.429688 7.367188 -5.222656 6.828125 -5.078125 C 6.285156 -4.929688 5.628906 -4.859375 4.859375 -4.859375 L 3.609375 -4.859375 L 3.609375 -2.171875 C 3.609375 -1.835938 3.628906 -1.5625 3.671875 -1.34375 C 3.710938 -1.125 3.800781 -0.953125 3.9375 -0.828125 C 4.070312 -0.710938 4.265625 -0.632812 4.515625 -0.59375 C 4.765625 -0.550781 5.097656 -0.53125 5.515625 -0.53125 L 5.515625 0 L 0.625 0 L 0.625 -0.53125 C 0.945312 -0.539062 1.207031 -0.566406 1.40625 -0.609375 C 1.601562 -0.660156 1.757812 -0.738281 1.875 -0.84375 C 1.988281 -0.957031 2.0625 -1.113281 2.09375 -1.3125 C 2.132812 -1.519531 2.15625 -1.785156 2.15625 -2.109375 L 2.15625 -8.578125 C 2.15625 -8.898438 2.132812 -9.160156 2.09375 -9.359375 C 2.0625 -9.554688 2 -9.710938 1.90625 -9.828125 C 1.8125 -9.941406 1.671875 -10.019531 1.484375 -10.0625 C 1.296875 -10.101562 1.054688 -10.132812 0.765625 -10.15625 L 0.765625 -10.6875 L 5.125 -10.6875 C 6.394531 -10.6875 7.378906 -10.445312 8.078125 -9.96875 C 8.773438 -9.5 9.125 -8.84375 9.125 -8 Z M 3.609375 -5.546875 L 4.59375 -5.546875 C 5.519531 -5.546875 6.207031 -5.722656 6.65625 -6.078125 C 7.101562 -6.441406 7.328125 -7.03125 7.328125 -7.84375 C 7.328125 -8.625 7.144531 -9.179688 6.78125 -9.515625 C 6.425781 -9.859375 5.875 -10.03125 5.125 -10.03125 L 3.84375 -10.03125 C 3.6875 -10.03125 3.609375 -9.953125 3.609375 -9.796875 Z M 3.609375 -5.546875 "/></g></g></g><g fill="#ffffff" fill-opacity="1"><g transform="translate(142.418156, 267.292804)"><g><path d="M 3.15625 -2.203125 C 3.15625 -1.847656 3.171875 -1.5625 3.203125 -1.34375 C 3.242188 -1.125 3.304688 -0.953125 3.390625 -0.828125 C 3.484375 -0.703125 3.613281 -0.613281 3.78125 -0.5625 C 3.945312 -0.519531 4.171875 -0.492188 4.453125 -0.484375 L 4.453125 0 L 0.46875 0 L 0.46875 -0.484375 C 0.75 -0.492188 0.976562 -0.523438 1.15625 -0.578125 C 1.332031 -0.628906 1.46875 -0.710938 1.5625 -0.828125 C 1.65625 -0.941406 1.71875 -1.101562 1.75 -1.3125 C 1.78125 -1.519531 1.796875 -1.785156 1.796875 -2.109375 L 1.796875 -3.890625 C 1.796875 -4.421875 1.789062 -4.859375 1.78125 -5.203125 C 1.769531 -5.554688 1.742188 -5.796875 1.703125 -5.921875 C 1.660156 -6.140625 1.554688 -6.285156 1.390625 -6.359375 C 1.222656 -6.441406 0.90625 -6.484375 0.4375 -6.484375 L 0.4375 -6.96875 L 3.15625 -7.5 Z M 1.5625 -10.3125 C 1.5625 -10.550781 1.644531 -10.753906 1.8125 -10.921875 C 1.976562 -11.085938 2.179688 -11.171875 2.421875 -11.171875 C 2.660156 -11.171875 2.863281 -11.085938 3.03125 -10.921875 C 3.195312 -10.753906 3.28125 -10.550781 3.28125 -10.3125 C 3.28125 -10.070312 3.195312 -9.867188 3.03125 -9.703125 C 2.863281 -9.535156 2.660156 -9.453125 2.421875 -9.453125 C 2.179688 -9.453125 1.976562 -9.535156 1.8125 -9.703125 C 1.644531 -9.867188 1.5625 -10.070312 1.5625 -10.3125 Z M 1.5625 -10.3125 "/></g></g></g><g fill="#ffffff" fill-opacity="1"><g transform="translate(148.884015, 267.292804)"><g><path d="M 6.90625 0 L 0.25 0 L 0.25 -0.0625 L 5.046875 -6.765625 L 3.515625 -6.765625 C 3.109375 -6.765625 2.78125 -6.75 2.53125 -6.71875 C 2.28125 -6.6875 2.070312 -6.617188 1.90625 -6.515625 C 1.75 -6.421875 1.628906 -6.289062 1.546875 -6.125 C 1.460938 -5.957031 1.394531 -5.726562 1.34375 -5.4375 L 0.90625 -5.4375 L 1.125 -7.359375 L 7.09375 -7.359375 L 7.09375 -7.296875 L 2.359375 -0.640625 L 3.984375 -0.640625 C 4.453125 -0.640625 4.84375 -0.65625 5.15625 -0.6875 C 5.46875 -0.726562 5.722656 -0.800781 5.921875 -0.90625 C 6.117188 -1.019531 6.273438 -1.175781 6.390625 -1.375 C 6.503906 -1.570312 6.601562 -1.832031 6.6875 -2.15625 L 7.140625 -2.15625 Z M 6.90625 0 "/></g></g></g><g fill="#ffffff" fill-opacity="1"><g transform="translate(158.346885, 267.292804)"><g><path d="M 6.90625 0 L 0.25 0 L 0.25 -0.0625 L 5.046875 -6.765625 L 3.515625 -6.765625 C 3.109375 -6.765625 2.78125 -6.75 2.53125 -6.71875 C 2.28125 -6.6875 2.070312 -6.617188 1.90625 -6.515625 C 1.75 -6.421875 1.628906 -6.289062 1.546875 -6.125 C 1.460938 -5.957031 1.394531 -5.726562 1.34375 -5.4375 L 0.90625 -5.4375 L 1.125 -7.359375 L 7.09375 -7.359375 L 7.09375 -7.296875 L 2.359375 -0.640625 L 3.984375 -0.640625 C 4.453125 -0.640625 4.84375 -0.65625 5.15625 -0.6875 C 5.46875 -0.726562 5.722656 -0.800781 5.921875 -0.90625 C 6.117188 -1.019531 6.273438 -1.175781 6.390625 -1.375 C 6.503906 -1.570312 6.601562 -1.832031 6.6875 -2.15625 L 7.140625 -2.15625 Z M 6.90625 0 "/></g></g></g><g fill="#ffffff" fill-opacity="1"><g transform="translate(167.809758, 267.292804)"><g><path d="M 4.84375 -4.109375 C 4.3125 -3.898438 3.863281 -3.695312 3.5 -3.5 C 3.132812 -3.3125 2.84375 -3.117188 2.625 -2.921875 C 2.40625 -2.734375 2.242188 -2.539062 2.140625 -2.34375 C 2.046875 -2.144531 2 -1.945312 2 -1.75 C 2 -1.445312 2.097656 -1.195312 2.296875 -1 C 2.503906 -0.800781 2.773438 -0.703125 3.109375 -0.703125 C 3.347656 -0.703125 3.570312 -0.757812 3.78125 -0.875 C 3.988281 -1 4.171875 -1.164062 4.328125 -1.375 C 4.484375 -1.582031 4.609375 -1.828125 4.703125 -2.109375 C 4.796875 -2.398438 4.84375 -2.703125 4.84375 -3.015625 Z M 4.84375 -4.703125 L 4.84375 -5.265625 C 4.84375 -6.398438 4.363281 -6.96875 3.40625 -6.96875 C 3.238281 -6.96875 3.097656 -6.953125 2.984375 -6.921875 C 2.878906 -6.890625 2.789062 -6.84375 2.71875 -6.78125 C 2.644531 -6.71875 2.578125 -6.625 2.515625 -6.5 C 2.453125 -6.382812 2.394531 -6.238281 2.34375 -6.0625 C 2.238281 -5.789062 2.140625 -5.609375 2.046875 -5.515625 C 1.953125 -5.429688 1.8125 -5.390625 1.625 -5.390625 C 1.15625 -5.390625 0.921875 -5.625 0.921875 -6.09375 C 0.921875 -6.53125 1.15625 -6.875 1.625 -7.125 C 2.101562 -7.375 2.78125 -7.5 3.65625 -7.5 C 4.570312 -7.5 5.222656 -7.332031 5.609375 -7 C 6.003906 -6.664062 6.203125 -6.109375 6.203125 -5.328125 L 6.203125 -2.21875 C 6.203125 -1.164062 6.410156 -0.640625 6.828125 -0.640625 C 6.953125 -0.640625 7.070312 -0.65625 7.1875 -0.6875 C 7.3125 -0.71875 7.414062 -0.800781 7.5 -0.9375 L 7.703125 -0.609375 C 7.585938 -0.398438 7.378906 -0.222656 7.078125 -0.078125 C 6.785156 0.0664062 6.476562 0.140625 6.15625 0.140625 C 5.75 0.140625 5.445312 0.0078125 5.25 -0.25 C 5.050781 -0.507812 4.953125 -0.875 4.953125 -1.34375 L 4.890625 -1.34375 C 4.640625 -0.894531 4.300781 -0.535156 3.875 -0.265625 C 3.457031 -0.00390625 2.988281 0.125 2.46875 0.125 C 1.882812 0.125 1.425781 -0.0195312 1.09375 -0.3125 C 0.757812 -0.613281 0.59375 -1.015625 0.59375 -1.515625 C 0.59375 -1.734375 0.628906 -1.941406 0.703125 -2.140625 C 0.785156 -2.347656 0.914062 -2.546875 1.09375 -2.734375 C 1.269531 -2.921875 1.5 -3.101562 1.78125 -3.28125 C 2.070312 -3.457031 2.425781 -3.640625 2.84375 -3.828125 Z M 4.84375 -4.703125 "/></g></g></g><g fill="#ffffff" fill-opacity="1"><g transform="translate(177.231008, 267.292804)"><g/></g></g><g fill="#ffffff" fill-opacity="1"><g transform="translate(182.947612, 267.292804)"><g><path d="M 0.8125 -3.265625 L 1.3125 -3.265625 C 1.382812 -2.847656 1.507812 -2.472656 1.6875 -2.140625 C 1.863281 -1.804688 2.085938 -1.519531 2.359375 -1.28125 C 2.640625 -1.050781 2.957031 -0.875 3.3125 -0.75 C 3.664062 -0.625 4.050781 -0.5625 4.46875 -0.5625 C 5.15625 -0.5625 5.695312 -0.722656 6.09375 -1.046875 C 6.488281 -1.378906 6.6875 -1.820312 6.6875 -2.375 C 6.6875 -2.601562 6.644531 -2.8125 6.5625 -3 C 6.488281 -3.195312 6.359375 -3.382812 6.171875 -3.5625 C 5.984375 -3.75 5.734375 -3.929688 5.421875 -4.109375 C 5.117188 -4.285156 4.734375 -4.472656 4.265625 -4.671875 C 3.691406 -4.921875 3.207031 -5.160156 2.8125 -5.390625 C 2.425781 -5.628906 2.117188 -5.875 1.890625 -6.125 C 1.660156 -6.375 1.492188 -6.640625 1.390625 -6.921875 C 1.296875 -7.203125 1.25 -7.519531 1.25 -7.875 C 1.25 -8.300781 1.320312 -8.691406 1.46875 -9.046875 C 1.625 -9.410156 1.84375 -9.722656 2.125 -9.984375 C 2.40625 -10.253906 2.734375 -10.460938 3.109375 -10.609375 C 3.484375 -10.753906 3.898438 -10.828125 4.359375 -10.828125 C 4.765625 -10.828125 5.140625 -10.757812 5.484375 -10.625 C 5.835938 -10.5 6.195312 -10.289062 6.5625 -10 L 6.921875 -10.625 L 7.25 -10.625 L 7.390625 -7.859375 L 6.875 -7.859375 C 6.65625 -8.617188 6.332031 -9.179688 5.90625 -9.546875 C 5.488281 -9.921875 4.984375 -10.109375 4.390625 -10.109375 C 3.828125 -10.109375 3.378906 -9.96875 3.046875 -9.6875 C 2.710938 -9.414062 2.546875 -9.046875 2.546875 -8.578125 C 2.546875 -8.347656 2.582031 -8.144531 2.65625 -7.96875 C 2.738281 -7.789062 2.863281 -7.617188 3.03125 -7.453125 C 3.195312 -7.296875 3.410156 -7.132812 3.671875 -6.96875 C 3.941406 -6.8125 4.273438 -6.644531 4.671875 -6.46875 C 5.359375 -6.164062 5.925781 -5.878906 6.375 -5.609375 C 6.832031 -5.347656 7.191406 -5.082031 7.453125 -4.8125 C 7.722656 -4.550781 7.914062 -4.273438 8.03125 -3.984375 C 8.144531 -3.691406 8.203125 -3.367188 8.203125 -3.015625 C 8.203125 -2.546875 8.109375 -2.117188 7.921875 -1.734375 C 7.734375 -1.347656 7.472656 -1.015625 7.140625 -0.734375 C 6.804688 -0.453125 6.410156 -0.234375 5.953125 -0.078125 C 5.492188 0.0664062 4.984375 0.140625 4.421875 0.140625 C 3.898438 0.140625 3.425781 0.0664062 3 -0.078125 C 2.582031 -0.234375 2.15625 -0.484375 1.71875 -0.828125 L 1.328125 -0.15625 L 1.015625 -0.15625 Z M 0.8125 -3.265625 "/></g></g></g><g fill="#ffffff" fill-opacity="1"><g transform="translate(193.63149, 267.292804)"><g><path d="M 0.5625 -6.484375 L 0.5625 -7 C 1.050781 -7.28125 1.429688 -7.5625 1.703125 -7.84375 C 1.984375 -8.132812 2.195312 -8.476562 2.34375 -8.875 L 2.75 -8.875 L 2.75 -7.125 L 4.609375 -7.125 L 4.609375 -6.484375 L 2.75 -6.484375 L 2.75 -2.265625 C 2.75 -1.941406 2.765625 -1.664062 2.796875 -1.4375 C 2.828125 -1.21875 2.878906 -1.039062 2.953125 -0.90625 C 3.023438 -0.769531 3.117188 -0.675781 3.234375 -0.625 C 3.359375 -0.570312 3.515625 -0.546875 3.703125 -0.546875 C 3.929688 -0.546875 4.125 -0.59375 4.28125 -0.6875 C 4.445312 -0.78125 4.609375 -0.941406 4.765625 -1.171875 L 5.125 -0.921875 C 4.988281 -0.578125 4.757812 -0.3125 4.4375 -0.125 C 4.125 0.0507812 3.734375 0.140625 3.265625 0.140625 C 2.648438 0.140625 2.179688 -0.00390625 1.859375 -0.296875 C 1.546875 -0.585938 1.390625 -1.003906 1.390625 -1.546875 L 1.390625 -6.484375 Z M 0.5625 -6.484375 "/></g></g></g><g fill="#ffffff" fill-opacity="1"><g transform="translate(200.61072, 267.292804)"><g><path d="M 4.84375 -4.109375 C 4.3125 -3.898438 3.863281 -3.695312 3.5 -3.5 C 3.132812 -3.3125 2.84375 -3.117188 2.625 -2.921875 C 2.40625 -2.734375 2.242188 -2.539062 2.140625 -2.34375 C 2.046875 -2.144531 2 -1.945312 2 -1.75 C 2 -1.445312 2.097656 -1.195312 2.296875 -1 C 2.503906 -0.800781 2.773438 -0.703125 3.109375 -0.703125 C 3.347656 -0.703125 3.570312 -0.757812 3.78125 -0.875 C 3.988281 -1 4.171875 -1.164062 4.328125 -1.375 C 4.484375 -1.582031 4.609375 -1.828125 4.703125 -2.109375 C 4.796875 -2.398438 4.84375 -2.703125 4.84375 -3.015625 Z M 4.84375 -4.703125 L 4.84375 -5.265625 C 4.84375 -6.398438 4.363281 -6.96875 3.40625 -6.96875 C 3.238281 -6.96875 3.097656 -6.953125 2.984375 -6.921875 C 2.878906 -6.890625 2.789062 -6.84375 2.71875 -6.78125 C 2.644531 -6.71875 2.578125 -6.625 2.515625 -6.5 C 2.453125 -6.382812 2.394531 -6.238281 2.34375 -6.0625 C 2.238281 -5.789062 2.140625 -5.609375 2.046875 -5.515625 C 1.953125 -5.429688 1.8125 -5.390625 1.625 -5.390625 C 1.15625 -5.390625 0.921875 -5.625 0.921875 -6.09375 C 0.921875 -6.53125 1.15625 -6.875 1.625 -7.125 C 2.101562 -7.375 2.78125 -7.5 3.65625 -7.5 C 4.570312 -7.5 5.222656 -7.332031 5.609375 -7 C 6.003906 -6.664062 6.203125 -6.109375 6.203125 -5.328125 L 6.203125 -2.21875 C 6.203125 -1.164062 6.410156 -0.640625 6.828125 -0.640625 C 6.953125 -0.640625 7.070312 -0.65625 7.1875 -0.6875 C 7.3125 -0.71875 7.414062 -0.800781 7.5 -0.9375 L 7.703125 -0.609375 C 7.585938 -0.398438 7.378906 -0.222656 7.078125 -0.078125 C 6.785156 0.0664062 6.476562 0.140625 6.15625 0.140625 C 5.75 0.140625 5.445312 0.0078125 5.25 -0.25 C 5.050781 -0.507812 4.953125 -0.875 4.953125 -1.34375 L 4.890625 -1.34375 C 4.640625 -0.894531 4.300781 -0.535156 3.875 -0.265625 C 3.457031 -0.00390625 2.988281 0.125 2.46875 0.125 C 1.882812 0.125 1.425781 -0.0195312 1.09375 -0.3125 C 0.757812 -0.613281 0.59375 -1.015625 0.59375 -1.515625 C 0.59375 -1.734375 0.628906 -1.941406 0.703125 -2.140625 C 0.785156 -2.347656 0.914062 -2.546875 1.09375 -2.734375 C 1.269531 -2.921875 1.5 -3.101562 1.78125 -3.28125 C 2.070312 -3.457031 2.425781 -3.640625 2.84375 -3.828125 Z M 4.84375 -4.703125 "/></g></g></g><g fill="#ffffff" fill-opacity="1"><g transform="translate(210.031971, 267.292804)"><g><path d="M 0.5625 -6.484375 L 0.5625 -7 C 1.050781 -7.28125 1.429688 -7.5625 1.703125 -7.84375 C 1.984375 -8.132812 2.195312 -8.476562 2.34375 -8.875 L 2.75 -8.875 L 2.75 -7.125 L 4.609375 -7.125 L 4.609375 -6.484375 L 2.75 -6.484375 L 2.75 -2.265625 C 2.75 -1.941406 2.765625 -1.664062 2.796875 -1.4375 C 2.828125 -1.21875 2.878906 -1.039062 2.953125 -0.90625 C 3.023438 -0.769531 3.117188 -0.675781 3.234375 -0.625 C 3.359375 -0.570312 3.515625 -0.546875 3.703125 -0.546875 C 3.929688 -0.546875 4.125 -0.59375 4.28125 -0.6875 C 4.445312 -0.78125 4.609375 -0.941406 4.765625 -1.171875 L 5.125 -0.921875 C 4.988281 -0.578125 4.757812 -0.3125 4.4375 -0.125 C 4.125 0.0507812 3.734375 0.140625 3.265625 0.140625 C 2.648438 0.140625 2.179688 -0.00390625 1.859375 -0.296875 C 1.546875 -0.585938 1.390625 -1.003906 1.390625 -1.546875 L 1.390625 -6.484375 Z M 0.5625 -6.484375 "/></g></g></g><g fill="#ffffff" fill-opacity="1"><g transform="translate(217.011201, 267.292804)"><g><path d="M 3.15625 -2.203125 C 3.15625 -1.847656 3.171875 -1.5625 3.203125 -1.34375 C 3.242188 -1.125 3.304688 -0.953125 3.390625 -0.828125 C 3.484375 -0.703125 3.613281 -0.613281 3.78125 -0.5625 C 3.945312 -0.519531 4.171875 -0.492188 4.453125 -0.484375 L 4.453125 0 L 0.46875 0 L 0.46875 -0.484375 C 0.75 -0.492188 0.976562 -0.523438 1.15625 -0.578125 C 1.332031 -0.628906 1.46875 -0.710938 1.5625 -0.828125 C 1.65625 -0.941406 1.71875 -1.101562 1.75 -1.3125 C 1.78125 -1.519531 1.796875 -1.785156 1.796875 -2.109375 L 1.796875 -3.890625 C 1.796875 -4.421875 1.789062 -4.859375 1.78125 -5.203125 C 1.769531 -5.554688 1.742188 -5.796875 1.703125 -5.921875 C 1.660156 -6.140625 1.554688 -6.285156 1.390625 -6.359375 C 1.222656 -6.441406 0.90625 -6.484375 0.4375 -6.484375 L 0.4375 -6.96875 L 3.15625 -7.5 Z M 1.5625 -10.3125 C 1.5625 -10.550781 1.644531 -10.753906 1.8125 -10.921875 C 1.976562 -11.085938 2.179688 -11.171875 2.421875 -11.171875 C 2.660156 -11.171875 2.863281 -11.085938 3.03125 -10.921875 C 3.195312 -10.753906 3.28125 -10.550781 3.28125 -10.3125 C 3.28125 -10.070312 3.195312 -9.867188 3.03125 -9.703125 C 2.863281 -9.535156 2.660156 -9.453125 2.421875 -9.453125 C 2.179688 -9.453125 1.976562 -9.535156 1.8125 -9.703125 C 1.644531 -9.867188 1.5625 -10.070312 1.5625 -10.3125 Z M 1.5625 -10.3125 "/></g></g></g><g fill="#ffffff" fill-opacity="1"><g transform="translate(223.477061, 267.292804)"><g><path d="M 4.515625 -7.5 C 5.035156 -7.5 5.53125 -7.398438 6 -7.203125 C 6.476562 -7.015625 6.894531 -6.753906 7.25 -6.421875 C 7.601562 -6.085938 7.882812 -5.691406 8.09375 -5.234375 C 8.300781 -4.773438 8.40625 -4.273438 8.40625 -3.734375 C 8.40625 -3.171875 8.300781 -2.648438 8.09375 -2.171875 C 7.882812 -1.703125 7.601562 -1.296875 7.25 -0.953125 C 6.894531 -0.609375 6.476562 -0.335938 6 -0.140625 C 5.53125 0.046875 5.035156 0.140625 4.515625 0.140625 C 3.992188 0.140625 3.5 0.046875 3.03125 -0.140625 C 2.5625 -0.335938 2.148438 -0.601562 1.796875 -0.9375 C 1.453125 -1.28125 1.175781 -1.691406 0.96875 -2.171875 C 0.769531 -2.648438 0.671875 -3.171875 0.671875 -3.734375 C 0.671875 -4.273438 0.769531 -4.773438 0.96875 -5.234375 C 1.175781 -5.703125 1.453125 -6.101562 1.796875 -6.4375 C 2.148438 -6.769531 2.5625 -7.03125 3.03125 -7.21875 C 3.5 -7.40625 3.992188 -7.5 4.515625 -7.5 Z M 4.515625 -6.828125 C 4.171875 -6.828125 3.859375 -6.75 3.578125 -6.59375 C 3.296875 -6.445312 3.050781 -6.238281 2.84375 -5.96875 C 2.644531 -5.695312 2.492188 -5.367188 2.390625 -4.984375 C 2.285156 -4.597656 2.234375 -4.175781 2.234375 -3.71875 C 2.234375 -3.238281 2.285156 -2.800781 2.390625 -2.40625 C 2.492188 -2.019531 2.644531 -1.691406 2.84375 -1.421875 C 3.050781 -1.148438 3.289062 -0.9375 3.5625 -0.78125 C 3.84375 -0.632812 4.160156 -0.5625 4.515625 -0.5625 C 4.859375 -0.5625 5.171875 -0.632812 5.453125 -0.78125 C 5.742188 -0.9375 5.988281 -1.148438 6.1875 -1.421875 C 6.394531 -1.703125 6.554688 -2.035156 6.671875 -2.421875 C 6.785156 -2.816406 6.84375 -3.25 6.84375 -3.71875 C 6.84375 -4.175781 6.785156 -4.59375 6.671875 -4.96875 C 6.554688 -5.351562 6.394531 -5.679688 6.1875 -5.953125 C 5.988281 -6.234375 5.742188 -6.445312 5.453125 -6.59375 C 5.171875 -6.75 4.859375 -6.828125 4.515625 -6.828125 Z M 4.515625 -6.828125 "/></g></g></g><g fill="#ffffff" fill-opacity="1"><g transform="translate(234.285811, 267.292804)"><g><path d="M 3 -2.171875 C 3 -1.796875 3.003906 -1.5 3.015625 -1.28125 C 3.035156 -1.0625 3.082031 -0.894531 3.15625 -0.78125 C 3.238281 -0.664062 3.359375 -0.585938 3.515625 -0.546875 C 3.671875 -0.515625 3.882812 -0.488281 4.15625 -0.46875 L 4.15625 0 L 0.515625 0 L 0.515625 -0.46875 C 0.773438 -0.488281 0.976562 -0.515625 1.125 -0.546875 C 1.28125 -0.585938 1.398438 -0.660156 1.484375 -0.765625 C 1.566406 -0.878906 1.617188 -1.035156 1.640625 -1.234375 C 1.660156 -1.441406 1.671875 -1.722656 1.671875 -2.078125 L 1.671875 -3.921875 C 1.671875 -5.023438 1.644531 -5.695312 1.59375 -5.9375 C 1.5625 -6.0625 1.523438 -6.160156 1.484375 -6.234375 C 1.441406 -6.316406 1.378906 -6.378906 1.296875 -6.421875 C 1.210938 -6.460938 1.109375 -6.488281 0.984375 -6.5 C 0.859375 -6.507812 0.691406 -6.515625 0.484375 -6.515625 L 0.484375 -6.96875 L 2.703125 -7.5 L 2.875 -6.125 L 2.921875 -6.125 C 3.273438 -6.550781 3.6875 -6.882812 4.15625 -7.125 C 4.632812 -7.375 5.148438 -7.5 5.703125 -7.5 C 6.128906 -7.5 6.515625 -7.425781 6.859375 -7.28125 C 7.210938 -7.144531 7.484375 -6.957031 7.671875 -6.71875 C 7.828125 -6.5 7.9375 -6.222656 8 -5.890625 C 8.070312 -5.554688 8.109375 -5.09375 8.109375 -4.5 L 8.109375 -2.171875 C 8.109375 -1.796875 8.117188 -1.5 8.140625 -1.28125 C 8.160156 -1.0625 8.207031 -0.894531 8.28125 -0.78125 C 8.351562 -0.664062 8.46875 -0.585938 8.625 -0.546875 C 8.78125 -0.515625 8.984375 -0.488281 9.234375 -0.46875 L 9.234375 0 L 5.640625 0 L 5.640625 -0.46875 C 5.890625 -0.476562 6.09375 -0.503906 6.25 -0.546875 C 6.40625 -0.585938 6.519531 -0.660156 6.59375 -0.765625 C 6.675781 -0.878906 6.726562 -1.039062 6.75 -1.25 C 6.769531 -1.457031 6.78125 -1.734375 6.78125 -2.078125 L 6.78125 -3.90625 C 6.78125 -4.4375 6.753906 -4.878906 6.703125 -5.234375 C 6.648438 -5.597656 6.5625 -5.890625 6.4375 -6.109375 C 6.3125 -6.335938 6.144531 -6.5 5.9375 -6.59375 C 5.738281 -6.695312 5.492188 -6.75 5.203125 -6.75 C 4.785156 -6.75 4.398438 -6.640625 4.046875 -6.421875 C 3.703125 -6.203125 3.4375 -5.898438 3.25 -5.515625 C 3.195312 -5.429688 3.15625 -5.347656 3.125 -5.265625 C 3.09375 -5.179688 3.066406 -5.082031 3.046875 -4.96875 C 3.035156 -4.851562 3.023438 -4.722656 3.015625 -4.578125 C 3.003906 -4.441406 3 -4.257812 3 -4.03125 Z M 3 -2.171875 "/></g></g></g></svg>