<svg xmlns="http://www.w3.org/2000/svg" xmlns:xlink="http://www.w3.org/1999/xlink" width="500" zoomAndPan="magnify" viewBox="0 0 375 374.999991" height="500" preserveAspectRatio="xMidYMid meet" version="1.0"><defs><g/></defs><path fill="#000000" d="M 124.140625 208.398438 C 128.511719 208.109375 134.050781 206.65625 139.003906 206.363281 C 148.039062 205.492188 158.53125 203.746094 169.019531 202.875 C 178.054688 202.003906 189.710938 199.09375 199.910156 199.675781 C 219.144531 201.128906 239.835938 193.277344 243.625 194.152344 C 246.539062 198.804688 244.207031 207.816406 242.75 212.179688 C 241.875 215.960938 241 216.25 237.210938 217.414062 C 226.429688 220.902344 218.851562 219.738281 207.777344 220.320312 C 200.785156 220.902344 194.957031 221.777344 188.253906 222.648438 C 179.804688 224.101562 157.65625 226.136719 148.914062 226.136719 C 142.792969 226.429688 134.925781 225.554688 130.554688 222.648438 C 124.433594 218.867188 123.269531 215.960938 124.140625 208.398438 Z M 148.039062 135.703125 L 148.039062 138.03125 C 150.371094 139.777344 149.203125 139.484375 152.410156 139.777344 C 153.285156 138.320312 154.449219 137.160156 152.703125 135.414062 C 150.953125 133.667969 149.203125 134.832031 148.039062 135.703125 Z M 150.953125 145.007812 L 150.953125 146.753906 C 153.574219 149.371094 157.363281 149.371094 156.78125 144.71875 C 154.160156 142.683594 153.285156 143.554688 150.953125 145.007812 Z M 164.941406 127.851562 C 162.609375 126.109375 157.945312 126.398438 159.695312 129.890625 C 160.277344 131.050781 165.523438 133.667969 164.941406 127.851562 Z M 174.265625 137.449219 C 175.433594 133.667969 170.769531 133.378906 169.601562 135.414062 C 168.4375 138.03125 171.933594 139.195312 174.265625 137.449219 Z M 186.503906 147.046875 C 189.417969 148.5 191.167969 149.082031 192.917969 146.464844 C 192.042969 142.390625 186.214844 141.230469 186.503906 147.046875 Z M 205.449219 149.082031 C 208.363281 149.660156 208.945312 149.371094 208.945312 146.464844 L 205.449219 146.171875 Z M 212.734375 137.449219 L 212.441406 140.066406 C 214.191406 140.9375 214.773438 141.230469 216.8125 140.9375 L 217.394531 138.03125 C 215.648438 136.578125 215.066406 136.285156 212.734375 137.449219 Z M 193.792969 131.925781 C 199.910156 131.34375 199.621094 126.398438 193.207031 127.273438 C 191.75 129.597656 192.332031 129.597656 193.792969 131.925781 Z M 176.597656 126.398438 C 178.054688 127.273438 179.804688 128.144531 181.550781 126.980469 C 182.71875 125.816406 181.550781 124.363281 180.96875 123.199219 C 177.761719 123.199219 176.015625 122.621094 176.597656 126.398438 Z M 127.347656 189.207031 C 131.136719 186.882812 135.507812 188.046875 140.460938 187.171875 C 143.375 186.589844 143.375 185.71875 146.582031 185.71875 C 148.914062 186.007812 151.828125 186.589844 153.867188 186.589844 C 157.65625 186.589844 156.199219 185.429688 160.570312 186.882812 C 163.773438 188.046875 164.066406 187.171875 167.5625 187.464844 C 170.1875 187.464844 171.351562 188.917969 174.558594 188.046875 C 177.179688 187.171875 177.472656 185.71875 179.804688 185.136719 C 180.96875 184.847656 182.132812 185.136719 183.589844 184.554688 C 185.046875 183.972656 185.046875 183.683594 186.214844 183.390625 C 189.128906 182.8125 191.167969 183.683594 193.5 183.683594 C 199.621094 183.972656 199.328125 180.777344 206.90625 181.355469 L 229.050781 180.777344 C 231.675781 180.484375 233.421875 179.613281 236.046875 179.613281 C 235.753906 183.390625 236.921875 180.484375 231.964844 183.683594 C 229.34375 185.136719 228.761719 184.554688 225.847656 185.429688 C 208.652344 190.371094 203.117188 189.789062 183.882812 190.371094 C 169.894531 190.660156 154.160156 195.316406 140.753906 193.277344 C 136.382812 192.699219 132.300781 191.535156 127.929688 190.953125 Z M 115.109375 176.414062 C 115.109375 172.34375 118.023438 173.507812 120.355469 174.960938 C 123.269531 176.703125 125.015625 176.121094 127.640625 174.960938 C 129.386719 174.085938 132.300781 175.832031 134.34375 176.703125 C 142.210938 179.320312 145.125 176.121094 150.371094 176.703125 C 166.105469 177.867188 204.863281 173.796875 221.183594 172.050781 C 224.097656 171.761719 227.59375 172.050781 230.21875 171.46875 C 241.292969 168.5625 236.046875 165.363281 240.417969 163.039062 C 243.039062 165.945312 243.914062 168.851562 247.996094 164.199219 C 248.285156 165.945312 247.703125 166.238281 246.828125 167.398438 C 241.875 172.34375 239.253906 173.214844 230.507812 174.960938 C 229.925781 174.960938 220.308594 174.960938 213.898438 175.832031 C 208.945312 176.703125 207.195312 173.507812 198.164062 176.996094 C 193.207031 178.738281 194.664062 177.867188 189.710938 177.578125 L 176.304688 179.03125 C 175.140625 179.613281 174.558594 180.484375 173.683594 181.355469 C 171.644531 183.101562 170.476562 181.066406 166.398438 181.355469 C 159.695312 181.648438 161.734375 180.195312 159.113281 179.613281 C 155.90625 179.03125 155.617188 181.066406 150.953125 180.195312 C 148.328125 179.613281 145.125 179.320312 142.210938 180.195312 C 139.585938 181.355469 136.964844 181.355469 134.050781 181.066406 C 129.386719 181.066406 130.554688 181.066406 127.054688 182.8125 C 122.101562 180.195312 121.8125 183.101562 117.441406 183.683594 C 118.3125 182.230469 120.355469 181.648438 119.480469 179.03125 C 118.605469 176.414062 116.855469 177.285156 115.109375 176.414062 Z M 126.472656 165.65625 C 126.183594 159.546875 128.222656 153.734375 130.554688 149.371094 C 133.46875 143.847656 134.925781 141.8125 138.714844 137.738281 C 144.25 131.34375 155.324219 125.816406 163.773438 123.199219 C 168.730469 121.746094 175.433594 120.585938 180.96875 120.003906 C 188.253906 119.128906 205.738281 123.78125 212.148438 127.851562 C 213.898438 129.015625 216.523438 130.46875 217.980469 131.925781 C 220.601562 133.667969 227.304688 142.390625 229.34375 145.589844 C 232.550781 149.660156 231.382812 149.371094 232.839844 151.988281 C 235.753906 156.640625 234.007812 158.96875 232.839844 161.875 C 232.550781 163.039062 233.132812 162.457031 232.257812 163.621094 C 230.800781 166.238281 219.144531 166.527344 215.355469 166.816406 C 194.375 168.851562 171.058594 172.050781 150.371094 171.761719 C 145.707031 171.761719 144.832031 170.890625 141.335938 170.308594 C 136.382812 169.726562 134.050781 169.726562 129.386719 167.691406 C 127.640625 166.816406 127.929688 166.527344 126.472656 165.65625 Z M 120.644531 168.5625 C 117.441406 167.980469 113.652344 167.691406 111.027344 170.308594 C 108.695312 172.632812 107.824219 175.832031 109.863281 178.738281 C 113.070312 183.390625 107.238281 183.683594 111.613281 186.882812 C 114.816406 189.789062 117.148438 188.917969 121.8125 188.625 C 121.519531 190.371094 121.8125 191.535156 122.101562 193.277344 C 122.394531 196.1875 122.101562 195.023438 124.140625 196.476562 C 122.683594 199.386719 122.394531 197.058594 122.976562 201.421875 C 121.519531 202.003906 119.480469 203.164062 118.023438 203.746094 C 117.441406 207.238281 117.441406 213.632812 117.730469 217.121094 C 118.023438 221.777344 120.355469 222.355469 123.558594 224.683594 C 137.257812 235.152344 149.203125 231.660156 167.855469 230.207031 C 175.722656 229.625 184.175781 229.046875 192.042969 227.882812 C 205.449219 225.847656 202.535156 226.136719 216.230469 225.554688 C 222.640625 225.265625 234.589844 224.972656 240.125 222.648438 C 251.199219 217.996094 245.953125 220.03125 250.617188 206.65625 C 251.78125 203.164062 251.199219 198.222656 250.910156 194.152344 C 250.617188 188.917969 248.285156 189.5 243.625 188.335938 C 242.75 183.972656 243.625 184.847656 241.292969 181.648438 C 241.875 176.414062 243.332031 177.578125 246.539062 175.25 C 251.492188 171.761719 257.027344 166.527344 252.949219 160.421875 C 250.617188 156.640625 246.539062 158.96875 244.496094 160.421875 L 240.125 158.675781 C 239.253906 152.277344 237.503906 148.789062 234.589844 143.554688 C 232.550781 140.066406 228.179688 134.832031 225.554688 131.632812 C 215.355469 119.421875 188.546875 112.152344 173.683594 115.058594 C 165.816406 116.511719 157.945312 117.96875 151.828125 120.875 C 148.039062 122.910156 137.546875 128.726562 134.925781 131.925781 L 128.804688 139.484375 C 126.472656 143.265625 125.597656 144.136719 123.851562 148.5 C 122.976562 150.824219 118.3125 161.875 118.3125 163.621094 C 118.3125 165.65625 120.0625 166.527344 120.644531 168.5625 Z M 120.644531 168.5625 " fill-opacity="1" fill-rule="evenodd"/><path fill="#ff9933" d="M 124.140625 208.398438 C 123.269531 215.960938 124.433594 218.867188 130.554688 222.648438 C 134.925781 225.554688 142.792969 226.429688 148.914062 226.136719 C 157.65625 226.136719 179.804688 224.101562 188.253906 222.648438 C 194.957031 221.777344 200.785156 220.902344 207.777344 220.320312 C 218.851562 219.738281 226.429688 220.902344 237.210938 217.414062 C 241 216.25 241.875 215.960938 242.75 212.179688 C 244.207031 207.816406 246.539062 198.804688 243.625 194.152344 C 239.835938 193.277344 219.144531 201.128906 199.910156 199.675781 C 189.710938 199.09375 178.054688 202.003906 169.019531 202.875 C 158.53125 203.746094 148.039062 205.492188 139.003906 206.363281 C 134.050781 206.65625 128.511719 208.109375 124.140625 208.398438 Z M 205.449219 146.171875 L 208.945312 146.464844 C 208.945312 149.371094 208.363281 149.660156 205.449219 149.082031 Z M 186.503906 147.046875 C 186.214844 141.230469 192.042969 142.390625 192.917969 146.464844 C 191.167969 149.082031 189.417969 148.5 186.503906 147.046875 Z M 150.953125 145.007812 C 153.285156 143.554688 154.160156 142.683594 156.78125 144.71875 C 157.363281 149.371094 153.574219 149.371094 150.953125 146.753906 Z M 212.734375 137.449219 C 215.066406 136.285156 215.648438 136.578125 217.394531 138.03125 L 216.8125 140.9375 C 214.773438 141.230469 214.191406 140.9375 212.441406 140.066406 Z M 148.039062 135.703125 C 149.203125 134.832031 150.953125 133.667969 152.703125 135.414062 C 154.449219 137.160156 153.285156 138.320312 152.410156 139.777344 C 149.203125 139.484375 150.371094 139.777344 148.039062 138.03125 Z M 174.265625 137.449219 C 171.933594 139.195312 168.4375 138.03125 169.601562 135.414062 C 170.769531 133.378906 175.433594 133.667969 174.265625 137.449219 Z M 193.792969 131.925781 C 192.332031 129.597656 191.75 129.597656 193.207031 127.273438 C 199.621094 126.398438 199.910156 131.34375 193.792969 131.925781 Z M 164.941406 127.851562 C 165.523438 133.667969 160.277344 131.050781 159.695312 129.890625 C 157.945312 126.398438 162.609375 126.109375 164.941406 127.851562 Z M 176.597656 126.398438 C 176.015625 122.621094 177.761719 123.199219 180.96875 123.199219 C 181.550781 124.363281 182.71875 125.816406 181.550781 126.980469 C 179.804688 128.144531 178.054688 127.273438 176.597656 126.398438 Z M 126.472656 165.65625 C 127.929688 166.527344 127.640625 166.816406 129.386719 167.691406 C 134.050781 169.726562 136.382812 169.726562 141.335938 170.308594 C 144.832031 170.890625 145.707031 171.761719 150.371094 171.761719 C 171.058594 172.050781 194.375 168.851562 215.355469 166.816406 C 219.144531 166.527344 230.800781 166.238281 232.257812 163.621094 C 233.132812 162.457031 232.550781 163.039062 232.839844 161.875 C 234.007812 158.96875 235.753906 156.640625 232.839844 151.988281 C 231.382812 149.371094 232.550781 149.660156 229.34375 145.589844 C 227.304688 142.390625 220.601562 133.667969 217.980469 131.925781 C 216.523438 130.46875 213.898438 129.015625 212.148438 127.851562 C 205.738281 123.78125 188.253906 119.128906 180.96875 120.003906 C 175.433594 120.585938 168.730469 121.746094 163.773438 123.199219 C 155.324219 125.816406 144.25 131.34375 138.714844 137.738281 C 134.925781 141.8125 133.46875 143.847656 130.554688 149.371094 C 128.222656 153.734375 126.183594 159.546875 126.472656 165.65625 Z M 126.472656 165.65625 " fill-opacity="1" fill-rule="evenodd"/><path fill="#e62129" d="M 127.347656 189.207031 L 127.929688 190.953125 C 132.300781 191.535156 136.382812 192.699219 140.753906 193.277344 C 154.160156 195.316406 169.894531 190.660156 183.882812 190.371094 C 203.117188 189.789062 208.652344 190.371094 225.847656 185.429688 C 228.761719 184.554688 229.34375 185.136719 231.964844 183.683594 C 236.921875 180.484375 235.753906 183.390625 236.046875 179.613281 C 233.421875 179.613281 231.675781 180.484375 229.050781 180.777344 L 206.90625 181.355469 C 199.328125 180.777344 199.621094 183.972656 193.5 183.683594 C 191.167969 183.683594 189.128906 182.8125 186.214844 183.390625 C 185.046875 183.683594 185.046875 183.972656 183.589844 184.554688 C 182.132812 185.136719 180.96875 184.847656 179.804688 185.136719 C 177.472656 185.71875 177.179688 187.171875 174.558594 188.046875 C 171.351562 188.917969 170.1875 187.464844 167.5625 187.464844 C 164.066406 187.171875 163.773438 188.046875 160.570312 186.882812 C 156.199219 185.429688 157.65625 186.589844 153.867188 186.589844 C 151.828125 186.589844 148.914062 186.007812 146.582031 185.71875 C 143.375 185.71875 143.375 186.589844 140.460938 187.171875 C 135.507812 188.046875 131.136719 186.882812 127.347656 189.207031 Z M 127.347656 189.207031 " fill-opacity="1" fill-rule="evenodd"/><path fill="#009b4c" d="M 115.109375 176.414062 C 116.855469 177.285156 118.605469 176.414062 119.480469 179.03125 C 120.355469 181.648438 118.3125 182.230469 117.441406 183.683594 C 121.8125 183.101562 122.101562 180.195312 127.054688 182.8125 C 130.554688 181.066406 129.386719 181.066406 134.050781 181.066406 C 136.964844 181.355469 139.585938 181.355469 142.210938 180.195312 C 145.125 179.320312 148.328125 179.613281 150.953125 180.195312 C 155.617188 181.066406 155.90625 179.03125 159.113281 179.613281 C 161.734375 180.195312 159.695312 181.648438 166.398438 181.355469 C 170.476562 181.066406 171.644531 183.101562 173.683594 181.355469 C 174.558594 180.484375 175.140625 179.613281 176.304688 179.03125 L 189.710938 177.578125 C 194.664062 177.867188 193.207031 178.738281 198.164062 176.996094 C 207.195312 173.507812 208.945312 176.703125 213.898438 175.832031 C 220.308594 174.960938 229.925781 174.960938 230.507812 174.960938 C 239.253906 173.214844 241.875 172.34375 246.828125 167.398438 C 247.703125 166.238281 248.285156 165.945312 247.996094 164.199219 C 243.914062 168.851562 243.039062 165.945312 240.417969 163.039062 C 236.046875 165.363281 241.292969 168.5625 230.21875 171.46875 C 227.59375 172.050781 224.097656 171.761719 221.183594 172.050781 C 204.863281 173.796875 166.105469 177.867188 150.371094 176.703125 C 145.125 176.121094 142.210938 179.320312 134.34375 176.703125 C 132.300781 175.832031 129.386719 174.085938 127.640625 174.960938 C 125.015625 176.121094 123.269531 176.703125 120.355469 174.960938 C 118.023438 173.507812 115.109375 172.34375 115.109375 176.414062 Z M 115.109375 176.414062 " fill-opacity="1" fill-rule="evenodd"/><g fill="#ffffff" fill-opacity="1"><g transform="translate(90.17578, 272.001575)"><g><path d="M 7.136719 -23.847656 C 4.128906 -23.847656 1.914062 -23.769531 1.878906 -21.707031 C 1.878906 -22.417969 2.253906 -18.402344 2.289062 -17.238281 C 2.402344 -15.019531 2.402344 -12.582031 2.328125 -10.628906 C 2.214844 -8.5625 1.765625 -3.753906 1.765625 -2.589844 C 1.765625 -0.902344 2.367188 0.113281 3.71875 0.113281 C 4.542969 0.113281 5.484375 -0.414062 5.484375 -1.578125 C 5.484375 -2.367188 5.40625 -4.128906 5.484375 -5.371094 C 5.632812 -7.324219 5.859375 -9.3125 5.933594 -11.339844 C 8.898438 -12.015625 17.085938 -14.496094 17.085938 -18.777344 C 17.085938 -22.195312 13.519531 -23.921875 7.136719 -23.847656 Z M 1.878906 -21.707031 C 1.878906 -21.667969 1.878906 -21.667969 1.878906 -21.667969 Z M 5.933594 -14.945312 C 5.894531 -16.710938 5.820312 -18.4375 5.671875 -20.164062 C 6.871094 -20.242188 8.523438 -20.316406 10.25 -19.941406 C 11.265625 -19.753906 12.957031 -19.714844 12.957031 -18.699219 C 12.957031 -17.050781 7.433594 -15.398438 5.933594 -14.945312 Z M 5.933594 -14.945312 "/></g></g></g><g fill="#ffffff" fill-opacity="1"><g transform="translate(108.085611, 272.001575)"><g><path d="M 4.582031 -20.804688 C 5.59375 -20.804688 6.421875 -21.78125 6.421875 -22.792969 C 6.421875 -23.359375 6.160156 -23.921875 5.519531 -24.296875 C 5.21875 -24.445312 4.917969 -24.523438 4.617188 -24.523438 C 3.605469 -24.523438 2.777344 -23.546875 2.777344 -22.53125 C 2.777344 -21.96875 3.042969 -21.40625 3.679688 -21.03125 C 3.980469 -20.878906 4.28125 -20.804688 4.582031 -20.804688 Z M 3.71875 0 C 4.695312 0 5.671875 -0.75 5.707031 -1.839844 C 5.78125 -5.332031 5.746094 -9.761719 5.78125 -13.257812 C 5.78125 -13.78125 5.894531 -14.53125 5.894531 -15.285156 C 5.894531 -16.035156 5.78125 -16.785156 5.332031 -17.238281 C 4.957031 -17.613281 4.507812 -17.761719 4.054688 -17.761719 C 3.042969 -17.761719 2.101562 -17.011719 2.066406 -15.921875 C 1.992188 -12.429688 1.992188 -8 1.992188 -4.507812 C 1.992188 -3.980469 1.878906 -3.230469 1.878906 -2.476562 C 1.878906 -1.726562 1.992188 -0.976562 2.441406 -0.527344 C 2.816406 -0.148438 3.265625 0 3.71875 0 Z M 3.71875 0 "/></g></g></g><g fill="#ffffff" fill-opacity="1"><g transform="translate(115.444791, 272.001575)"><g><path d="M 11.753906 0 C 13.105469 0 13.894531 -0.863281 13.894531 -1.914062 C 13.894531 -4.054688 8.5625 -3.90625 7.285156 -4.054688 C 8.789062 -6.269531 10.628906 -8.222656 12.617188 -9.953125 C 13.554688 -10.738281 14.644531 -11.191406 14.644531 -12.65625 C 14.644531 -13.519531 14.230469 -14.34375 13.332031 -14.570312 C 10.664062 -15.285156 3.605469 -15.996094 2.214844 -14.042969 C 1.992188 -13.707031 1.878906 -13.367188 1.878906 -12.992188 C 1.878906 -12.09375 2.589844 -11.226562 3.644531 -11.226562 C 5.332031 -11.226562 6.945312 -11.714844 8.597656 -11.714844 C 8.824219 -11.714844 9.050781 -11.679688 9.277344 -11.679688 C 7.171875 -9.761719 5.332031 -7.546875 3.792969 -5.144531 C 3.191406 -4.28125 2.214844 -3.042969 2.214844 -1.914062 C 2.214844 -0.902344 3.042969 -0.1875 3.980469 -0.1875 C 4.320312 -0.1875 4.65625 -0.300781 4.957031 -0.488281 C 5.894531 -1.089844 8.261719 -0.375 9.574219 -0.261719 C 10.214844 -0.1875 11.003906 0 11.753906 0 Z M 11.753906 0 "/></g></g></g><g fill="#ffffff" fill-opacity="1"><g transform="translate(131.026721, 272.001575)"><g><path d="M 11.753906 0 C 13.105469 0 13.894531 -0.863281 13.894531 -1.914062 C 13.894531 -4.054688 8.5625 -3.90625 7.285156 -4.054688 C 8.789062 -6.269531 10.628906 -8.222656 12.617188 -9.953125 C 13.554688 -10.738281 14.644531 -11.191406 14.644531 -12.65625 C 14.644531 -13.519531 14.230469 -14.34375 13.332031 -14.570312 C 10.664062 -15.285156 3.605469 -15.996094 2.214844 -14.042969 C 1.992188 -13.707031 1.878906 -13.367188 1.878906 -12.992188 C 1.878906 -12.09375 2.589844 -11.226562 3.644531 -11.226562 C 5.332031 -11.226562 6.945312 -11.714844 8.597656 -11.714844 C 8.824219 -11.714844 9.050781 -11.679688 9.277344 -11.679688 C 7.171875 -9.761719 5.332031 -7.546875 3.792969 -5.144531 C 3.191406 -4.28125 2.214844 -3.042969 2.214844 -1.914062 C 2.214844 -0.902344 3.042969 -0.1875 3.980469 -0.1875 C 4.320312 -0.1875 4.65625 -0.300781 4.957031 -0.488281 C 5.894531 -1.089844 8.261719 -0.375 9.574219 -0.261719 C 10.214844 -0.1875 11.003906 0 11.753906 0 Z M 11.753906 0 "/></g></g></g><g fill="#ffffff" fill-opacity="1"><g transform="translate(146.608652, 272.001575)"><g><path d="M 5.972656 -0.0742188 C 7.921875 0.113281 9.875 -0.148438 12.167969 -1.125 C 12.316406 -1.203125 12.46875 -1.277344 12.582031 -1.351562 C 13.96875 -1.164062 14.007812 -1.050781 14.644531 -1.351562 C 15.660156 -1.878906 15.695312 -2.855469 15.734375 -3.867188 C 15.960938 -7.097656 16.5625 -10.363281 16.5625 -13.59375 C 16.5625 -14.609375 16.5625 -15.808594 16.183594 -17.726562 C 15.320312 -21.292969 11.867188 -24.144531 8.375 -24.144531 C 7.136719 -24.144531 5.859375 -23.808594 4.730469 -22.980469 C 3.753906 -22.269531 2.253906 -20.542969 2.253906 -19.078125 C 2.253906 -17.988281 3.265625 -17.273438 4.167969 -17.273438 C 4.882812 -17.273438 5.632812 -17.648438 5.894531 -18.324219 C 7.210938 -21.742188 11.378906 -20.390625 12.429688 -16.9375 C 7.847656 -14.796875 5.632812 -13.667969 3.679688 -11.414062 C 2.328125 -9.875 0.9375 -7.625 0.9375 -5.445312 C 0.9375 -2.929688 2.703125 -0.527344 5.972656 -0.0742188 Z M 7.171875 -3.832031 C 5.78125 -3.980469 5.105469 -4.019531 4.808594 -4.996094 C 4.730469 -5.746094 4.996094 -6.460938 5.332031 -7.097656 C 6.871094 -10.027344 9.914062 -11.527344 12.730469 -12.878906 C 12.65625 -10.175781 12.203125 -7.511719 12.015625 -4.808594 C 11.605469 -4.917969 11.753906 -4.84375 10.664062 -4.65625 C 9.574219 -4.207031 8.375 -3.832031 7.171875 -3.832031 Z M 7.171875 -3.832031 "/></g></g></g><g fill="#ffffff" fill-opacity="1"><g transform="translate(173.492172, 272.001575)"><g><path d="M 12.167969 -0.0742188 C 17.6875 -0.75 18.890625 -4.542969 18.890625 -7.472656 C 18.890625 -9.3125 18.476562 -11.265625 17.425781 -12.730469 C 16.222656 -14.496094 14.082031 -15.171875 12.054688 -15.472656 C 10.890625 -15.660156 8.863281 -15.773438 8.863281 -17.5 C 8.863281 -19 10.589844 -20.992188 11.679688 -21.554688 C 12.617188 -22.003906 13.746094 -22.117188 14.796875 -22.042969 C 15.808594 -21.929688 16.785156 -21.292969 17.835938 -21.292969 C 18.964844 -21.292969 19.867188 -22.304688 19.867188 -23.28125 C 19.867188 -23.808594 19.601562 -24.335938 18.925781 -24.632812 C 17.574219 -25.273438 16.035156 -25.574219 14.457031 -25.574219 C 10.140625 -25.574219 5.746094 -23.132812 5.183594 -18.476562 C 4.769531 -14.757812 6.835938 -12.917969 11.117188 -11.792969 C 13.445312 -11.152344 15.097656 -10.363281 15.097656 -8.074219 C 15.097656 -6.984375 14.683594 -5.859375 13.96875 -5.144531 C 12.128906 -3.378906 7.847656 -3.644531 5.707031 -5.03125 C 4.617188 -5.746094 5.03125 -7.097656 4.019531 -7.847656 C 3.15625 -8.449219 1.613281 -8.449219 1.164062 -7.359375 C 1.015625 -7.023438 0.9375 -6.683594 0.9375 -6.347656 C 0.9375 -4.394531 3.078125 -2.402344 4.507812 -1.578125 C 7.097656 -0.113281 10.363281 0.1875 12.167969 -0.0742188 Z M 12.167969 -0.0742188 "/></g></g></g><g fill="#ffffff" fill-opacity="1"><g transform="translate(194.2931, 272.001575)"><g><path d="M 8.863281 -0.226562 C 9.761719 -0.714844 9.914062 -1.464844 9.914062 -2.328125 C 9.914062 -3.417969 9.425781 -7.097656 9.425781 -9.085938 C 9.425781 -13.667969 9.277344 -13.40625 9.277344 -13.96875 C 9.277344 -14.230469 9.386719 -14.34375 9.875 -14.421875 C 10.628906 -14.457031 11.492188 -14.421875 12.167969 -14.683594 C 12.878906 -14.984375 13.179688 -15.621094 13.179688 -16.222656 C 13.179688 -17.273438 12.355469 -18.363281 11.152344 -18.289062 L 9.386719 -18.101562 C 9.539062 -19.714844 10.027344 -21.179688 10.25 -22.757812 C 10.402344 -24.109375 9.125 -25.046875 8.1875 -25.046875 C 6.160156 -25.046875 6.007812 -20.878906 5.859375 -19.453125 C 5.78125 -18.699219 6.082031 -17.800781 5.183594 -17.726562 L 2.554688 -17.5 C 1.613281 -17.386719 0.9375 -16.636719 0.9375 -15.585938 C 0.9375 -14.15625 2.140625 -13.820312 3.378906 -13.820312 C 4.207031 -13.820312 5.070312 -13.96875 5.671875 -14.007812 C 5.707031 -12.015625 5.859375 -7.136719 6.007812 -5.144531 C 6.082031 -4.054688 5.746094 -1.503906 6.570312 -0.5625 C 7.136719 0.113281 8.1875 0.113281 8.863281 -0.226562 Z M 8.863281 -0.226562 "/></g></g></g><g fill="#ffffff" fill-opacity="1"><g transform="translate(208.410703, 272.001575)"><g><path d="M 5.972656 -0.0742188 C 7.921875 0.113281 9.875 -0.148438 12.167969 -1.125 C 12.316406 -1.203125 12.46875 -1.277344 12.582031 -1.351562 C 13.96875 -1.164062 14.007812 -1.050781 14.644531 -1.351562 C 15.660156 -1.878906 15.695312 -2.855469 15.734375 -3.867188 C 15.960938 -7.097656 16.5625 -10.363281 16.5625 -13.59375 C 16.5625 -14.609375 16.5625 -15.808594 16.183594 -17.726562 C 15.320312 -21.292969 11.867188 -24.144531 8.375 -24.144531 C 7.136719 -24.144531 5.859375 -23.808594 4.730469 -22.980469 C 3.753906 -22.269531 2.253906 -20.542969 2.253906 -19.078125 C 2.253906 -17.988281 3.265625 -17.273438 4.167969 -17.273438 C 4.882812 -17.273438 5.632812 -17.648438 5.894531 -18.324219 C 7.210938 -21.742188 11.378906 -20.390625 12.429688 -16.9375 C 7.847656 -14.796875 5.632812 -13.667969 3.679688 -11.414062 C 2.328125 -9.875 0.9375 -7.625 0.9375 -5.445312 C 0.9375 -2.929688 2.703125 -0.527344 5.972656 -0.0742188 Z M 7.171875 -3.832031 C 5.78125 -3.980469 5.105469 -4.019531 4.808594 -4.996094 C 4.730469 -5.746094 4.996094 -6.460938 5.332031 -7.097656 C 6.871094 -10.027344 9.914062 -11.527344 12.730469 -12.878906 C 12.65625 -10.175781 12.203125 -7.511719 12.015625 -4.808594 C 11.605469 -4.917969 11.753906 -4.84375 10.664062 -4.65625 C 9.574219 -4.207031 8.375 -3.832031 7.171875 -3.832031 Z M 7.171875 -3.832031 "/></g></g></g><g fill="#ffffff" fill-opacity="1"><g transform="translate(225.907516, 272.001575)"><g><path d="M 8.863281 -0.226562 C 9.761719 -0.714844 9.914062 -1.464844 9.914062 -2.328125 C 9.914062 -3.417969 9.425781 -7.097656 9.425781 -9.085938 C 9.425781 -13.667969 9.277344 -13.40625 9.277344 -13.96875 C 9.277344 -14.230469 9.386719 -14.34375 9.875 -14.421875 C 10.628906 -14.457031 11.492188 -14.421875 12.167969 -14.683594 C 12.878906 -14.984375 13.179688 -15.621094 13.179688 -16.222656 C 13.179688 -17.273438 12.355469 -18.363281 11.152344 -18.289062 L 9.386719 -18.101562 C 9.539062 -19.714844 10.027344 -21.179688 10.25 -22.757812 C 10.402344 -24.109375 9.125 -25.046875 8.1875 -25.046875 C 6.160156 -25.046875 6.007812 -20.878906 5.859375 -19.453125 C 5.78125 -18.699219 6.082031 -17.800781 5.183594 -17.726562 L 2.554688 -17.5 C 1.613281 -17.386719 0.9375 -16.636719 0.9375 -15.585938 C 0.9375 -14.15625 2.140625 -13.820312 3.378906 -13.820312 C 4.207031 -13.820312 5.070312 -13.96875 5.671875 -14.007812 C 5.707031 -12.015625 5.859375 -7.136719 6.007812 -5.144531 C 6.082031 -4.054688 5.746094 -1.503906 6.570312 -0.5625 C 7.136719 0.113281 8.1875 0.113281 8.863281 -0.226562 Z M 8.863281 -0.226562 "/></g></g></g><g fill="#ffffff" fill-opacity="1"><g transform="translate(240.025118, 272.001575)"><g><path d="M 4.582031 -20.804688 C 5.59375 -20.804688 6.421875 -21.78125 6.421875 -22.792969 C 6.421875 -23.359375 6.160156 -23.921875 5.519531 -24.296875 C 5.21875 -24.445312 4.917969 -24.523438 4.617188 -24.523438 C 3.605469 -24.523438 2.777344 -23.546875 2.777344 -22.53125 C 2.777344 -21.96875 3.042969 -21.40625 3.679688 -21.03125 C 3.980469 -20.878906 4.28125 -20.804688 4.582031 -20.804688 Z M 3.71875 0 C 4.695312 0 5.671875 -0.75 5.707031 -1.839844 C 5.78125 -5.332031 5.746094 -9.761719 5.78125 -13.257812 C 5.78125 -13.78125 5.894531 -14.53125 5.894531 -15.285156 C 5.894531 -16.035156 5.78125 -16.785156 5.332031 -17.238281 C 4.957031 -17.613281 4.507812 -17.761719 4.054688 -17.761719 C 3.042969 -17.761719 2.101562 -17.011719 2.066406 -15.921875 C 1.992188 -12.429688 1.992188 -8 1.992188 -4.507812 C 1.992188 -3.980469 1.878906 -3.230469 1.878906 -2.476562 C 1.878906 -1.726562 1.992188 -0.976562 2.441406 -0.527344 C 2.816406 -0.148438 3.265625 0 3.71875 0 Z M 3.71875 0 "/></g></g></g><g fill="#ffffff" fill-opacity="1"><g transform="translate(247.384298, 272.001575)"><g><path d="M 7.921875 0 C 9.050781 0 10.175781 -0.226562 11.226562 -0.75 C 14.71875 -2.402344 16.75 -6.535156 16.75 -10.402344 C 16.75 -11.226562 16.636719 -12.054688 16.449219 -12.84375 C 16.410156 -13.03125 15.695312 -14.984375 15.285156 -15.507812 C 14.644531 -16.371094 13.707031 -16.9375 12.730469 -17.347656 C 11.527344 -17.835938 10.214844 -18.136719 8.9375 -18.136719 C 7.773438 -18.136719 6.648438 -17.914062 5.558594 -17.386719 C 2.253906 -15.808594 0.375 -11.640625 0.375 -7.886719 C 0.375 -7.023438 0.488281 -6.195312 0.675781 -5.445312 C 1.578125 -2.066406 4.695312 0 7.921875 0 Z M 8.449219 -3.832031 C 5.558594 -3.566406 4.242188 -5.671875 4.242188 -8.074219 C 4.242188 -8.597656 4.320312 -9.125 4.429688 -9.652344 C 5.03125 -12.09375 6.421875 -14.308594 9.050781 -14.308594 C 9.238281 -14.308594 9.386719 -14.269531 9.574219 -14.269531 C 10.25 -14.15625 12.355469 -13.855469 12.242188 -12.878906 C 12.203125 -12.390625 12.46875 -11.867188 12.804688 -11.527344 C 13.105469 -11.304688 12.957031 -10.140625 12.878906 -9.5 C 12.46875 -7.058594 11.078125 -4.320312 8.449219 -3.832031 Z M 8.449219 -3.832031 "/></g></g></g><g fill="#ffffff" fill-opacity="1"><g transform="translate(265.068841, 272.001575)"><g><path d="M 5.445312 0.449219 C 6.722656 0.449219 7.324219 -0.261719 7.324219 -1.800781 C 7.324219 -2.964844 6.871094 -5.632812 6.308594 -10.890625 C 6.160156 -12.054688 9.613281 -13.933594 11.753906 -14.457031 C 12.28125 -14.71875 13.632812 -14.121094 14.195312 -13.855469 C 14.757812 -13.257812 15.132812 -12.167969 15.132812 -10.515625 C 15.132812 -9.464844 15.019531 -8.449219 15.019531 -7.511719 C 15.019531 -5.445312 14.945312 -4.695312 14.945312 -2.628906 C 14.945312 -2.066406 15.019531 -1.691406 15.171875 -1.425781 C 15.507812 -0.75 16.148438 -0.375 16.859375 -0.375 C 17.761719 -0.375 18.511719 -0.9375 18.699219 -1.765625 C 19 -2.964844 18.925781 -3.078125 18.851562 -10.664062 C 18.851562 -11.640625 18.8125 -12.617188 18.589844 -13.59375 C 17.914062 -16.710938 14.832031 -18.214844 12.167969 -18.214844 C 9.800781 -18.214844 7.660156 -17.085938 5.707031 -15.695312 C 5.558594 -16.972656 5.371094 -18.925781 3.792969 -18.925781 C 2.476562 -18.925781 1.765625 -18.175781 1.765625 -16.75 C 1.765625 -15.808594 2.066406 -14.71875 2.140625 -14.042969 C 2.628906 -10.027344 3.078125 -7.246094 3.453125 -3.230469 C 3.566406 -2.027344 3.492188 0.449219 5.445312 0.449219 Z M 5.445312 0.449219 "/></g></g></g></svg>