<svg xmlns="http://www.w3.org/2000/svg" xmlns:xlink="http://www.w3.org/1999/xlink" width="500" zoomAndPan="magnify" viewBox="0 0 375 374.999991" height="500" preserveAspectRatio="xMidYMid meet" version="1.0"><defs><g/><clipPath id="75e3c38644"><path d="M 99 54 L 277 54 L 277 229 L 99 229 Z M 99 54 " clip-rule="nonzero"/></clipPath><clipPath id="472e341afc"><path d="M 100.746094 50.535156 L 279.917969 55.859375 L 274.441406 240.277344 L 95.269531 234.953125 Z M 100.746094 50.535156 " clip-rule="nonzero"/></clipPath><clipPath id="065d27ff79"><path d="M 100.746094 50.535156 L 279.917969 55.859375 L 274.441406 240.277344 L 95.269531 234.953125 Z M 100.746094 50.535156 " clip-rule="nonzero"/></clipPath><clipPath id="20ad0ca639"><path d="M 111 81 L 240 81 L 240 218 L 111 218 Z M 111 81 " clip-rule="nonzero"/></clipPath><clipPath id="26e27b2bb4"><path d="M 100.746094 50.535156 L 279.917969 55.859375 L 274.441406 240.277344 L 95.269531 234.953125 Z M 100.746094 50.535156 " clip-rule="nonzero"/></clipPath><clipPath id="8f6b0b3847"><path d="M 100.746094 50.535156 L 279.917969 55.859375 L 274.441406 240.277344 L 95.269531 234.953125 Z M 100.746094 50.535156 " clip-rule="nonzero"/></clipPath><clipPath id="63d02b09c0"><path d="M 207 126 L 226 126 L 226 146 L 207 146 Z M 207 126 " clip-rule="nonzero"/></clipPath><clipPath id="2f4ff66829"><path d="M 100.746094 50.535156 L 279.917969 55.859375 L 274.441406 240.277344 L 95.269531 234.953125 Z M 100.746094 50.535156 " clip-rule="nonzero"/></clipPath><clipPath id="758173204b"><path d="M 100.746094 50.535156 L 279.917969 55.859375 L 274.441406 240.277344 L 95.269531 234.953125 Z M 100.746094 50.535156 " clip-rule="nonzero"/></clipPath><clipPath id="305aff94b8"><path d="M 209 64 L 267 64 L 267 187 L 209 187 Z M 209 64 " clip-rule="nonzero"/></clipPath><clipPath id="5af282de8a"><path d="M 100.746094 50.535156 L 279.917969 55.859375 L 274.441406 240.277344 L 95.269531 234.953125 Z M 100.746094 50.535156 " clip-rule="nonzero"/></clipPath><clipPath id="06a2933cab"><path d="M 100.746094 50.535156 L 279.917969 55.859375 L 274.441406 240.277344 L 95.269531 234.953125 Z M 100.746094 50.535156 " clip-rule="nonzero"/></clipPath><clipPath id="0fc27914ac"><path d="M 167 99 L 193 99 L 193 128 L 167 128 Z M 167 99 " clip-rule="nonzero"/></clipPath><clipPath id="6bea67305b"><path d="M 100.746094 50.535156 L 279.917969 55.859375 L 274.441406 240.277344 L 95.269531 234.953125 Z M 100.746094 50.535156 " clip-rule="nonzero"/></clipPath><clipPath id="dfdae29f47"><path d="M 100.746094 50.535156 L 279.917969 55.859375 L 274.441406 240.277344 L 95.269531 234.953125 Z M 100.746094 50.535156 " clip-rule="nonzero"/></clipPath><clipPath id="58f9f54fac"><path d="M 210 163 L 230 163 L 230 176 L 210 176 Z M 210 163 " clip-rule="nonzero"/></clipPath><clipPath id="4f454f5db6"><path d="M 100.746094 50.535156 L 279.917969 55.859375 L 274.441406 240.277344 L 95.269531 234.953125 Z M 100.746094 50.535156 " clip-rule="nonzero"/></clipPath><clipPath id="9fecd6c2b5"><path d="M 100.746094 50.535156 L 279.917969 55.859375 L 274.441406 240.277344 L 95.269531 234.953125 Z M 100.746094 50.535156 " clip-rule="nonzero"/></clipPath><clipPath id="6388eb0bcf"><path d="M 133 140 L 148 140 L 148 156 L 133 156 Z M 133 140 " clip-rule="nonzero"/></clipPath><clipPath id="d70e536f99"><path d="M 100.746094 50.535156 L 279.917969 55.859375 L 274.441406 240.277344 L 95.269531 234.953125 Z M 100.746094 50.535156 " clip-rule="nonzero"/></clipPath><clipPath id="e0f582ba4e"><path d="M 100.746094 50.535156 L 279.917969 55.859375 L 274.441406 240.277344 L 95.269531 234.953125 Z M 100.746094 50.535156 " clip-rule="nonzero"/></clipPath><clipPath id="9d65f3ddb7"><path d="M 160 152 L 197 152 L 197 174 L 160 174 Z M 160 152 " clip-rule="nonzero"/></clipPath><clipPath id="954970c582"><path d="M 100.746094 50.535156 L 279.917969 55.859375 L 274.441406 240.277344 L 95.269531 234.953125 Z M 100.746094 50.535156 " clip-rule="nonzero"/></clipPath><clipPath id="7ac17ff144"><path d="M 100.746094 50.535156 L 279.917969 55.859375 L 274.441406 240.277344 L 95.269531 234.953125 Z M 100.746094 50.535156 " clip-rule="nonzero"/></clipPath><clipPath id="58902b907f"><path d="M 106 61 L 270 61 L 270 222 L 106 222 Z M 106 61 " clip-rule="nonzero"/></clipPath><clipPath id="63a59c5976"><path d="M 100.746094 50.535156 L 279.917969 55.859375 L 274.441406 240.277344 L 95.269531 234.953125 Z M 100.746094 50.535156 " clip-rule="nonzero"/></clipPath><clipPath id="9e989bdb68"><path d="M 100.746094 50.535156 L 279.917969 55.859375 L 274.441406 240.277344 L 95.269531 234.953125 Z M 100.746094 50.535156 " clip-rule="nonzero"/></clipPath><clipPath id="6e86f6a60f"><path d="M 204 122 L 229 122 L 229 150 L 204 150 Z M 204 122 " clip-rule="nonzero"/></clipPath><clipPath id="304c2e8f3d"><path d="M 100.746094 50.535156 L 279.917969 55.859375 L 274.441406 240.277344 L 95.269531 234.953125 Z M 100.746094 50.535156 " clip-rule="nonzero"/></clipPath><clipPath id="01e4a0c949"><path d="M 100.746094 50.535156 L 279.917969 55.859375 L 274.441406 240.277344 L 95.269531 234.953125 Z M 100.746094 50.535156 " clip-rule="nonzero"/></clipPath></defs><g clip-path="url(#75e3c38644)"><g clip-path="url(#472e341afc)"><g clip-path="url(#065d27ff79)"><path fill="#ffffff" d="M 232.984375 187.214844 C 234.765625 193.4375 242.402344 195.210938 248.78125 196.320312 C 255.660156 197.519531 261.714844 196.289062 266.515625 191.214844 C 271.1875 186.273438 274.625 178.554688 275.945312 170.03125 C 276.597656 165.804688 276.8125 153.695312 276.484375 148.097656 C 275.132812 124.664062 268.128906 101.699219 256.765625 83.433594 C 248.753906 70.542969 234.945312 54.523438 219.847656 54.074219 C 213.160156 53.875 211.125 58.039062 204.382812 64.5 C 200.691406 68.03125 197.804688 70.84375 198.746094 76.34375 C 170.226562 101.070312 127.691406 140.398438 105.730469 171.125 C 101.234375 177.417969 96.832031 183.753906 101.664062 189.832031 C 103.835938 192.566406 106.164062 193.292969 109.414062 193.15625 C 110.660156 193.105469 111.871094 192.867188 113.046875 192.445312 C 114.03125 201.820312 122.222656 206.757812 129.730469 203.78125 C 129.09375 227.507812 152.800781 236.667969 164.390625 219.105469 C 170.554688 209.761719 171.988281 195.632812 165.046875 182.109375 C 172.96875 182.164062 215.816406 184.59375 232.984375 187.214844 Z M 232.984375 187.214844 " fill-opacity="1" fill-rule="nonzero"/></g></g></g><g clip-path="url(#20ad0ca639)"><g clip-path="url(#26e27b2bb4)"><g clip-path="url(#8f6b0b3847)"><path fill="#ffc86c" d="M 193.816406 124.402344 C 188.25 134.839844 172.304688 133.140625 166.203125 123.128906 L 165.019531 121.183594 C 163.0625 122.894531 150.984375 135.066406 149.183594 136.898438 C 149.738281 138.3125 150.652344 140.492188 151 142.402344 C 151.339844 144.339844 151.265625 148.636719 150.847656 150.378906 C 150.140625 153.332031 148.03125 156.082031 145.484375 157.375 C 141.726562 159.28125 135.679688 158.960938 132.53125 156.695312 L 131.507812 155.953125 C 121.714844 166.882812 111.113281 180.949219 111.082031 181.914062 C 111.082031 181.988281 114.074219 180.636719 117.734375 178.90625 C 125.058594 175.445312 125.675781 175.277344 126.914062 176.414062 C 129.289062 178.601562 124.09375 183.957031 123.558594 189.796875 C 123.390625 191.5625 123.433594 191.96875 123.847656 192.847656 C 125.195312 195.707031 127.941406 193.367188 128.761719 188.679688 C 129.808594 182.636719 126.714844 177.359375 130.964844 175.464844 C 132.71875 174.683594 141.488281 172.855469 143.347656 172.886719 C 144.800781 172.90625 145 172.972656 145.644531 173.632812 C 146.699219 174.71875 146.871094 175.621094 146.628906 178.90625 C 146.054688 186.742188 140.53125 194.613281 140.230469 204.257812 C 139.972656 212.496094 144.722656 219.296875 150.925781 217.394531 C 152.566406 216.890625 155.285156 214.308594 156.367188 212.230469 C 158.351562 208.40625 159.148438 204.867188 159.105469 200.03125 C 159.050781 193.554688 157.699219 189.796875 152.066406 180.464844 C 149.898438 176.867188 149.519531 175.902344 149.789062 174.714844 C 150.441406 171.761719 154.308594 171.816406 157.34375 171.671875 L 157.5625 169.453125 C 160.035156 144.8125 193.6875 138.617188 199.476562 171.082031 L 199.925781 173.59375 L 207.089844 173.941406 C 208.527344 165.429688 218.511719 157.535156 225.765625 161.257812 C 232.75 164.839844 233.144531 176.191406 233.445312 176.585938 C 233.570312 176.75 239.488281 177.671875 239.574219 177.539062 C 239.65625 177.40625 239.371094 168.15625 239.140625 164.382812 C 237.472656 137.449219 228.085938 107.367188 212.546875 85.304688 C 212.597656 85.304688 209.863281 81.550781 209.636719 81.359375 C 209.367188 81.128906 208.90625 81.414062 207.230469 82.839844 C 203.542969 85.976562 192.449219 95.707031 191.964844 96.222656 C 191.480469 96.742188 191.492188 96.730469 192.1875 97.523438 C 196.640625 102.59375 198.339844 115.914062 193.816406 124.402344 Z M 214.679688 123.25 C 221.835938 121.167969 229.121094 125.953125 228.886719 134.773438 C 228.535156 147.785156 212.089844 154.476562 205.761719 143.957031 C 201.328125 136.582031 205.976562 125.785156 214.679688 123.25 Z M 214.679688 123.25 " fill-opacity="1" fill-rule="nonzero"/></g></g></g><g clip-path="url(#63d02b09c0)"><g clip-path="url(#2f4ff66829)"><g clip-path="url(#758173204b)"><path fill="#e58985" d="M 210.011719 143.609375 C 215.125 148.480469 225.027344 143.722656 225.339844 134.667969 C 225.410156 132.648438 225.351562 132.230469 224.777344 130.882812 C 224.011719 129.0625 222.394531 127.417969 220.796875 126.8125 C 219.929688 126.535156 219.039062 126.386719 218.128906 126.367188 C 209.734375 126.222656 204.167969 138.039062 210.011719 143.609375 Z M 210.011719 143.609375 " fill-opacity="1" fill-rule="nonzero"/></g></g></g><g clip-path="url(#305aff94b8)"><g clip-path="url(#5af282de8a)"><g clip-path="url(#06a2933cab)"><path fill="#ffa800" d="M 241.804688 154.449219 C 242.734375 162.222656 243.234375 172.148438 242.984375 183.925781 C 245.148438 185.023438 250.570312 186.011719 252.339844 186.167969 C 255.464844 186.449219 256.753906 186.0625 258.570312 184.296875 C 261.800781 181.15625 264.371094 175.457031 265.527344 168.863281 C 266.007812 166.109375 266.371094 153.910156 266.101562 149.226562 C 264.96875 129.332031 260.125 111.203125 251.78125 95.617188 C 245.84375 84.523438 233.679688 67.300781 221.253906 64.726562 C 221.3125 64.726562 219.777344 64.433594 219.515625 64.425781 C 218.746094 64.402344 211.71875 72.300781 210.820312 72.769531 C 210.3125 73.03125 209.507812 74.09375 209.132812 74.558594 C 209.636719 75.570312 209.996094 76.507812 212.324219 79.464844 C 229.324219 101.035156 238.992188 130.871094 241.804688 154.449219 Z M 241.804688 154.449219 " fill-opacity="1" fill-rule="nonzero"/></g></g></g><g clip-path="url(#0fc27914ac)"><g clip-path="url(#6bea67305b)"><g clip-path="url(#dfdae29f47)"><path fill="#e58985" d="M 180.871094 127.855469 C 186.933594 128.035156 190.359375 125.34375 192.140625 118.996094 C 192.636719 117.234375 192.746094 116.277344 192.835938 112.964844 C 192.90625 110.574219 193.097656 107.1875 190.96875 102.367188 C 189.964844 100.09375 189.359375 99.648438 188.761719 99.054688 C 181.15625 105.765625 168.019531 118.128906 167.894531 118.582031 C 167.429688 120.203125 172.054688 127.59375 180.871094 127.855469 Z M 180.871094 127.855469 " fill-opacity="1" fill-rule="nonzero"/></g></g></g><g clip-path="url(#58f9f54fac)"><g clip-path="url(#4f454f5db6)"><g clip-path="url(#9fecd6c2b5)"><path fill="#e58985" d="M 224.507812 164.660156 C 220.347656 162.105469 214.613281 166.109375 211.933594 170.246094 C 211.140625 171.46875 210.09375 173.941406 210.285156 174.132812 C 210.328125 174.175781 229.003906 175.980469 229.195312 175.910156 C 229.648438 175.746094 229.628906 174.765625 229.117188 172.527344 C 227.785156 166.671875 224.816406 164.671875 224.507812 164.660156 Z M 224.507812 164.660156 " fill-opacity="1" fill-rule="nonzero"/></g></g></g><g clip-path="url(#6388eb0bcf)"><g clip-path="url(#d70e536f99)"><g clip-path="url(#e0f582ba4e)"><path fill="#e58985" d="M 145.144531 153.507812 C 149.554688 149.847656 147.238281 140.296875 146.511719 140.019531 C 146.15625 139.886719 133.871094 153.089844 133.859375 153.582031 C 133.832031 154.402344 140.730469 157.167969 145.144531 153.507812 Z M 145.144531 153.507812 " fill-opacity="1" fill-rule="nonzero"/></g></g></g><g clip-path="url(#9d65f3ddb7)"><g clip-path="url(#954970c582)"><g clip-path="url(#7ac17ff144)"><path fill="#e58985" d="M 175.144531 152.613281 C 166.921875 154.535156 161.519531 162.660156 160.871094 169.476562 L 160.671875 171.582031 C 188.800781 172.417969 195.855469 173.554688 196.175781 173.25 C 196.414062 173.023438 195.207031 167.820312 194.398438 165.59375 C 190.539062 154.992188 182.363281 150.925781 175.144531 152.613281 Z M 175.144531 152.613281 " fill-opacity="1" fill-rule="nonzero"/></g></g></g><g clip-path="url(#58902b907f)"><g clip-path="url(#63a59c5976)"><g clip-path="url(#9e989bdb68)"><path fill="#000000" d="M 111.378906 175.15625 C 106.644531 181.78125 105.785156 183.863281 107.101562 185.515625 C 107.675781 186.246094 107.777344 186.28125 109.121094 186.222656 C 110.355469 186.171875 111.300781 185.804688 116.804688 183.242188 C 120.253906 181.632812 123.019531 180.433594 122.949219 180.585938 C 120.804688 185.152344 119.96875 187.808594 119.898438 190.273438 C 119.628906 199.277344 129.292969 200.730469 131.910156 190.949219 C 132.386719 189.164062 132.570312 184.519531 132.285156 181.289062 C 132.101562 179.195312 132.121094 178.964844 132.5 178.699219 C 133.058594 178.316406 142.953125 176.21875 143.164062 176.421875 C 143.46875 176.75 143.09375 180.277344 142.558594 182.125 C 140.933594 187.722656 138.238281 193.527344 137.144531 199.464844 C 133.574219 218.863281 149.996094 228.300781 158.597656 215.265625 C 161.871094 210.304688 163.316406 203.375 162.492188 196.566406 C 161.832031 191.089844 160.183594 187.03125 155.476562 179.265625 C 154.367188 177.4375 153.472656 175.847656 153.476562 175.710938 C 153.492188 175.296875 154.558594 175.222656 161.714844 175.15625 C 172.882812 175.058594 179.230469 175.777344 201.933594 177.207031 C 217.457031 178.183594 224.835938 178.910156 234.734375 180.441406 C 240.113281 181.273438 239.578125 180.964844 239.492188 183.207031 C 239.398438 185.542969 239.714844 186.128906 241.597656 187.132812 C 242.875 187.8125 246.855469 188.921875 249.972656 189.464844 C 255.136719 190.363281 258.617188 189.445312 261.476562 186.425781 C 265.15625 182.546875 267.996094 176.019531 269.089844 168.945312 C 269.621094 165.523438 269.882812 154.035156 269.5625 148.464844 C 266.667969 98.410156 238.460938 63.894531 222.058594 61.289062 C 216.402344 60.390625 217.816406 61.238281 209.179688 69.507812 C 207.617188 71.003906 206.148438 72.554688 205.941406 72.917969 C 204.539062 75.410156 207.15625 78.34375 207.117188 78.289062 C 178.097656 103.222656 133.621094 144.03125 111.378906 175.15625 Z M 146.511719 140.019531 C 147.238281 140.296875 149.554688 149.851562 145.144531 153.507812 C 140.734375 157.167969 133.832031 154.402344 133.859375 153.582031 C 133.871094 153.089844 146.15625 139.886719 146.511719 140.019531 Z M 196.167969 173.25 C 195.84375 173.554688 188.792969 172.417969 160.660156 171.582031 L 160.859375 169.476562 C 161.515625 162.660156 166.917969 154.535156 175.132812 152.613281 C 182.355469 150.925781 190.53125 154.992188 194.382812 165.59375 C 195.195312 167.820312 196.40625 173.023438 196.167969 173.25 Z M 229.191406 175.910156 C 229.003906 175.980469 210.328125 174.175781 210.28125 174.128906 C 210.085938 173.9375 211.136719 171.46875 211.929688 170.246094 C 214.609375 166.109375 220.355469 162.105469 224.503906 164.660156 C 224.8125 164.671875 227.78125 166.671875 229.109375 172.527344 C 229.625 174.765625 229.644531 175.746094 229.191406 175.910156 Z M 210.820312 72.761719 C 211.71875 72.296875 218.746094 64.394531 219.515625 64.417969 C 219.777344 64.425781 221.304688 64.722656 221.253906 64.71875 C 233.679688 67.285156 245.84375 84.515625 251.785156 95.609375 C 260.125 111.199219 264.96875 129.328125 266.101562 149.21875 C 266.363281 153.902344 266.011719 166.105469 265.527344 168.855469 C 264.371094 175.453125 261.800781 181.152344 258.570312 184.292969 C 256.753906 186.054688 255.464844 186.441406 252.339844 186.164062 C 250.570312 186.007812 245.136719 185.019531 242.984375 183.917969 C 243.234375 172.152344 242.734375 162.21875 241.804688 154.445312 C 238.992188 130.871094 229.324219 101.035156 212.324219 79.464844 C 209.996094 76.507812 209.644531 75.570312 209.132812 74.558594 C 209.507812 74.09375 210.3125 73.03125 210.820312 72.761719 Z M 191.960938 96.21875 C 192.445312 95.699219 203.542969 85.96875 207.222656 82.835938 C 208.902344 81.40625 209.359375 81.125 209.628906 81.355469 C 209.855469 81.542969 212.59375 85.300781 212.542969 85.296875 C 228.085938 107.367188 237.472656 137.449219 239.140625 164.378906 C 239.371094 168.15625 239.679688 177.375 239.574219 177.535156 C 239.46875 177.695312 233.570312 176.742188 233.445312 176.582031 C 233.144531 176.1875 232.75 164.835938 225.765625 161.253906 C 218.511719 157.53125 208.527344 165.425781 207.089844 173.9375 L 199.925781 173.589844 L 199.476562 171.078125 C 193.6875 138.613281 160.035156 144.808594 157.566406 169.449219 L 157.34375 171.667969 C 154.308594 171.8125 150.441406 171.757812 149.789062 174.710938 C 149.519531 175.910156 149.898438 176.867188 152.058594 180.453125 C 157.691406 189.800781 159.042969 193.546875 159.101562 200.019531 C 159.140625 204.855469 158.347656 208.394531 156.359375 212.21875 C 155.277344 214.296875 152.5625 216.878906 150.921875 217.382812 C 144.71875 219.285156 139.964844 212.484375 140.222656 204.246094 C 140.527344 194.609375 146.050781 186.734375 146.625 178.894531 C 146.863281 175.609375 146.695312 174.707031 145.636719 173.621094 C 144.992188 172.960938 144.796875 172.894531 143.34375 172.871094 C 141.484375 172.84375 132.710938 174.671875 130.960938 175.453125 C 126.710938 177.347656 129.800781 182.625 128.753906 188.667969 C 127.941406 193.367188 125.199219 195.695312 123.839844 192.835938 C 123.425781 191.957031 123.386719 191.550781 123.550781 189.785156 C 124.097656 183.945312 129.273438 178.582031 126.910156 176.402344 C 125.671875 175.265625 125.054688 175.433594 117.726562 178.894531 C 114.074219 180.636719 111.082031 181.988281 111.082031 181.914062 C 111.113281 180.957031 121.710938 166.882812 131.515625 155.964844 L 132.539062 156.703125 C 135.675781 158.96875 141.726562 159.289062 145.492188 157.382812 C 148.039062 156.09375 150.148438 153.339844 150.855469 150.386719 C 151.273438 148.636719 151.355469 144.339844 151.007812 142.410156 C 150.664062 140.503906 149.746094 138.316406 149.191406 136.910156 C 150.996094 135.074219 163.070312 122.902344 165.027344 121.195312 L 166.210938 123.136719 C 172.3125 133.144531 188.257812 134.847656 193.824219 124.410156 C 198.347656 115.921875 196.648438 102.601562 192.195312 97.53125 C 191.492188 96.734375 191.492188 96.734375 191.964844 96.222656 Z M 188.757812 99.050781 C 189.355469 99.640625 189.960938 100.082031 190.964844 102.363281 C 193.09375 107.1875 192.894531 110.5625 192.832031 112.960938 C 192.734375 116.273438 192.632812 117.226562 192.136719 118.988281 C 190.351562 125.339844 186.929688 128.027344 180.867188 127.847656 C 172.050781 127.585938 167.421875 120.195312 167.886719 118.566406 C 168.019531 118.128906 181.15625 105.765625 188.765625 99.054688 Z M 188.757812 99.050781 " fill-opacity="1" fill-rule="nonzero"/></g></g></g><g clip-path="url(#6e86f6a60f)"><g clip-path="url(#304c2e8f3d)"><g clip-path="url(#01e4a0c949)"><path fill="#000000" d="M 228.886719 134.773438 C 229.121094 125.953125 221.835938 121.167969 214.679688 123.25 C 205.976562 125.785156 201.328125 136.582031 205.761719 143.957031 C 212.074219 154.449219 228.535156 147.824219 228.886719 134.773438 Z M 218.128906 126.367188 C 219.039062 126.386719 219.929688 126.535156 220.796875 126.8125 C 222.394531 127.414062 224.011719 129.066406 224.777344 130.882812 C 225.351562 132.230469 225.410156 132.648438 225.339844 134.667969 C 225.027344 143.722656 215.125 148.480469 210.011719 143.609375 C 204.167969 138.039062 209.734375 126.222656 218.128906 126.367188 Z M 218.128906 126.367188 " fill-opacity="1" fill-rule="nonzero"/></g></g></g><g fill="#ffffff" fill-opacity="1"><g transform="translate(58.717455, 270.011101)"><g><path d="M 6.09375 0.738281 C 9.230469 0.738281 12.601562 -0.644531 12.601562 -3.136719 C 12.601562 -4.617188 12.046875 -5.539062 11.445312 -6.601562 C 10.707031 -7.890625 9.878906 -9.371094 9.878906 -12.183594 C 9.878906 -15.371094 11.125 -15.648438 13.984375 -16.246094 C 19.109375 -17.308594 22.660156 -19.800781 22.660156 -25.109375 C 22.660156 -31.476562 16.246094 -32.308594 11.261719 -32.308594 C 4.199219 -32.308594 1.246094 -30.832031 1.246094 -27.785156 C 1.246094 -26.492188 1.707031 -25.664062 2.214844 -24.691406 C 3.046875 -23.167969 4.0625 -21.230469 4.0625 -16.570312 L 4.0625 -13.015625 C 4.0625 -9.460938 3.136719 -7.617188 2.355469 -6.09375 C 1.753906 -4.9375 1.246094 -3.921875 1.246094 -2.492188 C 1.246094 -0.230469 3.507812 0.738281 6.09375 0.738281 Z M 12.09375 -20.03125 C 10.894531 -20.03125 9.832031 -20.445312 9.832031 -24.371094 C 9.832031 -27.140625 10.847656 -27.878906 12.507812 -27.878906 C 15.140625 -27.878906 16.015625 -25.617188 16.015625 -24 C 16.015625 -22.292969 14.863281 -20.03125 12.09375 -20.03125 Z M 12.09375 -20.03125 "/></g></g></g><g fill="#ffffff" fill-opacity="1"><g transform="translate(81.745461, 270.011101)"><g><path d="M 6 -25.15625 C 8.398438 -25.15625 10.847656 -26.445312 10.847656 -29.214844 C 10.847656 -31.292969 8.953125 -32.308594 6.785156 -32.308594 C 4.199219 -32.308594 1.339844 -30.832031 1.339844 -28.523438 C 1.339844 -26.355469 3.644531 -25.15625 6 -25.15625 Z M 5.261719 0.738281 C 7.890625 0.738281 10.707031 -0.644531 10.707031 -3.136719 C 10.707031 -3.96875 10.386719 -4.617188 9.96875 -5.308594 C 9.371094 -6.371094 8.632812 -7.800781 8.632812 -11.214844 C 8.632812 -14.355469 9.277344 -15.183594 9.832031 -16.0625 C 10.152344 -16.523438 10.707031 -17.355469 10.707031 -18.507812 C 10.707031 -20.585938 8.816406 -21.601562 6.644531 -21.601562 C 4.0625 -21.601562 1.199219 -20.125 1.199219 -17.816406 C 1.199219 -16.894531 1.660156 -16.292969 2.167969 -15.691406 C 2.816406 -14.90625 3.601562 -14.214844 3.601562 -11.03125 C 3.601562 -7.617188 2.769531 -6.09375 2.078125 -5.03125 C 1.800781 -4.617188 1.199219 -3.644531 1.199219 -2.398438 C 1.199219 -0.230469 3.09375 0.738281 5.261719 0.738281 Z M 5.261719 0.738281 "/></g></g></g><g fill="#ffffff" fill-opacity="1"><g transform="translate(93.744018, 270.011101)"><g><path d="M 3.96875 0.738281 C 4.984375 0.738281 5.769531 0.644531 7.570312 0.324219 C 8.863281 0.09375 9.644531 0 10.386719 0 C 11.238281 0 11.722656 0.046875 13.199219 0.324219 C 14.398438 0.644531 15.277344 0.738281 16.476562 0.738281 C 19.429688 0.738281 20.953125 -1.292969 20.953125 -3.785156 C 20.953125 -5.445312 19.753906 -6.414062 17.792969 -6.414062 C 16.476562 -6.414062 15.324219 -6.046875 13.109375 -4.847656 C 11.421875 -3.878906 10.617188 -3.601562 9.460938 -3.601562 C 8.632812 -3.601562 8.261719 -3.878906 8.261719 -4.339844 C 8.261719 -5.03125 9.09375 -6.09375 11.953125 -8.863281 C 13.523438 -10.429688 14.167969 -11.03125 15.878906 -12.738281 C 18.414062 -15.277344 20.492188 -15.921875 20.492188 -19.015625 C 20.492188 -20.910156 19.199219 -21.601562 17.863281 -21.601562 C 15.96875 -21.601562 15.046875 -21.09375 13.0625 -21.09375 C 10.617188 -21.09375 8.863281 -21.601562 6.691406 -21.601562 C 3.738281 -21.601562 1.707031 -19.984375 1.707031 -17.585938 C 1.707031 -15.785156 2.769531 -14.816406 4.800781 -14.816406 C 6.183594 -14.816406 7.292969 -15.277344 9 -16.523438 C 10.847656 -17.769531 11.722656 -18.140625 12.921875 -18.140625 C 13.429688 -18.140625 13.660156 -17.953125 13.660156 -17.585938 C 13.660156 -16.894531 12.460938 -15.554688 9.09375 -12.460938 C 3.046875 -6.878906 0.832031 -4.015625 0.832031 -1.890625 C 0.832031 -0.183594 1.9375 0.738281 3.96875 0.738281 Z M 3.96875 0.738281 "/></g></g></g><g fill="#ffffff" fill-opacity="1"><g transform="translate(115.618311, 270.011101)"><g><path d="M 3.96875 0.738281 C 4.984375 0.738281 5.769531 0.644531 7.570312 0.324219 C 8.863281 0.09375 9.644531 0 10.386719 0 C 11.238281 0 11.722656 0.046875 13.199219 0.324219 C 14.398438 0.644531 15.277344 0.738281 16.476562 0.738281 C 19.429688 0.738281 20.953125 -1.292969 20.953125 -3.785156 C 20.953125 -5.445312 19.753906 -6.414062 17.792969 -6.414062 C 16.476562 -6.414062 15.324219 -6.046875 13.109375 -4.847656 C 11.421875 -3.878906 10.617188 -3.601562 9.460938 -3.601562 C 8.632812 -3.601562 8.261719 -3.878906 8.261719 -4.339844 C 8.261719 -5.03125 9.09375 -6.09375 11.953125 -8.863281 C 13.523438 -10.429688 14.167969 -11.03125 15.878906 -12.738281 C 18.414062 -15.277344 20.492188 -15.921875 20.492188 -19.015625 C 20.492188 -20.910156 19.199219 -21.601562 17.863281 -21.601562 C 15.96875 -21.601562 15.046875 -21.09375 13.0625 -21.09375 C 10.617188 -21.09375 8.863281 -21.601562 6.691406 -21.601562 C 3.738281 -21.601562 1.707031 -19.984375 1.707031 -17.585938 C 1.707031 -15.785156 2.769531 -14.816406 4.800781 -14.816406 C 6.183594 -14.816406 7.292969 -15.277344 9 -16.523438 C 10.847656 -17.769531 11.722656 -18.140625 12.921875 -18.140625 C 13.429688 -18.140625 13.660156 -17.953125 13.660156 -17.585938 C 13.660156 -16.894531 12.460938 -15.554688 9.09375 -12.460938 C 3.046875 -6.878906 0.832031 -4.015625 0.832031 -1.890625 C 0.832031 -0.183594 1.9375 0.738281 3.96875 0.738281 Z M 3.96875 0.738281 "/></g></g></g><g fill="#ffffff" fill-opacity="1"><g transform="translate(137.492604, 270.011101)"><g><path d="M 9.460938 0.738281 C 12.53125 0.738281 13.914062 -0.875 14.90625 -2.03125 C 15.460938 -2.652344 15.878906 -3.136719 16.386719 -3.136719 C 16.753906 -3.136719 17.125 -2.863281 17.125 -1.890625 C 17.125 -0.554688 17.125 0.738281 19.292969 0.738281 C 21.601562 0.738281 24.507812 -0.738281 24.507812 -3.046875 C 24.507812 -4.039062 24.183594 -4.429688 23.769531 -4.914062 C 23.078125 -5.722656 22.199219 -6.761719 22.199219 -11.03125 C 22.199219 -15.878906 22.660156 -17.238281 22.984375 -18.183594 C 23.167969 -18.714844 23.308594 -19.109375 23.308594 -19.894531 C 23.308594 -21.140625 22.246094 -21.601562 21.554688 -21.601562 C 20.148438 -21.601562 19.640625 -20.953125 19.175781 -20.402344 C 18.808594 -19.9375 18.460938 -19.523438 17.722656 -19.523438 C 17.125 -19.523438 16.660156 -19.871094 16.132812 -20.285156 C 15.347656 -20.863281 14.378906 -21.601562 12.507812 -21.601562 C 6.046875 -21.601562 1.109375 -15.183594 1.109375 -8.816406 C 1.109375 -3.230469 4.660156 0.738281 9.460938 0.738281 Z M 11.492188 -4.523438 C 9.046875 -4.523438 8.078125 -7.152344 8.078125 -9.96875 C 8.078125 -13.847656 10.0625 -17.675781 13.429688 -17.675781 C 15.648438 -17.675781 17.125 -16.0625 17.125 -12.921875 C 17.125 -8.355469 14.492188 -4.523438 11.492188 -4.523438 Z M 11.492188 -4.523438 "/></g></g></g><g fill="#ffffff" fill-opacity="1"><g transform="translate(162.920321, 270.011101)"><g/></g></g><g fill="#ffffff" fill-opacity="1"><g transform="translate(174.918879, 270.011101)"><g><path d="M 12.738281 0.738281 C 20.355469 0.738281 24.554688 -2.539062 24.554688 -8.078125 C 24.554688 -14.167969 19.523438 -16.570312 15.09375 -18.648438 C 11.632812 -20.308594 8.492188 -21.785156 8.492188 -24.738281 C 8.492188 -26.445312 9.878906 -27.554688 11.816406 -27.554688 C 13.707031 -27.554688 14.445312 -26.769531 14.816406 -25.0625 C 15.371094 -22.9375 16.339844 -21.554688 19.015625 -21.554688 C 21.371094 -21.554688 23.445312 -22.984375 23.445312 -25.847656 C 23.445312 -28.664062 20.632812 -32.308594 13.246094 -32.308594 C 7.660156 -32.308594 2.261719 -29.816406 2.261719 -23.769531 C 2.261719 -17.675781 7.386719 -15.230469 11.769531 -13.152344 C 14.953125 -11.585938 17.722656 -10.292969 17.722656 -7.847656 C 17.722656 -6.046875 16.707031 -4.476562 14.214844 -4.476562 C 12.09375 -4.476562 10.984375 -5.308594 10.152344 -7.292969 C 9 -9.96875 7.984375 -10.800781 5.445312 -10.800781 C 2.398438 -10.800781 0.832031 -8.398438 0.832031 -6.046875 C 0.832031 -2.355469 4.753906 0.738281 12.738281 0.738281 Z M 12.738281 0.738281 "/></g></g></g><g fill="#ffffff" fill-opacity="1"><g transform="translate(200.485035, 270.011101)"><g><path d="M 6.277344 0.738281 C 8.90625 0.738281 11.722656 -0.644531 11.722656 -3.136719 C 11.722656 -4.0625 11.355469 -4.707031 11.03125 -5.308594 C 9.644531 -7.890625 9.644531 -10.753906 9.644531 -12.554688 L 9.644531 -15.371094 C 9.644531 -17.285156 10.800781 -17.402344 11.953125 -17.492188 C 13.0625 -17.5625 14.167969 -17.609375 14.167969 -19.476562 C 14.167969 -21.023438 12.96875 -21.230469 11.816406 -21.230469 C 9.507812 -21.230469 9.878906 -21.554688 9.878906 -25.246094 C 9.878906 -27.601562 9.785156 -28.800781 8.261719 -28.800781 C 6.507812 -28.800781 6.183594 -27.09375 4.800781 -24.371094 C 2.769531 -20.402344 0.601562 -20.953125 0.601562 -19.292969 C 0.601562 -17.632812 1.707031 -17.492188 2.769531 -17.402344 C 3.691406 -17.261719 4.617188 -17.167969 4.617188 -15.921875 L 4.617188 -12.554688 C 4.617188 -7.707031 3.738281 -6.230469 3.046875 -5.03125 C 2.585938 -4.246094 2.214844 -3.460938 2.214844 -2.492188 C 2.214844 -0.230469 4.109375 0.738281 6.277344 0.738281 Z M 6.277344 0.738281 "/></g></g></g><g fill="#ffffff" fill-opacity="1"><g transform="translate(215.067897, 270.011101)"><g><path d="M 9.460938 0.738281 C 12.53125 0.738281 13.914062 -0.875 14.90625 -2.03125 C 15.460938 -2.652344 15.878906 -3.136719 16.386719 -3.136719 C 16.753906 -3.136719 17.125 -2.863281 17.125 -1.890625 C 17.125 -0.554688 17.125 0.738281 19.292969 0.738281 C 21.601562 0.738281 24.507812 -0.738281 24.507812 -3.046875 C 24.507812 -4.039062 24.183594 -4.429688 23.769531 -4.914062 C 23.078125 -5.722656 22.199219 -6.761719 22.199219 -11.03125 C 22.199219 -15.878906 22.660156 -17.238281 22.984375 -18.183594 C 23.167969 -18.714844 23.308594 -19.109375 23.308594 -19.894531 C 23.308594 -21.140625 22.246094 -21.601562 21.554688 -21.601562 C 20.148438 -21.601562 19.640625 -20.953125 19.175781 -20.402344 C 18.808594 -19.9375 18.460938 -19.523438 17.722656 -19.523438 C 17.125 -19.523438 16.660156 -19.871094 16.132812 -20.285156 C 15.347656 -20.863281 14.378906 -21.601562 12.507812 -21.601562 C 6.046875 -21.601562 1.109375 -15.183594 1.109375 -8.816406 C 1.109375 -3.230469 4.660156 0.738281 9.460938 0.738281 Z M 11.492188 -4.523438 C 9.046875 -4.523438 8.078125 -7.152344 8.078125 -9.96875 C 8.078125 -13.847656 10.0625 -17.675781 13.429688 -17.675781 C 15.648438 -17.675781 17.125 -16.0625 17.125 -12.921875 C 17.125 -8.355469 14.492188 -4.523438 11.492188 -4.523438 Z M 11.492188 -4.523438 "/></g></g></g><g fill="#ffffff" fill-opacity="1"><g transform="translate(240.495614, 270.011101)"><g><path d="M 6.277344 0.738281 C 8.90625 0.738281 11.722656 -0.644531 11.722656 -3.136719 C 11.722656 -4.0625 11.355469 -4.707031 11.03125 -5.308594 C 9.644531 -7.890625 9.644531 -10.753906 9.644531 -12.554688 L 9.644531 -15.371094 C 9.644531 -17.285156 10.800781 -17.402344 11.953125 -17.492188 C 13.0625 -17.5625 14.167969 -17.609375 14.167969 -19.476562 C 14.167969 -21.023438 12.96875 -21.230469 11.816406 -21.230469 C 9.507812 -21.230469 9.878906 -21.554688 9.878906 -25.246094 C 9.878906 -27.601562 9.785156 -28.800781 8.261719 -28.800781 C 6.507812 -28.800781 6.183594 -27.09375 4.800781 -24.371094 C 2.769531 -20.402344 0.601562 -20.953125 0.601562 -19.292969 C 0.601562 -17.632812 1.707031 -17.492188 2.769531 -17.402344 C 3.691406 -17.261719 4.617188 -17.167969 4.617188 -15.921875 L 4.617188 -12.554688 C 4.617188 -7.707031 3.738281 -6.230469 3.046875 -5.03125 C 2.585938 -4.246094 2.214844 -3.460938 2.214844 -2.492188 C 2.214844 -0.230469 4.109375 0.738281 6.277344 0.738281 Z M 6.277344 0.738281 "/></g></g></g><g fill="#ffffff" fill-opacity="1"><g transform="translate(255.078465, 270.011101)"><g><path d="M 6 -25.15625 C 8.398438 -25.15625 10.847656 -26.445312 10.847656 -29.214844 C 10.847656 -31.292969 8.953125 -32.308594 6.785156 -32.308594 C 4.199219 -32.308594 1.339844 -30.832031 1.339844 -28.523438 C 1.339844 -26.355469 3.644531 -25.15625 6 -25.15625 Z M 5.261719 0.738281 C 7.890625 0.738281 10.707031 -0.644531 10.707031 -3.136719 C 10.707031 -3.96875 10.386719 -4.617188 9.96875 -5.308594 C 9.371094 -6.371094 8.632812 -7.800781 8.632812 -11.214844 C 8.632812 -14.355469 9.277344 -15.183594 9.832031 -16.0625 C 10.152344 -16.523438 10.707031 -17.355469 10.707031 -18.507812 C 10.707031 -20.585938 8.816406 -21.601562 6.644531 -21.601562 C 4.0625 -21.601562 1.199219 -20.125 1.199219 -17.816406 C 1.199219 -16.894531 1.660156 -16.292969 2.167969 -15.691406 C 2.816406 -14.90625 3.601562 -14.214844 3.601562 -11.03125 C 3.601562 -7.617188 2.769531 -6.09375 2.078125 -5.03125 C 1.800781 -4.617188 1.199219 -3.644531 1.199219 -2.398438 C 1.199219 -0.230469 3.09375 0.738281 5.261719 0.738281 Z M 5.261719 0.738281 "/></g></g></g><g fill="#ffffff" fill-opacity="1"><g transform="translate(267.077022, 270.011101)"><g><path d="M 11.632812 0.738281 C 19.429688 0.738281 22.984375 -4.800781 22.984375 -10.523438 C 22.984375 -17.492188 18.230469 -21.601562 12.460938 -21.601562 C 5.03125 -21.601562 1.152344 -15.878906 1.152344 -9.878906 C 1.152344 -3.507812 5.398438 0.738281 11.632812 0.738281 Z M 11.953125 -3.96875 C 9.230469 -3.96875 7.753906 -6.507812 7.753906 -9.878906 C 7.753906 -13.476562 9.738281 -16.617188 12.785156 -16.617188 C 15.460938 -16.617188 16.570312 -14.167969 16.570312 -11.167969 C 16.570312 -7.847656 15.277344 -3.96875 11.953125 -3.96875 Z M 11.953125 -3.96875 "/></g></g></g><g fill="#ffffff" fill-opacity="1"><g transform="translate(291.212587, 270.011101)"><g><path d="M 23.492188 -5.355469 C 22.15625 -7.660156 21.96875 -8.355469 21.96875 -10.339844 C 21.96875 -10.984375 22.109375 -13.660156 22.109375 -14.261719 C 22.109375 -19.109375 20.261719 -21.601562 16.894531 -21.601562 C 14.953125 -21.601562 13.523438 -20.953125 11.445312 -18.96875 C 10.292969 -17.863281 9.832031 -17.585938 9.324219 -17.585938 C 8.953125 -17.585938 8.585938 -17.816406 8.585938 -19.15625 C 8.585938 -20.675781 8.355469 -21.601562 6.460938 -21.601562 C 3.691406 -21.601562 1.199219 -19.800781 1.199219 -17.816406 C 1.199219 -17.078125 1.476562 -16.523438 2.167969 -15.691406 C 3.230469 -14.445312 3.601562 -13.246094 3.601562 -10.9375 C 3.601562 -8.445312 3.136719 -6.644531 2.078125 -5.03125 C 1.523438 -4.199219 1.199219 -3.230469 1.199219 -2.398438 C 1.199219 -0.460938 2.769531 0.738281 5.261719 0.738281 C 8.308594 0.738281 10.707031 -0.96875 10.707031 -3.136719 C 10.707031 -3.832031 10.523438 -4.429688 9.96875 -5.308594 C 9 -7.0625 8.585938 -8.769531 8.585938 -10.292969 C 8.585938 -13.894531 10.292969 -16.0625 13.800781 -16.0625 C 15.96875 -16.0625 17.078125 -14.445312 17.078125 -10.617188 C 17.078125 -8.585938 16.523438 -6.554688 15.554688 -5.03125 C 15 -4.199219 14.675781 -3.230469 14.675781 -2.398438 C 14.675781 -0.460938 16.246094 0.738281 18.738281 0.738281 C 21.785156 0.738281 24.183594 -0.96875 24.183594 -3.136719 C 24.183594 -3.878906 24 -4.476562 23.492188 -5.355469 Z M 23.492188 -5.355469 "/></g></g></g><g fill="#ffffff" fill-opacity="1"><g transform="translate(88.743144, 311.926883)"><g><path d="M 1.835938 0 L 5.371094 0 C 9.683594 0 12.097656 -2.347656 12.097656 -6.457031 C 12.097656 -10.742188 9.75 -13.105469 5.390625 -13.105469 L 1.835938 -13.105469 Z M 3.71875 -1.726562 L 3.71875 -11.390625 L 5.351562 -11.390625 C 8.710938 -11.390625 10.214844 -9.8125 10.214844 -6.558594 C 10.214844 -3.109375 8.125 -1.726562 5.148438 -1.726562 Z M 3.71875 -1.726562 "/></g></g></g><g fill="#ffffff" fill-opacity="1"><g transform="translate(104.985697, 311.926883)"><g><path d="M 1.835938 0 L 10.4375 0 L 10.4375 -1.753906 L 3.71875 -1.753906 L 3.71875 -5.722656 L 9.738281 -5.722656 L 9.738281 -7.394531 L 3.71875 -7.394531 L 3.71875 -11.417969 L 10.4375 -11.417969 L 10.4375 -13.105469 L 1.835938 -13.105469 Z M 1.835938 0 "/></g></g></g><g fill="#ffffff" fill-opacity="1"><g transform="translate(119.697797, 311.926883)"><g><path d="M 1.835938 0 L 9.332031 0 L 9.332031 -1.753906 L 3.71875 -1.753906 L 3.71875 -13.105469 L 1.835938 -13.105469 Z M 1.835938 0 "/></g></g></g><g fill="#ffffff" fill-opacity="1"><g transform="translate(132.619744, 311.926883)"><g><path d="M 1.835938 0 L 3.71875 0 L 3.71875 -13.105469 L 1.835938 -13.105469 Z M 1.835938 0 "/></g></g></g><g fill="#ffffff" fill-opacity="1"><g transform="translate(141.367744, 311.926883)"><g><path d="M 7.050781 0.183594 C 9.609375 0.183594 11.578125 -1.105469 12.585938 -3.441406 L 10.851562 -4.175781 C 10.121094 -2.261719 8.785156 -1.585938 7.097656 -1.585938 C 4.070312 -1.585938 2.839844 -3.867188 2.839844 -6.625 C 2.839844 -9.265625 4.0625 -11.539062 7.058594 -11.539062 C 8.746094 -11.539062 10.296875 -10.882812 10.824219 -8.980469 L 12.570312 -9.703125 C 11.585938 -12.132812 9.609375 -13.320312 7.105469 -13.320312 C 2.867188 -13.320312 0.972656 -10.175781 0.972656 -6.566406 C 0.972656 -2.921875 2.914062 0.183594 7.050781 0.183594 Z M 7.050781 0.183594 "/></g></g></g><g fill="#ffffff" fill-opacity="1"><g transform="translate(157.777255, 311.926883)"><g><path d="M 1.835938 0 L 3.71875 0 L 3.71875 -13.105469 L 1.835938 -13.105469 Z M 1.835938 0 "/></g></g></g><g fill="#ffffff" fill-opacity="1"><g transform="translate(166.525255, 311.926883)"><g><path d="M 7.050781 0.183594 C 11.207031 0.183594 13.144531 -2.949219 13.144531 -6.558594 C 13.144531 -10.15625 11.207031 -13.300781 7.050781 -13.300781 C 2.902344 -13.300781 0.964844 -10.15625 0.964844 -6.558594 C 0.964844 -2.949219 2.902344 0.183594 7.050781 0.183594 Z M 7.050781 -1.511719 C 4.054688 -1.511719 2.894531 -3.90625 2.894531 -6.558594 C 2.894531 -9.203125 4.054688 -11.59375 7.050781 -11.59375 C 10.054688 -11.59375 11.222656 -9.203125 11.222656 -6.558594 C 11.222656 -3.90625 10.054688 -1.511719 7.050781 -1.511719 Z M 7.050781 -1.511719 "/></g></g></g><g fill="#ffffff" fill-opacity="1"><g transform="translate(183.825208, 311.926883)"><g><path d="M 6.328125 0.183594 C 9.703125 0.183594 11.121094 -2.039062 11.121094 -5.046875 L 11.121094 -13.105469 L 9.230469 -13.105469 L 9.230469 -5.296875 C 9.230469 -3.109375 8.582031 -1.625 6.328125 -1.625 C 4.070312 -1.625 3.441406 -3.109375 3.441406 -5.296875 L 3.441406 -13.105469 L 1.558594 -13.105469 L 1.558594 -4.953125 C 1.558594 -2.039062 2.949219 0.183594 6.328125 0.183594 Z M 6.328125 0.183594 "/></g></g></g><g fill="#ffffff" fill-opacity="1"><g transform="translate(199.687462, 311.926883)"><g><path d="M 5.363281 0.148438 C 7.773438 0.148438 9.664062 -1.335938 9.664062 -3.710938 C 9.664062 -7.996094 3.339844 -7.246094 3.339844 -9.960938 C 3.339844 -10.992188 4.21875 -11.640625 5.230469 -11.640625 C 6.195312 -11.640625 7.078125 -11.148438 7.578125 -10.183594 L 9.082031 -11.140625 C 8.226562 -12.625 6.855469 -13.300781 5.277344 -13.300781 C 3.210938 -13.300781 1.476562 -11.992188 1.476562 -9.84375 C 1.476562 -5.722656 7.808594 -6.625 7.808594 -3.554688 C 7.808594 -2.273438 6.875 -1.53125 5.378906 -1.53125 C 3.90625 -1.53125 2.605469 -2.300781 2.429688 -4.007812 L 0.601562 -3.515625 C 1 -1.066406 3.136719 0.148438 5.363281 0.148438 Z M 5.363281 0.148438 "/></g></g></g><g fill="#ffffff" fill-opacity="1"><g transform="translate(213.295791, 311.926883)"><g/></g></g><g fill="#ffffff" fill-opacity="1"><g transform="translate(221.292475, 311.926883)"><g><path d="M 1.835938 0 L 3.710938 0 L 3.710938 -5.695312 L 5.714844 -5.695312 C 8.320312 -5.695312 10.109375 -6.996094 10.109375 -9.367188 C 10.109375 -11.726562 8.320312 -13.105469 5.714844 -13.105469 L 1.835938 -13.105469 Z M 3.710938 -7.421875 L 3.710938 -11.382812 L 5.714844 -11.382812 C 7.394531 -11.382812 8.246094 -10.640625 8.246094 -9.367188 C 8.246094 -8.078125 7.402344 -7.421875 5.714844 -7.421875 Z M 3.710938 -7.421875 "/></g></g></g><g fill="#ffffff" fill-opacity="1"><g transform="translate(235.216169, 311.926883)"><g><path d="M 1.835938 0 L 3.71875 0 L 3.71875 -13.105469 L 1.835938 -13.105469 Z M 1.835938 0 "/></g></g></g><g fill="#ffffff" fill-opacity="1"><g transform="translate(243.964169, 311.926883)"><g><path d="M 0.6875 0 L 11 0 L 11 -1.707031 L 3.199219 -1.707031 L 11 -11.667969 L 11 -13.105469 L 1.105469 -13.105469 L 1.105469 -11.417969 L 8.523438 -11.417969 L 0.6875 -1.371094 Z M 0.6875 0 "/></g></g></g><g fill="#ffffff" fill-opacity="1"><g transform="translate(258.963814, 311.926883)"><g><path d="M 0.6875 0 L 11 0 L 11 -1.707031 L 3.199219 -1.707031 L 11 -11.667969 L 11 -13.105469 L 1.105469 -13.105469 L 1.105469 -11.417969 L 8.523438 -11.417969 L 0.6875 -1.371094 Z M 0.6875 0 "/></g></g></g><g fill="#ffffff" fill-opacity="1"><g transform="translate(273.963458, 311.926883)"><g><path d="M 0.363281 0 L 2.421875 0 L 3.433594 -2.847656 L 8.878906 -2.847656 L 9.878906 0 L 11.910156 0 L 6.863281 -13.105469 L 5.4375 -13.105469 Z M 4.0625 -4.507812 L 6.160156 -10.332031 L 8.238281 -4.507812 Z M 4.0625 -4.507812 "/></g></g></g></svg>